{
.appVersion = "3309";
.formatVersion = 3;
customParameters = (
{
name = panose;
value = (
0,
0,
0,
0,
0,
0,
0,
0,
0,
0
);
},
{
name = "Use Typo Metrics";
value = 1;
},
{
name = fsType;
value = (
);
}
);
date = "2012-05-12 11:24:25 +0000";
familyName = Cutive;
featurePrefixes = (
{
automatic = 1;
code = "languagesystem DFLT dflt;

languagesystem latn dflt;
languagesystem latn AZE;
languagesystem latn CRT;
languagesystem latn KAZ;
languagesystem latn TAT;
languagesystem latn TRK;
languagesystem latn ROM;
languagesystem latn MOL;
languagesystem latn CAT;
";
name = Languagesystems;
}
);
features = (
{
automatic = 1;
code = "feature locl;
feature sups;
feature frac;
feature ordn;
feature case;
";
tag = aalt;
},
{
automatic = 1;
code = "lookup ccmp_Other_1 {
	@CombiningTopAccents = [acutecomb brevecomb breveinvertedcomb caroncomb circumflexcomb dblgravecomb dieresiscomb dotaccentcomb gravecomb hungarumlautcomb macroncomb ringcomb tildecomb];
	lookupflag UseMarkFilteringSet @CombiningTopAccents;
	sub i' @CombiningTopAccents by idotless;
	sub j' @CombiningTopAccents by jdotless;
} ccmp_Other_1;

lookup ccmp_latn_1 {
	lookupflag 0;
	sub fi by f i;
	sub fl by f l;
	sub Ldot by L periodcentered.loclCAT.case;
	sub ldot by l periodcentered.loclCAT;
	sub lj by l j;
	sub Lj by L j;
	sub LJ by L J;
	sub nj by n j;
	sub Nj by N j;
	sub NJ by N J;
	sub dzcaron by d zcaron;
	sub Dzcaron by D zcaron;
	sub DZcaron by D Zcaron;
	sub dz by d z;
	sub Dz by D z;
	sub DZ by D Z;
} ccmp_latn_1;

script latn;
lookup ccmp_latn_1;
";
tag = ccmp;
},
{
automatic = 1;
code = "script latn;
language AZE;
lookup locl_latn_0 {
	sub i by idotaccent;
} locl_latn_0;
language CRT;
lookup locl_latn_0;
language KAZ;
lookup locl_latn_0;
language TAT;
lookup locl_latn_0;
language TRK;
lookup locl_latn_0;

script latn;
language ROM;
lookup locl_latn_1 {
	sub Scedilla by Scommaaccent;
	sub scedilla by scommaaccent;
	sub Tcedilla by Tcommaaccent;
	sub tcedilla by tcommaaccent;
} locl_latn_1;
language MOL;

glyphs = (
{
glyphname = A;
kernLeft = A;
kernRight = A;
lastChange = "2024-05-02 12:22:03 +0000";
layers = (
{
anchors = (
{
name = bottom;
pos = (995,0);
},
{
name = ogonek;
pos = (1791,10);
},
{
name = top;
pos = (995,1714);
}
);
background = {
shapes = (
{
closed = 1;
nodes = (
(13,134,o),
(34,176,o),
(85,176,cs),
(224,176,l),
(886,1671,ls),
(906,1718,o),
(945,1763,o),
(1009,1763,cs),
(1076,1763,o),
(1107,1717,o),
(1127,1667,cs),
(1728,176,l),
(1906,176,ls),
(1957,176,o),
(1977,134,o),
(1977,84,cs),
(1977,40,o),
(1951,0,o),
(1904,0,cs),
(1259,0,ls),
(1212,0,o),
(1185,40,o),
(1185,84,cs),
(1185,134,o),
(1206,176,o),
(1257,176,cs),
(1476,176,l),
(1328,567,l),
(603,567,l),
(446,176,l),
(632,176,ls),
(683,176,o),
(704,134,o),
(704,84,cs),
(704,40,o),
(677,0,o),
(630,0,cs),
(87,0,ls),
(40,0,o),
(13,40,o),
(13,84,cs)
);
},
{
closed = 1;
nodes = (
(1271,721,l),
(978,1499,l),
(665,721,l)
);
}
);
};
layerId = m001;
shapes = (
{
closed = 1;
nodes = (
(630,0,ls),
(677,0,o),
(704,40,o),
(704,84,cs),
(704,134,o),
(683,176,o),
(632,176,cs),
(446,176,l),
(603,567,l),
(1328,567,l),
(1476,176,l),
(1257,176,ls),
(1206,176,o),
(1185,134,o),
(1185,84,cs),
(1185,40,o),
(1212,0,o),
(1259,0,cs),
(1904,0,ls),
(1951,0,o),
(1977,40,o),
(1977,84,cs),
(1977,134,o),
(1957,176,o),
(1906,176,cs),
(1728,176,l),
(1127,1667,ls),
(1107,1717,o),
(1076,1763,o),
(1009,1763,cs),
(945,1763,o),
(906,1718,o),
(886,1671,cs),
(224,176,l),
(85,176,ls),
(34,176,o),
(13,134,o),
(13,84,cs),
(13,40,o),
(40,0,o),
(87,0,cs)
);
},
{
closed = 1;
nodes = (
(978,1499,l),
(1271,721,l),
(665,721,l)
);
}
);
width = 1990;
}
);
unicode = 65;
},
{
glyphname = Aacute;
kernLeft = A;
kernRight = A;
lastChange = "2024-05-02 12:22:03 +0000";
layers = (
{
background = {
shapes = (
{
closed = 1;
nodes = (
(13,134,o),
(34,176,o),
(85,176,cs),
(224,176,l),
(886,1671,ls),
(906,1718,o),
(945,1763,o),
(1009,1763,cs),
(1076,1763,o),
(1107,1717,o),
(1127,1667,cs),
(1728,176,l),
(1906,176,ls),
(1957,176,o),
(1977,134,o),
(1977,84,cs),
(1977,40,o),
(1951,0,o),
(1904,0,cs),
(1259,0,ls),
(1212,0,o),
(1185,40,o),
(1185,84,cs),
(1185,134,o),
(1206,176,o),
(1257,176,cs),
(1476,176,l),
(1328,567,l),
(603,567,l),
(446,176,l),
(632,176,ls),
(683,176,o),
(704,134,o),
(704,84,cs),
(704,40,o),
(677,0,o),
(630,0,cs),
(87,0,ls),
(40,0,o),
(13,40,o),
(13,84,cs)
);
},
{
closed = 1;
nodes = (
(1271,721,l),
(978,1499,l),
(665,721,l)
);
},
{
closed = 1;
nodes = (
(1506,2364,o),
(1548,2321,o),
(1548,2280,cs),
(1548,2262,o),
(1540,2247,o),
(1522,2235,cs),
(1364,2136,o),
(1187,2021,o),
(1024,1928,cs),
(1017,1924,o),
(1010,1921,o),
(1005,1921,cs),
(979,1921,o),
(956,1948,o),
(956,1973,cs),
(956,1987,o),
(962,1996,o),
(973,2003,cs),
(1123,2103,o),
(1287,2232,o),
(1423,2349,cs),
(1434,2359,o),
(1448,2364,o),
(1464,2364,cs)
);
}
);
};
layerId = m001;
shapes = (
{
ref = A;
},
{
pos = (950,554);
ref = acutecomb;
}
);
width = 1990;
}
);
unicode = 193;
},
{
glyphname = Abreve;
kernLeft = A;
kernRight = A;
lastChange = "2024-05-02 12:22:03 +0000";
layers = (
{
background = {
shapes = (
{
closed = 1;
nodes = (
(13,134,o),
(34,176,o),
(85,176,cs),
(224,176,l),
(886,1671,ls),
(906,1718,o),
(945,1763,o),
(1009,1763,cs),
(1076,1763,o),
(1107,1717,o),
(1127,1667,cs),
(1728,176,l),
(1906,176,ls),
(1957,176,o),
(1977,134,o),
(1977,84,cs),
(1977,40,o),
(1951,0,o),
(1904,0,cs),
(1259,0,ls),
(1212,0,o),
(1185,40,o),
(1185,84,cs),
(1185,134,o),
(1206,176,o),
(1257,176,cs),
(1476,176,l),
(1328,567,l),
(603,567,l),
(446,176,l),
(632,176,ls),
(683,176,o),
(704,134,o),
(704,84,cs),
(704,40,o),
(677,0,o),
(630,0,cs),
(87,0,ls),
(40,0,o),
(13,40,o),
(13,84,cs)
);
},
{
closed = 1;
nodes = (
(1271,721,l),
(978,1499,l),
(665,721,l)
);
},
{
closed = 1;
nodes = (
(838,2141,o),
(919,2081,o),
(1000,2081,cs),
(1081,2081,o),
(1162,2141,o),
(1208,2261,cs),
(1214,2277,o),
(1228,2282,o),
(1241,2282,cs),
(1267,2282,o),
(1296,2257,o),
(1296,2235,cs),
(1296,2024,o),
(1148,1918,o),
(1000,1918,cs),
(852,1918,o),
(704,2024,o),
(704,2235,cs),
(704,2257,o),
(733,2282,o),
(759,2282,cs),
(772,2282,o),
(786,2277,o),
(792,2261,cs)
);
}
);
};
layerId = m001;
shapes = (
{
ref = A;
},
{
pos = (699,554);
ref = brevecomb;
}
);
width = 1990;
}
);
unicode = 258;
},
{
glyphname = Acircumflex;
kernLeft = A;
kernRight = A;
lastChange = "2024-05-02 12:22:03 +0000";
layers = (
{
background = {
shapes = (
{
closed = 1;
nodes = (
(13,134,o),
(34,176,o),
(85,176,cs),
(224,176,l),
(886,1671,ls),
(906,1718,o),
(945,1763,o),
(1009,1763,cs),
(1076,1763,o),
(1107,1717,o),
(1127,1667,cs),
(1728,176,l),
(1906,176,ls),
(1957,176,o),
(1977,134,o),
(1977,84,cs),
(1977,40,o),
(1951,0,o),
(1904,0,cs),
(1259,0,ls),
(1212,0,o),
(1185,40,o),
(1185,84,cs),
(1185,134,o),
(1206,176,o),
(1257,176,cs),
(1476,176,l),
(1328,567,l),
(603,567,l),
(446,176,l),
(632,176,ls),
(683,176,o),
(704,134,o),
(704,84,cs),
(704,40,o),
(677,0,o),
(630,0,cs),
(87,0,ls),
(40,0,o),
(13,40,o),
(13,84,cs)
);
},
{
closed = 1;
nodes = (
(1271,721,l),
(978,1499,l),
(665,721,l)
);
},
{
closed = 1;
nodes = (
(1022,2426,o),
(1041,2420,o),
(1049,2409,cs),
(1319,1995,l),
(1326,1987,o),
(1329,1978,o),
(1329,1970,cs),
(1329,1946,o),
(1302,1927,o),
(1275,1927,cs),
(1263,1927,o),
(1249,1929,o),
(1241,1940,cs),
(1003,2246,l),
(765,1940,ls),
(757,1929,o),
(743,1927,o),
(731,1927,cs),
(704,1927,o),
(677,1946,o),
(677,1970,cs),
(677,1978,o),
(680,1987,o),
(687,1995,c),
(957,2409,ls),
(965,2420,o),
(984,2426,o),
(1003,2426,cs)
);
}
);
};
layerId = m001;
shapes = (
{
ref = A;
},
{
pos = (699,554);
ref = circumflexcomb;
}
);
width = 1990;
}
);
unicode = 194;
},
{
glyphname = Adblgrave;
kernLeft = A;
kernRight = A;
lastChange = "2024-05-02 12:22:03 +0000";
layers = (
{
background = {
shapes = (
{
closed = 1;
nodes = (
(13,134,o),
(34,176,o),
(85,176,cs),
(224,176,l),
(886,1671,ls),
(906,1718,o),
(945,1763,o),
(1009,1763,cs),
(1076,1763,o),
(1107,1717,o),
(1127,1667,cs),
(1728,176,l),
(1906,176,ls),
(1957,176,o),
(1977,134,o),
(1977,84,cs),
(1977,40,o),
(1951,0,o),
(1904,0,cs),
(1259,0,ls),
(1212,0,o),
(1185,40,o),
(1185,84,cs),
(1185,134,o),
(1206,176,o),
(1257,176,cs),
(1476,176,l),
(1328,567,l),
(603,567,l),
(446,176,l),
(632,176,ls),
(683,176,o),
(704,134,o),
(704,84,cs),
(704,40,o),
(677,0,o),
(630,0,cs),
(87,0,ls),
(40,0,o),
(13,40,o),
(13,84,cs)
);
},
{
closed = 1;
nodes = (
(1271,721,l),
(978,1499,l),
(665,721,l)
);
},
{
closed = 1;
nodes = (
(728,2364,o),
(686,2321,o),
(686,2280,cs),
(686,2262,o),
(694,2247,o),
(712,2235,cs),
(870,2136,o),
(1047,2021,o),
(1210,1928,cs),
(1217,1924,o),
(1224,1921,o),
(1229,1921,cs),
(1255,1921,o),
(1278,1948,o),
(1278,1973,cs),
(1278,1987,o),
(1272,1996,o),
(1261,2003,cs),
(1111,2103,o),
(947,2232,o),
(811,2349,cs),
(800,2359,o),
(786,2364,o),
(770,2364,cs)
);
},
{
closed = 1;
nodes = (
(353,2364,o),
(311,2321,o),
(311,2280,cs),
(311,2262,o),
(320,2247,o),
(338,2235,cs),
(496,2136,o),
(672,2021,o),
(835,1928,cs),
(842,1924,o),
(849,1921,o),
(854,1921,cs),
(880,1921,o),
(903,1948,o),
(903,1973,cs),
(903,1987,o),
(897,1996,o),
(886,2003,cs),
(736,2103,o),
(572,2232,o),
(436,2349,cs),
(425,2359,o),
(411,2364,o),
(395,2364,cs)
);
}
);
};
layerId = m001;
shapes = (
{
ref = A;
},
{
pos = (302,494);
ref = dblgravecomb;
}
);
width = 1990;
}
);
unicode = 512;
},
{
glyphname = Adieresis;
kernLeft = A;
kernRight = A;
lastChange = "2024-05-02 12:22:03 +0000";
layers = (
{
background = {
shapes = (
{
closed = 1;
nodes = (
(13,134,o),
(34,176,o),
(85,176,cs),
(224,176,l),
(886,1671,ls),
(906,1718,o),
(945,1763,o),
(1009,1763,cs),
(1076,1763,o),
(1107,1717,o),
(1127,1667,cs),
(1728,176,l),
(1906,176,ls),
(1957,176,o),
(1977,134,o),
(1977,84,cs),
(1977,40,o),
(1951,0,o),
(1904,0,cs),
(1259,0,ls),
(1212,0,o),
(1185,40,o),
(1185,84,cs),
(1185,134,o),
(1206,176,o),
(1257,176,cs),
(1476,176,l),
(1328,567,l),
(603,567,l),
(446,176,l),
(632,176,ls),
(683,176,o),
(704,134,o),
(704,84,cs),
(704,40,o),
(677,0,o),
(630,0,cs),
(87,0,ls),
(40,0,o),
(13,40,o),
(13,84,cs)
);
},
{
closed = 1;
nodes = (
(1271,721,l),
(978,1499,l),
(665,721,l)
);
},
{
closed = 1;
nodes = (
(693,1926,o),
(632,1986,o),
(632,2059,cs),
(632,2132,o),
(693,2192,o),
(766,2192,cs),
(839,2192,o),
(899,2132,o),
(899,2059,cs),
(899,1986,o),
(839,1926,o),
(766,1926,cs)
);
},
{
closed = 1;
nodes = (
(1184,1926,o),
(1124,1986,o),
(1124,2059,cs),
(1124,2132,o),
(1184,2192,o),
(1257,2192,cs),
(1330,2192,o),
(1390,2132,o),
(1390,2059,cs),
(1390,1986,o),
(1330,1926,o),
(1257,1926,cs)
);
}
);
};
layerId = m001;
shapes = (
{
ref = A;
},
{
pos = (561,494);
ref = dieresiscomb;
}
);
width = 1990;
}
);
unicode = 196;
},
{
glyphname = Agrave;
kernLeft = A;
kernRight = A;
lastChange = "2024-07-31 14:33:50 +0000";
layers = (
{
background = {
shapes = (
{
closed = 1;
nodes = (
(13,134,o),
(34,176,o),
(85,176,cs),
(224,176,l),
(886,1671,ls),
(906,1718,o),
(945,1763,o),
(1009,1763,cs),
(1076,1763,o),
(1107,1717,o),
(1127,1667,cs),
(1728,176,l),
(1906,176,ls),
(1957,176,o),
(1977,134,o),
(1977,84,cs),
(1977,40,o),
(1951,0,o),
(1904,0,cs),
(1259,0,ls),
(1212,0,o),
(1185,40,o),
(1185,84,cs),
(1185,134,o),
(1206,176,o),
(1257,176,cs),
(1476,176,l),
(1328,567,l),
(603,567,l),
(446,176,l),
(632,176,ls),
(683,176,o),
(704,134,o),
(704,84,cs),
(704,40,o),
(677,0,o),
(630,0,cs),
(87,0,ls),
(40,0,o),
(13,40,o),
(13,84,cs)
);
},
{
closed = 1;
nodes = (
(1271,721,l),
(978,1499,l),
(665,721,l)
);
},
{
closed = 1;
nodes = (
(1062,1948,o),
(1039,1921,o),
(1013,1921,cs),
(1006,1921,o),
(1000,1924,o),
(995,1928,cs),
(833,2021,o),
(654,2137,o),
(497,2235,cs),
(479,2247,o),
(470,2262,o),
(470,2280,cs),
(470,2321,o),
(512,2364,o),
(554,2364,cs),
(570,2364,o),
(584,2359,o),
(595,2349,cs),
(731,2232,o),
(896,2103,o),
(1046,2003,cs),
(1057,1996,o),
(1062,1987,o),
(1062,1973,cs)
);
}
);
};
layerId = m001;
shapes = (
{
ref = A;
},
{
pos = (520,554);
ref = gravecomb;
}
);
width = 1990;
}
);
unicode = 192;
},
{
glyphname = Ainvertedbreve;
kernLeft = A;
kernRight = A;
lastChange = "2024-05-02 12:22:03 +0000";
layers = (
{
background = {
shapes = (
{
closed = 1;
nodes = (
(13,134,o),
(34,176,o),
(85,176,cs),
(224,176,l),
(886,1671,ls),
(906,1718,o),
(945,1763,o),
(1009,1763,cs),
(1076,1763,o),
(1107,1717,o),
(1127,1667,cs),
(1728,176,l),
(1906,176,ls),
(1957,176,o),
(1977,134,o),
(1977,84,cs),
(1977,40,o),
(1951,0,o),
(1904,0,cs),
(1259,0,ls),
(1212,0,o),
(1185,40,o),
(1185,84,cs),
(1185,134,o),
(1206,176,o),
(1257,176,cs),
(1476,176,l),
(1328,567,l),
(603,567,l),
(446,176,l),
(632,176,ls),
(683,176,o),
(704,134,o),
(704,84,cs),
(704,40,o),
(677,0,o),
(630,0,cs),
(87,0,ls),
(40,0,o),
(13,40,o),
(13,84,cs)
);
},
{
closed = 1;
nodes = (
(1271,721,l),
(978,1499,l),
(665,721,l)
);
},
{
closed = 1;
nodes = (
(737,1876,o),
(710,1893,o),
(710,1917,cs),
(710,2129,o),
(858,2239,o),
(1006,2239,cs),
(1154,2239,o),
(1302,2128,o),
(1302,1917,cs),
(1302,1893,o),
(1275,1876,o),
(1249,1876,cs),
(1231,1876,o),
(1213,1884,o),
(1206,1904,cs),
(1160,2025,o),
(1087,2077,o),
(1006,2077,cs),
(925,2077,o),
(852,2025,o),
(806,1904,cs),
(799,1884,o),
(781,1876,o),
(763,1876,cs)
);
}
);
};
layerId = m001;
shapes = (
{
ref = A;
},
{
pos = (699,554);
ref = breveinvertedcomb;
}
);
width = 1990;
}
);
unicode = 514;
},
{
glyphname = Amacron;
kernLeft = A;
kernRight = A;
lastChange = "2024-05-02 12:22:03 +0000";
layers = (
{
background = {
shapes = (
{
closed = 1;
nodes = (
(13,134,o),
(34,176,o),
(85,176,cs),
(224,176,l),
(886,1671,ls),
(906,1718,o),
(945,1763,o),
(1009,1763,cs),
(1076,1763,o),
(1107,1717,o),
(1127,1667,cs),
(1728,176,l),
(1906,176,ls),
(1957,176,o),
(1977,134,o),
(1977,84,cs),
(1977,40,o),
(1951,0,o),
(1904,0,cs),
(1259,0,ls),
(1212,0,o),
(1185,40,o),
(1185,84,cs),
(1185,134,o),
(1206,176,o),
(1257,176,cs),
(1476,176,l),
(1328,567,l),
(603,567,l),
(446,176,l),
(632,176,ls),
(683,176,o),
(704,134,o),
(704,84,cs),
(704,40,o),
(677,0,o),
(630,0,cs),
(87,0,ls),
(40,0,o),
(13,40,o),
(13,84,cs)
);
},
{
closed = 1;
nodes = (
(1271,721,l),
(978,1499,l),
(665,721,l)
);
},
{
closed = 1;
nodes = (
(743,1976,ls),
(688,1976,o),
(661,2016,o),
(661,2055,cs),
(661,2094,o),
(687,2132,o),
(737,2132,cs),
(1275,2132,ls),
(1323,2132,o),
(1347,2094,o),
(1347,2055,cs),
(1347,2016,o),
(1322,1976,o),
(1273,1976,cs)
);
}
);
};
layerId = m001;
shapes = (
{
ref = A;
},
{
pos = (482,494);
ref = macroncomb;
}
);
width = 1990;
}
);
unicode = 256;
},
{
glyphname = Aogonek;
kernLeft = A;
kernRight = A;
lastChange = "2024-05-02 12:22:03 +0000";
layers = (
{
background = {
shapes = (
{
closed = 1;
nodes = (
(13,134,o),
(34,176,o),
(85,176,cs),
(224,176,l),
(886,1671,ls),
(906,1718,o),
(945,1763,o),
(1009,1763,cs),
(1076,1763,o),
(1107,1717,o),
(1127,1667,cs),
(1728,176,l),
(1906,176,ls),
(1957,176,o),
(1977,134,o),
(1977,84,cs),
(1977,40,o),
(1951,0,o),
(1904,0,cs),
(1259,0,ls),
(1212,0,o),
(1185,40,o),
(1185,84,cs),
(1185,134,o),
(1206,176,o),
(1257,176,cs),
(1476,176,l),
(1328,567,l),
(603,567,l),
(446,176,l),
(632,176,ls),
(683,176,o),
(704,134,o),
(704,84,cs),
(704,40,o),
(677,0,o),
(630,0,cs),
(87,0,ls),
(40,0,o),
(13,40,o),
(13,84,cs)
);
},
{
closed = 1;
nodes = (
(1271,721,l),
(978,1499,l),
(665,721,l)
);
},
{
closed = 1;
nodes = (
(1497,-516,o),
(1427,-473,o),
(1427,-358,cs),
(1427,-286,o),
(1493,-111,o),
(1663,30,c),
(1742,30,ls),
(1751,30,o),
(1631,-162,o),
(1631,-257,cs),
(1631,-368,o),
(1768,-343,o),
(1768,-403,cs),
(1768,-454,o),
(1683,-516,o),
(1589,-516,cs)
);
}
);
};
layerId = m001;
shapes = (
{
ref = A;
},
{
pos = (1478,0);
ref = ogonekcomb;
}
);
width = 1990;
}
);
unicode = 260;
},
{
glyphname = Aring;
kernLeft = A;
kernRight = A;
lastChange = "2024-05-02 12:22:03 +0000";
layers = (
{
background = {
shapes = (
{
closed = 1;
nodes = (
(13,134,o),
(34,176,o),
(85,176,cs),
(224,176,l),
(886,1671,ls),
(906,1718,o),
(945,1763,o),
(1009,1763,cs),
(1076,1763,o),
(1107,1717,o),
(1127,1667,cs),
(1728,176,l),
(1906,176,ls),
(1957,176,o),
(1977,134,o),
(1977,84,cs),
(1977,40,o),
(1951,0,o),
(1904,0,cs),
(1259,0,ls),
(1212,0,o),
(1185,40,o),
(1185,84,cs),
(1185,134,o),
(1206,176,o),
(1257,176,cs),
(1476,176,l),
(1328,567,l),
(603,567,l),
(446,176,l),
(632,176,ls),
(683,176,o),
(704,134,o),
(704,84,cs),
(704,40,o),
(677,0,o),
(630,0,cs),
(87,0,ls),
(40,0,o),
(13,40,o),
(13,84,cs)
);
},
{
closed = 1;
nodes = (
(1271,721,l),
(978,1499,l),
(665,721,l)
);
},
{
closed = 1;
nodes = (
(1176,2470,o),
(1258,2346,o),
(1258,2222,cs),
(1258,2098,o),
(1172,1972,o),
(1006,1972,cs),
(840,1972,o),
(756,2094,o),
(756,2217,cs),
(756,2343,o),
(844,2470,o),
(1011,2470,cs)
);
},
{
closed = 1;
nodes = (
(1108,2067,o),
(1152,2137,o),
(1152,2219,cs),
(1152,2301,o),
(1105,2373,o),
(1010,2373,cs),
(914,2373,o),
(868,2301,o),
(868,2219,cs),
(868,2138,o),
(922,2067,o),
(1014,2067,cs)
);
}
);
};
layerId = m001;
shapes = (
{
ref = A;
},
{
pos = (842,554);
ref = ringcomb;
}
);
width = 1990;
}
);
unicode = 197;
},
{
glyphname = Atilde;
kernLeft = A;
kernRight = A;
lastChange = "2024-05-02 12:22:03 +0000";
layers = (
{
background = {
shapes = (
{
closed = 1;
nodes = (
(13,134,o),
(34,176,o),
(85,176,cs),
(224,176,l),
(886,1671,ls),
(906,1718,o),
(945,1763,o),
(1009,1763,cs),
(1076,1763,o),
(1107,1717,o),
(1127,1667,cs),
(1728,176,l),
(1906,176,ls),
(1957,176,o),
(1977,134,o),
(1977,84,cs),
(1977,40,o),
(1951,0,o),
(1904,0,cs),
(1259,0,ls),
(1212,0,o),
(1185,40,o),
(1185,84,cs),
(1185,134,o),
(1206,176,o),
(1257,176,cs),
(1476,176,l),
(1328,567,l),
(603,567,l),
(446,176,l),
(632,176,ls),
(683,176,o),
(704,134,o),
(704,84,cs),
(704,40,o),
(677,0,o),
(630,0,cs),
(87,0,ls),
(40,0,o),
(13,40,o),
(13,84,cs)
);
},
{
closed = 1;
nodes = (
(1271,721,l),
(978,1499,l),
(665,721,l)
);
},
{
closed = 1;
nodes = (
(629,2189,o),
(713,2299,o),
(819,2299,cs),
(974,2299,o),
(1090,2157,o),
(1146,2157,cs),
(1235,2157,o),
(1238,2299,o),
(1287,2299,cs),
(1326,2299,o),
(1360,2281,o),
(1360,2245,cs),
(1360,2090,o),
(1260,1981,o),
(1134,1981,cs),
(1018,1981,o),
(905,2122,o),
(828,2122,cs),
(743,2122,o),
(743,1981,o),
(702,1981,cs),
(663,1981,o),
(629,1998,o),
(629,2034,cs)
);
}
);
};
layerId = m001;
shapes = (
{
ref = A;
},
{
pos = (488,494);
ref = tildecomb;
}
);
width = 1990;
}
);
unicode = 195;
},
{
glyphname = AE;
kernLeft = A;
kernRight = E;
lastChange = "2024-05-02 12:22:03 +0000";
layers = (
{
background = {
shapes = (
{
closed = 1;
nodes = (
(-77,121,o),
(-45,176,o),
(3,176,cs),
(140,176,l),
(1115,1649,l),
(1160,1713,o),
(1222,1714,o),
(1326,1714,cs),
(2368,1714,ls),
(2484,1714,o),
(2551,1367,o),
(2551,1276,cs),
(2551,1235,o),
(2529,1206,o),
(2485,1206,cs),
(2426,1206,o),
(2384,1234,o),
(2371,1282,cs),
(2303,1538,l),
(1394,1538,l),
(1498,967,l),
(1818,967,l),
(1836,1153,l),
(1841,1192,o),
(1864,1221,o),
(1904,1221,cs),
(1952,1221,o),
(1985,1186,o),
(1990,1141,cs),
(2016,899,l),
(2076,649,l),
(2076,635,ls),
(2076,591,o),
(2056,569,o),
(2016,569,cs),
(1972,569,o),
(1944,602,o),
(1928,637,cs),
(1844,823,l),
(1525,823,l),
(1643,176,l),
(2452,176,l),
(2516,506,l),
(2527,550,o),
(2554,582,o),
(2602,582,cs),
(2649,582,o),
(2683,551,o),
(2690,508,c),
(2690,488,ls),
(2690,482,o),
(2691,476,o),
(2694,469,c),
(2694,78,l),
(2690,27,o),
(2672,0,o),
(2627,0,cs),
(1156,0,ls),
(1111,0,o),
(1091,35,o),
(1091,78,cs),
(1091,127,o),
(1120,176,o),
(1172,176,cs),
(1398,176,l),
(1334,567,l),
(605,567,l),
(361,176,l),
(548,176,ls),
(597,176,o),
(630,142,o),
(630,96,cs),
(630,41,o),
(587,0,o),
(527,0,cs),
(-13,0,ls),
(-55,0,o),
(-77,34,o),
(-77,74,cs)
);
},
{
closed = 1;
nodes = (
(1310,721,l),
(1185,1499,l),
(699,721,l)
);
}
);
};
layerId = m001;
shapes = (
{
closed = 1;
nodes = (
(527,0,ls),
(587,0,o),
(630,41,o),
(630,96,cs),
(630,142,o),
(597,176,o),
(548,176,cs),
(361,176,l),
(605,567,l),
(1334,567,l),
(1398,176,l),
(1172,176,ls),
(1120,176,o),
(1091,127,o),
(1091,78,cs),
(1091,35,o),
(1111,0,o),
(1156,0,cs),
(2627,0,ls),
(2672,0,o),
(2690,27,o),
(2694,78,c),
(2694,469,l),
(2691,476,o),
(2690,482,o),
(2690,488,cs),
(2690,508,l),
(2683,551,o),
(2649,582,o),
(2602,582,cs),
(2554,582,o),
(2527,550,o),
(2516,506,c),
(2452,176,l),
(1643,176,l),
(1525,823,l),
(1844,823,l),
(1928,637,ls),
(1944,602,o),
(1972,569,o),
(2016,569,cs),
(2056,569,o),
(2076,591,o),
(2076,635,cs),
(2076,649,l),
(2016,899,l),
(1990,1141,ls),
(1985,1186,o),
(1952,1221,o),
(1904,1221,cs),
(1864,1221,o),
(1841,1192,o),
(1836,1153,c),
(1818,967,l),
(1498,967,l),
(1394,1538,l),
(2303,1538,l),
(2371,1282,ls),
(2384,1234,o),
(2426,1206,o),
(2485,1206,cs),
(2529,1206,o),
(2551,1235,o),
(2551,1276,cs),
(2551,1367,o),
(2484,1714,o),
(2368,1714,cs),
(1326,1714,ls),
(1222,1714,o),
(1160,1713,o),
(1115,1649,c),
(140,176,l),
(3,176,ls),
(-45,176,o),
(-77,121,o),
(-77,74,cs),
(-77,34,o),
(-55,0,o),
(-13,0,cs)
);
},
{
closed = 1;
nodes = (
(1185,1499,l),
(1310,721,l),
(699,721,l)
);
}
);
width = 2781;
}
);
unicode = 198;
},
{
glyphname = B;
kernLeft = H;
kernRight = B;
lastChange = "2024-05-02 12:22:03 +0000";
layers = (
{
anchors = (
{
name = bottom;
pos = (922,0);
},
{
name = center;
pos = (461,429);
},
{
name = top;
pos = (922,1714);
}
);
background = {
shapes = (
{
closed = 1;
nodes = (
(1764,145,o),
(1396,0,o),
(1030,0,cs),
(123,0,ls),
(76,0,o),
(49,40,o),
(49,84,cs),
(49,134,o),
(70,176,o),
(121,176,cs),
(385,176,l),
(385,1538,l),
(172,1538,ls),
(125,1538,o),
(99,1578,o),
(99,1622,cs),
(99,1672,o),
(119,1714,o),
(170,1714,cs),
(987,1714,ls),
(1317,1714,o),
(1595,1615,o),
(1595,1279,cs),
(1595,1111,o),
(1485,1002,o),
(1354,967,c),
(1577,936,o),
(1764,803,o),
(1764,510,cs)
);
},
{
closed = 1;
nodes = (
(1514,835,o),
(1300,866,o),
(1069,866,cs),
(619,866,l),
(619,176,l),
(1033,176,ls),
(1314,176,o),
(1514,262,o),
(1514,532,cs)
);
},
{
closed = 1;
nodes = (
(1394,1472,o),
(1238,1538,o),
(1006,1538,cs),
(619,1538,l),
(619,995,l),
(1069,995,ls),
(1231,995,o),
(1394,1074,o),
(1394,1267,cs)
);
}
);
};
layerId = m001;
shapes = (
{
closed = 1;
nodes = (
(1030,0,ls),
(1396,0,o),
(1764,145,o),
(1764,510,cs),
(1764,803,o),
(1577,936,o),
(1354,967,c),
(1485,1002,o),
(1595,1111,o),
(1595,1279,cs),
(1595,1615,o),
(1317,1714,o),
(987,1714,cs),
(170,1714,ls),
(119,1714,o),
(99,1672,o),
(99,1622,cs),
(99,1578,o),
(125,1538,o),
(172,1538,cs),
(385,1538,l),
(385,176,l),
(121,176,ls),
(70,176,o),
(49,134,o),
(49,84,cs),
(49,40,o),
(76,0,o),
(123,0,cs)
);
},
{
closed = 1;
nodes = (
(619,866,l),
(1069,866,ls),
(1300,866,o),
(1514,835,o),
(1514,532,cs),
(1514,262,o),
(1314,176,o),
(1033,176,cs),
(619,176,l)
);
},
{
closed = 1;
nodes = (
(619,1538,l),
(1006,1538,ls),
(1238,1538,o),
(1394,1472,o),
(1394,1267,cs),
(1394,1074,o),
(1231,995,o),
(1069,995,cs),
(619,995,l)
);
}
);
width = 1844;
}
);
unicode = 66;
},
{
glyphname = Bdotaccent;
kernLeft = H;
kernRight = B;
lastChange = "2024-05-02 12:22:03 +0000";
layers = (
{
background = {
shapes = (
{
closed = 1;
nodes = (
(1764,145,o),
(1396,0,o),
(1030,0,cs),
(123,0,ls),
(76,0,o),
(49,40,o),
(49,84,cs),
(49,134,o),
(70,176,o),
(121,176,cs),
(385,176,l),
(385,1538,l),
(172,1538,ls),
(125,1538,o),
(99,1578,o),
(99,1622,cs),
(99,1672,o),
(119,1714,o),
(170,1714,cs),
(987,1714,ls),
(1317,1714,o),
(1595,1615,o),
(1595,1279,cs),
(1595,1111,o),
(1485,1002,o),
(1354,967,c),
(1577,936,o),
(1764,803,o),
(1764,510,cs)
);
},
{
closed = 1;
nodes = (
(1514,835,o),
(1300,866,o),
(1069,866,cs),
(619,866,l),
(619,176,l),
(1033,176,ls),
(1314,176,o),
(1514,262,o),
(1514,532,cs)
);
},
{
closed = 1;
nodes = (
(1394,1472,o),
(1238,1538,o),
(1006,1538,cs),
(619,1538,l),
(619,995,l),
(1069,995,ls),
(1231,995,o),
(1394,1074,o),
(1394,1267,cs)
);
},
{
closed = 1;
nodes = (
(1056,1981,o),
(996,1902,o),
(907,1902,cs),
(810,1902,o),
(757,1981,o),
(757,2058,cs),
(757,2131,o),
(805,2203,o),
(909,2203,cs),
(1001,2203,o),
(1056,2132,o),
(1056,2058,cs)
);
}
);
};
layerId = m001;
shapes = (
{
ref = B;
},
{
pos = (771,554);
ref = dotaccentcomb;
}
);
width = 1844;
}
);
unicode = 7682;
},
{
glyphname = C;
kernLeft = O;
kernRight = C;
lastChange = "2024-05-02 12:22:03 +0000";
layers = (
{
anchors = (
{
name = bottom;
pos = (909,0);
},
{
name = top;
pos = (909,1714);
}
);
background = {
shapes = (
{
closed = 1;
nodes = (
(1710,249,o),
(1422,-25,o),
(973,-25,cs),
(468,-25,o),
(93,330,o),
(93,889,cs),
(93,1399,o),
(475,1739,o),
(992,1739,cs),
(1210,1739,o),
(1359,1661,o),
(1479,1538,c),
(1479,1642,ls),
(1479,1693,o),
(1521,1714,o),
(1571,1714,cs),
(1615,1714,o),
(1655,1687,o),
(1655,1640,cs),
(1655,1266,ls),
(1655,1219,o),
(1615,1192,o),
(1571,1192,cs),
(1526,1192,o),
(1511,1236,o),
(1487,1270,c),
(1389,1431,o),
(1243,1550,o),
(992,1550,cs),
(596,1550,o),
(356,1268,o),
(356,878,cs),
(356,439,o),
(585,171,o),
(992,171,cs),
(1275,171,o),
(1452,336,o),
(1502,590,cs),
(1512,638,o),
(1558,661,o),
(1604,661,cs),
(1656,661,o),
(1710,630,o),
(1710,571,cs)
);
}
);
};
layerId = m001;
shapes = (
{
closed = 1;
nodes = (
(1422,-25,o),
(1710,249,o),
(1710,571,cs),
(1710,630,o),
(1656,661,o),
(1604,661,cs),
(1558,661,o),
(1512,638,o),
(1502,590,cs),
(1452,336,o),
(1275,171,o),
(992,171,cs),
(585,171,o),
(356,439,o),
(356,878,cs),
(356,1268,o),
(596,1550,o),
(992,1550,cs),
(1243,1550,o),
(1389,1431,o),
(1487,1270,c),
(1511,1236,o),
(1526,1192,o),
(1571,1192,cs),
(1615,1192,o),
(1655,1219,o),
(1655,1266,cs),
(1655,1640,ls),
(1655,1687,o),
(1615,1714,o),
(1571,1714,cs),
(1521,1714,o),
(1479,1693,o),
(1479,1642,cs),
(1479,1538,l),
(1359,1661,o),
(1210,1739,o),
(992,1739,cs),
(475,1739,o),
(93,1399,o),
(93,889,cs),
(93,330,o),
(468,-25,o),
(973,-25,cs)
);
}
);
width = 1818;
}
);
unicode = 67;
},
{
glyphname = Cacute;
kernLeft = O;
kernRight = C;
lastChange = "2024-05-02 12:22:03 +0000";
layers = (
{
background = {
shapes = (
{
closed = 1;
nodes = (
(1710,249,o),
(1422,-25,o),
(973,-25,cs),
(468,-25,o),
(93,330,o),
(93,889,cs),
(93,1399,o),
(475,1739,o),
(992,1739,cs),
(1210,1739,o),
(1359,1661,o),
(1479,1538,c),
(1479,1642,ls),
(1479,1693,o),
(1521,1714,o),
(1571,1714,cs),
(1615,1714,o),
(1655,1687,o),
(1655,1640,cs),
(1655,1266,ls),
(1655,1219,o),
(1615,1192,o),
(1571,1192,cs),
(1526,1192,o),
(1511,1236,o),
(1487,1270,c),
(1389,1431,o),
(1243,1550,o),
(992,1550,cs),
(596,1550,o),
(356,1268,o),
(356,878,cs),
(356,439,o),
(585,171,o),
(992,171,cs),
(1275,171,o),
(1452,336,o),
(1502,590,cs),
(1512,638,o),
(1558,661,o),
(1604,661,cs),
(1656,661,o),
(1710,630,o),
(1710,571,cs)
);
},
{
closed = 1;
nodes = (
(1476,2364,o),
(1518,2321,o),
(1518,2280,cs),
(1518,2262,o),
(1510,2247,o),
(1492,2235,cs),
(1334,2136,o),
(1157,2021,o),
(994,1928,cs),
(987,1924,o),
(980,1921,o),
(975,1921,cs),
(949,1921,o),
(926,1948,o),
(926,1973,cs),
(926,1987,o),
(932,1996,o),
(943,2003,cs),
(1093,2103,o),
(1257,2232,o),
(1393,2349,cs),
(1404,2359,o),
(1418,2364,o),
(1434,2364,cs)
);
}
);
};
layerId = m001;
shapes = (
{
ref = C;
},
{
pos = (864,554);
ref = acutecomb;
}
);
width = 1818;
}
);
unicode = 262;
},
{
glyphname = Ccaron;
kernLeft = O;
kernRight = C;
lastChange = "2024-05-02 12:22:03 +0000";
layers = (
{
background = {
shapes = (
{
closed = 1;
nodes = (
(1710,249,o),
(1422,-25,o),
(973,-25,cs),
(468,-25,o),
(93,330,o),
(93,889,cs),
(93,1399,o),
(475,1739,o),
(992,1739,cs),
(1210,1739,o),
(1359,1661,o),
(1479,1538,c),
(1479,1642,ls),
(1479,1693,o),
(1521,1714,o),
(1571,1714,cs),
(1615,1714,o),
(1655,1687,o),
(1655,1640,cs),
(1655,1266,ls),
(1655,1219,o),
(1615,1192,o),
(1571,1192,cs),
(1526,1192,o),
(1511,1236,o),
(1487,1270,c),
(1389,1431,o),
(1243,1550,o),
(992,1550,cs),
(596,1550,o),
(356,1268,o),
(356,878,cs),
(356,439,o),
(585,171,o),
(992,171,cs),
(1275,171,o),
(1452,336,o),
(1502,590,cs),
(1512,638,o),
(1558,661,o),
(1604,661,cs),
(1656,661,o),
(1710,630,o),
(1710,571,cs)
);
},
{
closed = 1;
nodes = (
(960,1927,o),
(941,1933,o),
(933,1944,cs),
(663,2358,l),
(656,2366,o),
(653,2375,o),
(653,2383,cs),
(653,2407,o),
(680,2426,o),
(707,2426,cs),
(719,2426,o),
(733,2424,o),
(741,2413,cs),
(979,2107,l),
(1217,2413,ls),
(1225,2424,o),
(1239,2426,o),
(1251,2426,cs),
(1278,2426,o),
(1305,2407,o),
(1305,2383,cs),
(1305,2375,o),
(1302,2366,o),
(1295,2358,c),
(1025,1944,ls),
(1017,1933,o),
(998,1927,o),
(979,1927,cs)
);
}
);
};
layerId = m001;
shapes = (
{
ref = C;
},
{
pos = (613,554);
ref = caroncomb;
}
);
width = 1818;
}
);
unicode = 268;
},
{
glyphname = Ccedilla;
kernLeft = O;
kernRight = C;
lastChange = "2024-05-02 12:22:03 +0000";
layers = (
{
background = {
shapes = (
{
closed = 1;
nodes = (
(1710,249,o),
(1422,-25,o),
(973,-25,cs),
(468,-25,o),
(93,330,o),
(93,889,cs),
(93,1399,o),
(475,1739,o),
(992,1739,cs),
(1210,1739,o),
(1359,1661,o),
(1479,1538,c),
(1479,1642,ls),
(1479,1693,o),
(1521,1714,o),
(1571,1714,cs),
(1615,1714,o),
(1655,1687,o),
(1655,1640,cs),
(1655,1266,ls),
(1655,1219,o),
(1615,1192,o),
(1571,1192,cs),
(1526,1192,o),
(1511,1236,o),
(1487,1270,c),
(1389,1431,o),
(1243,1550,o),
(992,1550,cs),
(596,1550,o),
(356,1268,o),
(356,878,cs),
(356,439,o),
(585,171,o),
(992,171,cs),
(1275,171,o),
(1452,336,o),
(1502,590,cs),
(1512,638,o),
(1558,661,o),
(1604,661,cs),
(1656,661,o),
(1710,630,o),
(1710,571,cs)
);
},
{
closed = 1;
nodes = (
(998,-501,l),
(990,-619,o),
(921,-675,o),
(856,-675,cs),
(798,-675,o),
(744,-629,o),
(744,-538,cs),
(744,-472,o),
(900,-49,o),
(930,0,c),
(1058,0,l)
);
}
);
};
layerId = m001;
shapes = (
{
ref = C;
},
{
pos = (662,0);
ref = cedillacomb;
}
);
width = 1818;
}
);
unicode = 199;
},
{
glyphname = Ccircumflex;
kernLeft = O;
kernRight = C;
lastChange = "2024-05-02 12:22:03 +0000";
layers = (
{
background = {
shapes = (
{
closed = 1;
nodes = (
(1710,249,o),
(1422,-25,o),
(973,-25,cs),
(468,-25,o),
(93,330,o),
(93,889,cs),
(93,1399,o),
(475,1739,o),
(992,1739,cs),
(1210,1739,o),
(1359,1661,o),
(1479,1538,c),
(1479,1642,ls),
(1479,1693,o),
(1521,1714,o),
(1571,1714,cs),
(1615,1714,o),
(1655,1687,o),
(1655,1640,cs),
(1655,1266,ls),
(1655,1219,o),
(1615,1192,o),
(1571,1192,cs),
(1526,1192,o),
(1511,1236,o),
(1487,1270,c),
(1389,1431,o),
(1243,1550,o),
(992,1550,cs),
(596,1550,o),
(356,1268,o),
(356,878,cs),
(356,439,o),
(585,171,o),
(992,171,cs),
(1275,171,o),
(1452,336,o),
(1502,590,cs),
(1512,638,o),
(1558,661,o),
(1604,661,cs),
(1656,661,o),
(1710,630,o),
(1710,571,cs)
);
},
{
closed = 1;
nodes = (
(992,2426,o),
(1011,2420,o),
(1019,2409,cs),
(1289,1995,l),
(1296,1987,o),
(1299,1978,o),
(1299,1970,cs),
(1299,1946,o),
(1272,1927,o),
(1245,1927,cs),
(1233,1927,o),
(1219,1929,o),
(1211,1940,cs),
(973,2246,l),
(735,1940,ls),
(727,1929,o),
(713,1927,o),
(701,1927,cs),
(674,1927,o),
(647,1946,o),
(647,1970,cs),
(647,1978,o),
(650,1987,o),
(657,1995,c),
(927,2409,ls),
(935,2420,o),
(954,2426,o),
(973,2426,cs)
);
}
);
};
layerId = m001;
shapes = (
{
ref = C;
},
{
pos = (613,554);
ref = circumflexcomb;
}
);
width = 1818;
}
);
unicode = 264;
},
{
glyphname = Cdotaccent;
kernLeft = O;
kernRight = C;
lastChange = "2024-05-02 12:22:03 +0000";
layers = (
{
background = {
shapes = (
{
closed = 1;
nodes = (
(1710,249,o),
(1422,-25,o),
(973,-25,cs),
(468,-25,o),
(93,330,o),
(93,889,cs),
(93,1399,o),
(475,1739,o),
(992,1739,cs),
(1210,1739,o),
(1359,1661,o),
(1479,1538,c),
(1479,1642,ls),
(1479,1693,o),
(1521,1714,o),
(1571,1714,cs),
(1615,1714,o),
(1655,1687,o),
(1655,1640,cs),
(1655,1266,ls),
(1655,1219,o),
(1615,1192,o),
(1571,1192,cs),
(1526,1192,o),
(1511,1236,o),
(1487,1270,c),
(1389,1431,o),
(1243,1550,o),
(992,1550,cs),
(596,1550,o),
(356,1268,o),
(356,878,cs),
(356,439,o),
(585,171,o),
(992,171,cs),
(1275,171,o),
(1452,336,o),
(1502,590,cs),
(1512,638,o),
(1558,661,o),
(1604,661,cs),
(1656,661,o),
(1710,630,o),
(1710,571,cs)
);
},
{
closed = 1;
nodes = (
(1051,1981,o),
(991,1902,o),
(902,1902,cs),
(805,1902,o),
(752,1981,o),
(752,2058,cs),
(752,2131,o),
(800,2203,o),
(904,2203,cs),
(996,2203,o),
(1051,2132,o),
(1051,2058,cs)
);
}
);
};
layerId = m001;
shapes = (
{
ref = C;
},
{
pos = (758,554);
ref = dotaccentcomb;
}
);
width = 1818;
}
);
unicode = 266;
},
{
glyphname = D;
kernLeft = H;
kernRight = O;
lastChange = "2024-05-02 12:22:03 +0000";
layers = (
{
anchors = (
{
name = bottom;
pos = (977,0);
},
{
name = center;
pos = (488,857);
},
{
name = top;
pos = (977,1714);
}
);
background = {
shapes = (
{
closed = 1;
nodes = (
(1618,1297,o),
(1343,1538,o),
(909,1538,cs),
(623,1538,l),
(623,176,l),
(670,173,o),
(715,172,o),
(760,172,cs),
(1268,172,o),
(1618,346,o),
(1618,866,cs)
);
},
{
closed = 1;
nodes = (
(1860,301,o),
(1448,0,o),
(881,0,cs),
(123,0,ls),
(76,0,o),
(49,40,o),
(49,84,cs),
(49,134,o),
(70,176,o),
(121,176,cs),
(389,176,l),
(389,1538,l),
(186,1538,ls),
(135,1538,o),
(115,1580,o),
(115,1630,cs),
(115,1674,o),
(142,1714,o),
(189,1714,cs),
(881,1714,ls),
(1460,1714,o),
(1860,1438,o),
(1860,866,cs)
);
}
);
};
layerId = m001;
shapes = (
{
closed = 1;
nodes = (
(881,0,ls),
(1448,0,o),
(1860,301,o),
(1860,866,cs),
(1860,1438,o),
(1460,1714,o),
(881,1714,cs),
(189,1714,ls),
(142,1714,o),
(115,1674,o),
(115,1630,cs),
(115,1580,o),
(135,1538,o),
(186,1538,cs),
(389,1538,l),
(389,176,l),
(121,176,ls),
(70,176,o),
(49,134,o),
(49,84,cs),
(49,40,o),
(76,0,o),
(123,0,cs)
);
},
{
closed = 1;
nodes = (
(715,172,o),
(670,173,o),
(623,176,c),
(623,1538,l),
(909,1538,ls),
(1343,1538,o),
(1618,1297,o),
(1618,866,cs),
(1618,346,o),
(1268,172,o),
(760,172,cs)
);
}
);
width = 1953;
}
);
unicode = 68;
},
{
glyphname = DZ;
kernLeft = H;
kernRight = Z;
lastChange = "2024-05-02 12:22:03 +0000";
layers = (
{
background = {
shapes = (
{
closed = 1;
nodes = (
(1618,1297,o),
(1343,1538,o),
(909,1538,cs),
(623,1538,l),
(623,176,l),
(670,173,o),
(715,172,o),
(760,172,cs),
(1268,172,o),
(1618,346,o),
(1618,866,cs)
);
},
{
closed = 1;
nodes = (
(1860,301,o),
(1448,0,o),
(881,0,cs),
(123,0,ls),
(76,0,o),
(49,40,o),
(49,84,cs),
(49,134,o),
(70,176,o),
(121,176,cs),
(389,176,l),
(389,1538,l),
(186,1538,ls),
(135,1538,o),
(115,1580,o),
(115,1630,cs),
(115,1674,o),
(142,1714,o),
(189,1714,cs),
(881,1714,ls),
(1460,1714,o),
(1860,1438,o),
(1860,866,cs)
);
},
{
closed = 1;
nodes = (
(2115,1634,l),
(2116,1675,o),
(2140,1714,o),
(2218,1714,cs),
(3348,1714,ls),
(3395,1714,o),
(3422,1674,o),
(3422,1630,cs),
(3422,1603,o),
(3418,1579,o),
(3406,1565,c),
(2343,176,l),
(3279,176,l),
(3355,547,l),
(3368,591,o),
(3407,623,o),
(3457,623,cs),
(3499,623,o),
(3531,594,o),
(3531,549,cs),
(3531,535,o),
(3529,522,o),
(3525,510,c),
(3482,78,l),
(3468,30,o),
(3447,0,o),
(3400,0,cs),
(2120,0,ls),
(2077,0,o),
(2044,53,o),
(2044,102,cs),
(2044,137,o),
(2059,175,o),
(2089,213,cs),
(3107,1538,l),
(2310,1538,l),
(2271,1241,l),
(2257,1202,o),
(2231,1165,o),
(2189,1165,cs),
(2148,1165,o),
(2116,1196,o),
(2116,1239,cs)
);
}
);
};
layerId = m001;
shapes = (
{
ref = D;
},
{
pos = (1953,0);
ref = Z;
}
);
width = 3611;
}
);
unicode = 497;
},
{
glyphname = DZcaron;
kernLeft = H;
kernRight = Z;
lastChange = "2024-05-02 12:22:03 +0000";
layers = (
{
background = {
shapes = (
{
closed = 1;
nodes = (
(1618,1297,o),
(1343,1538,o),
(909,1538,cs),
(623,1538,l),
(623,176,l),
(670,173,o),
(715,172,o),
(760,172,cs),
(1268,172,o),
(1618,346,o),
(1618,866,cs)
);
},
{
closed = 1;
nodes = (
(1860,301,o),
(1448,0,o),
(881,0,cs),
(123,0,ls),
(76,0,o),
(49,40,o),
(49,84,cs),
(49,134,o),
(70,176,o),
(121,176,cs),
(389,176,l),
(389,1538,l),
(186,1538,ls),
(135,1538,o),
(115,1580,o),
(115,1630,cs),
(115,1674,o),
(142,1714,o),
(189,1714,cs),
(881,1714,ls),
(1460,1714,o),
(1860,1438,o),
(1860,866,cs)
);
},
{
closed = 1;
nodes = (
(2115,1634,l),
(2116,1675,o),
(2140,1714,o),
(2218,1714,cs),
(3348,1714,ls),
(3395,1714,o),
(3422,1674,o),
(3422,1630,cs),
(3422,1603,o),
(3418,1579,o),
(3406,1565,c),
(2343,176,l),
(3279,176,l),
(3355,547,l),
(3368,591,o),
(3407,623,o),
(3457,623,cs),
(3499,623,o),
(3531,594,o),
(3531,549,cs),
(3531,535,o),
(3529,522,o),
(3525,510,c),
(3482,78,l),
(3468,30,o),
(3447,0,o),
(3400,0,cs),
(2120,0,ls),
(2077,0,o),
(2044,53,o),
(2044,102,cs),
(2044,137,o),
(2059,175,o),
(2089,213,cs),
(3107,1538,l),
(2310,1538,l),
(2271,1241,l),
(2257,1202,o),
(2231,1165,o),
(2189,1165,cs),
(2148,1165,o),
(2116,1196,o),
(2116,1239,cs)
);
},
{
closed = 1;
nodes = (
(2853,1927,o),
(2834,1933,o),
(2826,1944,cs),
(2556,2358,l),
(2549,2366,o),
(2546,2375,o),
(2546,2383,cs),
(2546,2407,o),
(2573,2426,o),
(2600,2426,cs),
(2612,2426,o),
(2626,2424,o),
(2634,2413,cs),
(2872,2107,l),
(3110,2413,ls),
(3118,2424,o),
(3132,2426,o),
(3144,2426,cs),
(3171,2426,o),
(3198,2407,o),
(3198,2383,cs),
(3198,2375,o),
(3195,2366,o),
(3188,2358,c),
(2918,1944,ls),
(2910,1933,o),
(2891,1927,o),
(2872,1927,cs)
);
}
);
};
layerId = m001;
shapes = (
{
ref = DZ;
},
{
pos = (2486,554);
ref = caroncomb;
}
);
width = 3611;
}
);
unicode = 452;
},
{
glyphname = Dcaron;
kernLeft = H;
kernRight = O;
lastChange = "2024-05-02 12:22:03 +0000";
layers = (
{
background = {
shapes = (
{
closed = 1;
nodes = (
(1618,1297,o),
(1343,1538,o),
(909,1538,cs),
(623,1538,l),
(623,176,l),
(670,173,o),
(715,172,o),
(760,172,cs),
(1268,172,o),
(1618,346,o),
(1618,866,cs)
);
},
{
closed = 1;
nodes = (
(1860,301,o),
(1448,0,o),
(881,0,cs),
(123,0,ls),
(76,0,o),
(49,40,o),
(49,84,cs),
(49,134,o),
(70,176,o),
(121,176,cs),
(389,176,l),
(389,1538,l),
(186,1538,ls),
(135,1538,o),
(115,1580,o),
(115,1630,cs),
(115,1674,o),
(142,1714,o),
(189,1714,cs),
(881,1714,ls),
(1460,1714,o),
(1860,1438,o),
(1860,866,cs)
);
},
{
closed = 1;
nodes = (
(1000,1927,o),
(981,1933,o),
(973,1944,cs),
(703,2358,l),
(696,2366,o),
(693,2375,o),
(693,2383,cs),
(693,2407,o),
(720,2426,o),
(747,2426,cs),
(759,2426,o),
(773,2424,o),
(781,2413,cs),
(1019,2107,l),
(1257,2413,ls),
(1265,2424,o),
(1279,2426,o),
(1291,2426,cs),
(1318,2426,o),
(1345,2407,o),
(1345,2383,cs),
(1345,2375,o),
(1342,2366,o),
(1335,2358,c),
(1065,1944,ls),
(1057,1933,o),
(1038,1927,o),
(1019,1927,cs)
);
}
);
};
layerId = m001;
shapes = (
{
ref = D;
},
{
pos = (681,554);
ref = caroncomb;
}
);
width = 1953;
}
);
unicode = 270;
},
{
glyphname = Dcroat;
kernLeft = H;
kernRight = O;
lastChange = "2024-05-02 12:22:03 +0000";
layers = (
{
background = {
shapes = (
{
closed = 1;
nodes = (
(1872,301,o),
(1460,0,o),
(893,0,cs),
(135,0,ls),
(88,0,o),
(61,40,o),
(61,84,cs),
(61,134,o),
(82,176,o),
(133,176,cs),
(401,176,l),
(401,809,l),
(252,809,ls),
(197,809,o),
(170,849,o),
(170,888,cs),
(170,927,o),
(196,965,o),
(246,965,cs),
(401,965,l),
(401,1538,l),
(198,1538,ls),
(147,1538,o),
(127,1580,o),
(127,1630,cs),
(127,1674,o),
(154,1714,o),
(201,1714,cs),
(893,1714,ls),
(1472,1714,o),
(1872,1438,o),
(1872,866,cs)
);
},
{
closed = 1;
nodes = (
(1630,1297,o),
(1355,1538,o),
(921,1538,cs),
(635,1538,l),
(635,965,l),
(888,965,ls),
(936,965,o),
(960,927,o),
(960,888,cs),
(960,849,o),
(935,809,o),
(886,809,cs),
(635,809,l),
(635,176,l),
(682,173,o),
(727,172,o),
(772,172,cs),
(1280,172,o),
(1630,346,o),
(1630,866,cs)
);
}
);
};
layerId = m001;
shapes = (
{
ref = Eth;
}
);
width = 1878;
}
);
unicode = 272;
},
{
glyphname = Ddotaccent;
kernLeft = H;
kernRight = O;
lastChange = "2024-05-02 12:22:03 +0000";
layers = (
{
background = {
shapes = (
{
closed = 1;
nodes = (
(1618,1297,o),
(1343,1538,o),
(909,1538,cs),
(623,1538,l),
(623,176,l),
(670,173,o),
(715,172,o),
(760,172,cs),
(1268,172,o),
(1618,346,o),
(1618,866,cs)
);
},
{
closed = 1;
nodes = (
(1860,301,o),
(1448,0,o),
(881,0,cs),
(123,0,ls),
(76,0,o),
(49,40,o),
(49,84,cs),
(49,134,o),
(70,176,o),
(121,176,cs),
(389,176,l),
(389,1538,l),
(186,1538,ls),
(135,1538,o),
(115,1580,o),
(115,1630,cs),
(115,1674,o),
(142,1714,o),
(189,1714,cs),
(881,1714,ls),
(1460,1714,o),
(1860,1438,o),
(1860,866,cs)
);
},
{
closed = 1;
nodes = (
(1104,1981,o),
(1044,1902,o),
(955,1902,cs),
(858,1902,o),
(805,1981,o),
(805,2058,cs),
(805,2131,o),
(853,2203,o),
(957,2203,cs),
(1049,2203,o),
(1104,2132,o),
(1104,2058,cs)
);
}
);
};
layerId = m001;
shapes = (
{
ref = D;
},
{
pos = (826,554);
ref = dotaccentcomb;
}
);
width = 1953;
}
);
unicode = 7690;
},
{
glyphname = Dz;
kernLeft = H;
kernRight = z;
lastChange = "2024-05-02 12:22:03 +0000";
layers = (
{
background = {
shapes = (
{
closed = 1;
nodes = (
(1618,1297,o),
(1343,1538,o),
(909,1538,cs),
(623,1538,l),
(623,176,l),
(670,173,o),
(715,172,o),
(760,172,cs),
(1268,172,o),
(1618,346,o),
(1618,866,cs)
);
},
{
closed = 1;
nodes = (
(1860,301,o),
(1448,0,o),
(881,0,cs),
(123,0,ls),
(76,0,o),
(49,40,o),
(49,84,cs),
(49,134,o),
(70,176,o),
(121,176,cs),
(389,176,l),
(389,1538,l),
(186,1538,ls),
(135,1538,o),
(115,1580,o),
(115,1630,cs),
(115,1674,o),
(142,1714,o),
(189,1714,cs),
(881,1714,ls),
(1460,1714,o),
(1860,1438,o),
(1860,866,cs)
);
},
{
closed = 1;
nodes = (
(3118,1130,o),
(3137,1112,o),
(3137,1086,cs),
(3137,1041,o),
(3078,976,o),
(3057,954,cs),
(2314,176,l),
(3002,176,l),
(3032,467,l),
(3034,508,o),
(3069,530,o),
(3108,530,cs),
(3163,530,o),
(3197,507,o),
(3197,461,cs),
(3197,458,o),
(3196,455,o),
(3196,451,cs),
(3155,68,ls),
(3151,32,o),
(3115,0,o),
(3080,0,cs),
(2117,0,ls),
(2061,0,o),
(2035,35,o),
(2035,86,cs),
(2035,118,o),
(2044,143,o),
(2060,160,cs),
(2799,954,l),
(2252,954,l),
(2240,762,l),
(2235,717,o),
(2204,692,o),
(2158,692,cs),
(2104,692,o),
(2078,717,o),
(2078,769,cs),
(2078,780,l),
(2097,1063,ls),
(2099,1098,o),
(2129,1130,o),
(2164,1130,cs),
(3059,1130,ls)
);
}
);
};
layerId = m001;
shapes = (
{
ref = D;
},
{
pos = (1953,0);
ref = z;
}
);
width = 3254;
}
);
unicode = 498;
},
{
glyphname = Dzcaron;
kernLeft = H;
kernRight = z;
lastChange = "2024-05-02 12:22:03 +0000";
layers = (
{
background = {
shapes = (
{
closed = 1;
nodes = (
(1618,1297,o),
(1343,1538,o),
(909,1538,cs),
(623,1538,l),
(623,176,l),
(670,173,o),
(715,172,o),
(760,172,cs),
(1268,172,o),
(1618,346,o),
(1618,866,cs)
);
},
{
closed = 1;
nodes = (
(1860,301,o),
(1448,0,o),
(881,0,cs),
(123,0,ls),
(76,0,o),
(49,40,o),
(49,84,cs),
(49,134,o),
(70,176,o),
(121,176,cs),
(389,176,l),
(389,1538,l),
(186,1538,ls),
(135,1538,o),
(115,1580,o),
(115,1630,cs),
(115,1674,o),
(142,1714,o),
(189,1714,cs),
(881,1714,ls),
(1460,1714,o),
(1860,1438,o),
(1860,866,cs)
);
},
{
closed = 1;
nodes = (
(2640,1346,o),
(2621,1352,o),
(2613,1363,cs),
(2343,1777,l),
(2336,1785,o),
(2333,1794,o),
(2333,1802,cs),
(2333,1826,o),
(2360,1845,o),
(2387,1845,cs),
(2399,1845,o),
(2413,1843,o),
(2421,1832,cs),
(2659,1526,l),
(2897,1832,ls),
(2905,1843,o),
(2919,1845,o),
(2931,1845,cs),
(2958,1845,o),
(2985,1826,o),
(2985,1802,cs),
(2985,1794,o),
(2982,1785,o),
(2975,1777,c),
(2705,1363,ls),
(2697,1352,o),
(2678,1346,o),
(2659,1346,cs)
);
},
{
closed = 1;
nodes = (
(3118,1130,o),
(3137,1112,o),
(3137,1086,cs),
(3137,1041,o),
(3078,976,o),
(3057,954,cs),
(2314,176,l),
(3002,176,l),
(3032,467,l),
(3034,508,o),
(3069,530,o),
(3108,530,cs),
(3163,530,o),
(3197,507,o),
(3197,461,cs),
(3197,458,o),
(3196,455,o),
(3196,451,cs),
(3155,68,ls),
(3151,32,o),
(3115,0,o),
(3080,0,cs),
(2117,0,ls),
(2061,0,o),
(2035,35,o),
(2035,86,cs),
(2035,118,o),
(2044,143,o),
(2060,160,cs),
(2799,954,l),
(2252,954,l),
(2240,762,l),
(2235,717,o),
(2204,692,o),
(2158,692,cs),
(2104,692,o),
(2078,717,o),
(2078,769,cs),
(2078,780,l),
(2097,1063,ls),
(2099,1098,o),
(2129,1130,o),
(2164,1130,cs),
(3059,1130,ls)
);
}
);
};
layerId = m001;
shapes = (
{
ref = D;
},
{
pos = (1953,0);
ref = zcaron;
}
);
width = 3254;
}
);
unicode = 453;
},
{
glyphname = Eth;
kernLeft = H;
kernRight = O;
lastChange = "2024-05-02 12:22:03 +0000";
layers = (
{
background = {
shapes = (
{
closed = 1;
nodes = (
(1872,301,o),
(1460,0,o),
(893,0,cs),
(135,0,ls),
(88,0,o),
(61,40,o),
(61,84,cs),
(61,134,o),
(82,176,o),
(133,176,cs),
(401,176,l),
(401,809,l),
(252,809,ls),
(197,809,o),
(170,849,o),
(170,888,cs),
(170,927,o),
(196,965,o),
(246,965,cs),
(401,965,l),
(401,1538,l),
(198,1538,ls),
(147,1538,o),
(127,1580,o),
(127,1630,cs),
(127,1674,o),
(154,1714,o),
(201,1714,cs),
(893,1714,ls),
(1472,1714,o),
(1872,1438,o),
(1872,866,cs)
);
},
{
closed = 1;
nodes = (
(1630,1297,o),
(1355,1538,o),
(921,1538,cs),
(635,1538,l),
(635,965,l),
(888,965,ls),
(936,965,o),
(960,927,o),
(960,888,cs),
(960,849,o),
(935,809,o),
(886,809,cs),
(635,809,l),
(635,176,l),
(682,173,o),
(727,172,o),
(772,172,cs),
(1280,172,o),
(1630,346,o),
(1630,866,cs)
);
}
);
};
layerId = m001;
shapes = (
{
closed = 1;
nodes = (
(893,0,ls),
(1460,0,o),
(1872,301,o),
(1872,866,cs),
(1872,1438,o),
(1472,1714,o),
(893,1714,cs),
(201,1714,ls),
(154,1714,o),
(127,1674,o),
(127,1630,cs),
(127,1580,o),
(147,1538,o),
(198,1538,cs),
(401,1538,l),
(401,965,l),
(246,965,ls),
(196,965,o),
(170,927,o),
(170,888,cs),
(170,849,o),
(197,809,o),
(252,809,cs),
(401,809,l),
(401,176,l),
(133,176,ls),
(82,176,o),
(61,134,o),
(61,84,cs),
(61,40,o),
(88,0,o),
(135,0,cs)
);
},
{
closed = 1;
nodes = (
(727,172,o),
(682,173,o),
(635,176,c),
(635,809,l),
(886,809,ls),
(935,809,o),
(960,849,o),
(960,888,cs),
(960,927,o),
(936,965,o),
(888,965,cs),
(635,965,l),
(635,1538,l),
(921,1538,ls),
(1355,1538,o),
(1630,1297,o),
(1630,866,cs),
(1630,346,o),
(1280,172,o),
(772,172,cs)
);
}
);
width = 1878;
}
);
unicode = 208;
},
{
glyphname = E;
kernLeft = H;
kernRight = E;
lastChange = "2024-05-02 12:22:03 +0000";
layers = (
{
anchors = (
{
name = bottom;
pos = (947,0);
},
{
name = ogonek;
pos = (1705,10);
},
{
name = top;
pos = (1007,1714);
},
{
name = topleft;
pos = (20,1714);
}
);
background = {
shapes = (
{
closed = 1;
nodes = (
(1174,602,o),
(1149,569,o),
(1104,569,cs),
(1062,569,o),
(1035,600,o),
(1024,637,cs),
(973,823,l),
(639,823,l),
(639,176,l),
(1506,176,l),
(1622,506,l),
(1641,548,o),
(1673,582,o),
(1725,582,cs),
(1769,582,o),
(1798,554,o),
(1798,508,cs),
(1798,494,o),
(1796,481,o),
(1792,469,c),
(1729,78,l),
(1715,30,o),
(1695,0,o),
(1647,0,cs),
(123,0,ls),
(76,0,o),
(49,40,o),
(49,84,cs),
(49,134,o),
(70,176,o),
(121,176,cs),
(406,176,l),
(406,1538,l),
(223,1538,ls),
(172,1538,o),
(152,1580,o),
(152,1630,cs),
(152,1674,o),
(178,1714,o),
(225,1714,cs),
(1606,1714,ls),
(1654,1714,o),
(1672,1683,o),
(1688,1636,c),
(1784,1319,ls),
(1788,1304,o),
(1790,1291,o),
(1790,1280,cs),
(1790,1236,o),
(1760,1206,o),
(1717,1206,cs),
(1667,1206,o),
(1631,1240,o),
(1614,1282,cs),
(1506,1538,l),
(639,1538,l),
(639,967,l),
(973,967,l),
(1024,1153,ls),
(1035,1190,o),
(1062,1221,o),
(1104,1221,cs),
(1149,1221,o),
(1174,1188,o),
(1174,1141,c),
(1159,899,l),
(1174,649,l)
);
}
);
};
layerId = m001;
shapes = (
{
closed = 1;
nodes = (
(1647,0,ls),
(1695,0,o),
(1715,30,o),
(1729,78,c),
(1792,469,l),
(1796,481,o),
(1798,494,o),
(1798,508,cs),
(1798,554,o),
(1769,582,o),
(1725,582,cs),
(1673,582,o),
(1641,548,o),
(1622,506,c),
(1506,176,l),
(639,176,l),
(639,823,l),
(973,823,l),
(1024,637,ls),
(1035,600,o),
(1062,569,o),
(1104,569,cs),
(1149,569,o),
(1174,602,o),
(1174,649,c),
(1159,899,l),
(1174,1141,l),
(1174,1188,o),
(1149,1221,o),
(1104,1221,cs),
(1062,1221,o),
(1035,1190,o),
(1024,1153,cs),
(973,967,l),
(639,967,l),
(639,1538,l),
(1506,1538,l),
(1614,1282,ls),
(1631,1240,o),
(1667,1206,o),
(1717,1206,cs),
(1760,1206,o),
(1790,1236,o),
(1790,1280,cs),
(1790,1291,o),
(1788,1304,o),
(1784,1319,cs),
(1688,1636,l),
(1672,1683,o),
(1654,1714,o),
(1606,1714,cs),
(225,1714,ls),
(178,1714,o),
(152,1674,o),
(152,1630,cs),
(152,1580,o),
(172,1538,o),
(223,1538,cs),
(406,1538,l),
(406,176,l),
(121,176,ls),
(70,176,o),
(49,134,o),
(49,84,cs),
(49,40,o),
(76,0,o),
(123,0,cs)
);
}
);
width = 1894;
}
);
unicode = 69;
},
{
glyphname = Eacute;
kernLeft = H;
kernRight = E;
lastChange = "2024-05-02 12:22:03 +0000";
layers = (
{
background = {
shapes = (
{
closed = 1;
nodes = (
(1174,602,o),
(1149,569,o),
(1104,569,cs),
(1062,569,o),
(1035,600,o),
(1024,637,cs),
(973,823,l),
(639,823,l),
(639,176,l),
(1506,176,l),
(1622,506,l),
(1641,548,o),
(1673,582,o),
(1725,582,cs),
(1769,582,o),
(1798,554,o),
(1798,508,cs),
(1798,494,o),
(1796,481,o),
(1792,469,c),
(1729,78,l),
(1715,30,o),
(1695,0,o),
(1647,0,cs),
(123,0,ls),
(76,0,o),
(49,40,o),
(49,84,cs),
(49,134,o),
(70,176,o),
(121,176,cs),
(406,176,l),
(406,1538,l),
(223,1538,ls),
(172,1538,o),
(152,1580,o),
(152,1630,cs),
(152,1674,o),
(178,1714,o),
(225,1714,cs),
(1606,1714,ls),
(1654,1714,o),
(1672,1683,o),
(1688,1636,c),
(1784,1319,ls),
(1788,1304,o),
(1790,1291,o),
(1790,1280,cs),
(1790,1236,o),
(1760,1206,o),
(1717,1206,cs),
(1667,1206,o),
(1631,1240,o),
(1614,1282,cs),
(1506,1538,l),
(639,1538,l),
(639,967,l),
(973,967,l),
(1024,1153,ls),
(1035,1190,o),
(1062,1221,o),
(1104,1221,cs),
(1149,1221,o),
(1174,1188,o),
(1174,1141,c),
(1159,899,l),
(1174,649,l)
);
},
{
closed = 1;
nodes = (
(1516,2364,o),
(1558,2321,o),
(1558,2280,cs),
(1558,2262,o),
(1550,2247,o),
(1532,2235,cs),
(1374,2136,o),
(1197,2021,o),
(1034,1928,cs),
(1027,1924,o),
(1020,1921,o),
(1015,1921,cs),
(989,1921,o),
(966,1948,o),
(966,1973,cs),
(966,1987,o),
(972,1996,o),
(983,2003,cs),
(1133,2103,o),
(1297,2232,o),
(1433,2349,cs),
(1444,2359,o),
(1458,2364,o),
(1474,2364,cs)
);
}
);
};
layerId = m001;
shapes = (
{
ref = E;
},
{
pos = (962,554);
ref = acutecomb;
}
);
width = 1894;
}
);
unicode = 201;
},
{
glyphname = Ebreve;
kernLeft = H;
kernRight = E;
lastChange = "2024-05-02 12:22:03 +0000";
layers = (
{
background = {
shapes = (
{
closed = 1;
nodes = (
(1174,602,o),
(1149,569,o),
(1104,569,cs),
(1062,569,o),
(1035,600,o),
(1024,637,cs),
(973,823,l),
(639,823,l),
(639,176,l),
(1506,176,l),
(1622,506,l),
(1641,548,o),
(1673,582,o),
(1725,582,cs),
(1769,582,o),
(1798,554,o),
(1798,508,cs),
(1798,494,o),
(1796,481,o),
(1792,469,c),
(1729,78,l),
(1715,30,o),
(1695,0,o),
(1647,0,cs),
(123,0,ls),
(76,0,o),
(49,40,o),
(49,84,cs),
(49,134,o),
(70,176,o),
(121,176,cs),
(406,176,l),
(406,1538,l),
(223,1538,ls),
(172,1538,o),
(152,1580,o),
(152,1630,cs),
(152,1674,o),
(178,1714,o),
(225,1714,cs),
(1606,1714,ls),
(1654,1714,o),
(1672,1683,o),
(1688,1636,c),
(1784,1319,ls),
(1788,1304,o),
(1790,1291,o),
(1790,1280,cs),
(1790,1236,o),
(1760,1206,o),
(1717,1206,cs),
(1667,1206,o),
(1631,1240,o),
(1614,1282,cs),
(1506,1538,l),
(639,1538,l),
(639,967,l),
(973,967,l),
(1024,1153,ls),
(1035,1190,o),
(1062,1221,o),
(1104,1221,cs),
(1149,1221,o),
(1174,1188,o),
(1174,1141,c),
(1159,899,l),
(1174,649,l)
);
},
{
closed = 1;
nodes = (
(848,2141,o),
(929,2081,o),
(1010,2081,cs),
(1091,2081,o),
(1172,2141,o),
(1218,2261,cs),
(1224,2277,o),
(1238,2282,o),
(1251,2282,cs),
(1277,2282,o),
(1306,2257,o),
(1306,2235,cs),
(1306,2024,o),
(1158,1918,o),
(1010,1918,cs),
(862,1918,o),
(714,2024,o),
(714,2235,cs),
(714,2257,o),
(743,2282,o),
(769,2282,cs),
(782,2282,o),
(796,2277,o),
(802,2261,cs)
);
}
);
};
layerId = m001;
shapes = (
{
ref = E;
},
{
pos = (711,554);
ref = brevecomb;
}
);
width = 1894;
}
);
unicode = 276;
},
{
glyphname = Ecaron;
kernLeft = H;
kernRight = E;
lastChange = "2024-05-02 12:22:03 +0000";
layers = (
{
background = {
shapes = (
{
closed = 1;
nodes = (
(1174,602,o),
(1149,569,o),
(1104,569,cs),
(1062,569,o),
(1035,600,o),
(1024,637,cs),
(973,823,l),
(639,823,l),
(639,176,l),
(1506,176,l),
(1622,506,l),
(1641,548,o),
(1673,582,o),
(1725,582,cs),
(1769,582,o),
(1798,554,o),
(1798,508,cs),
(1798,494,o),
(1796,481,o),
(1792,469,c),
(1729,78,l),
(1715,30,o),
(1695,0,o),
(1647,0,cs),
(123,0,ls),
(76,0,o),
(49,40,o),
(49,84,cs),
(49,134,o),
(70,176,o),
(121,176,cs),
(406,176,l),
(406,1538,l),
(223,1538,ls),
(172,1538,o),
(152,1580,o),
(152,1630,cs),
(152,1674,o),
(178,1714,o),
(225,1714,cs),
(1606,1714,ls),
(1654,1714,o),
(1672,1683,o),
(1688,1636,c),
(1784,1319,ls),
(1788,1304,o),
(1790,1291,o),
(1790,1280,cs),
(1790,1236,o),
(1760,1206,o),
(1717,1206,cs),
(1667,1206,o),
(1631,1240,o),
(1614,1282,cs),
(1506,1538,l),
(639,1538,l),
(639,967,l),
(973,967,l),
(1024,1153,ls),
(1035,1190,o),
(1062,1221,o),
(1104,1221,cs),
(1149,1221,o),
(1174,1188,o),
(1174,1141,c),
(1159,899,l),
(1174,649,l)
);
},
{
closed = 1;
nodes = (
(1000,1927,o),
(981,1933,o),
(973,1944,cs),
(703,2358,l),
(696,2366,o),
(693,2375,o),
(693,2383,cs),
(693,2407,o),
(720,2426,o),
(747,2426,cs),
(759,2426,o),
(773,2424,o),
(781,2413,cs),
(1019,2107,l),
(1257,2413,ls),
(1265,2424,o),
(1279,2426,o),
(1291,2426,cs),
(1318,2426,o),
(1345,2407,o),
(1345,2383,cs),
(1345,2375,o),
(1342,2366,o),
(1335,2358,c),
(1065,1944,ls),
(1057,1933,o),
(1038,1927,o),
(1019,1927,cs)
);
}
);
};
layerId = m001;
shapes = (
{
ref = E;
},
{
pos = (711,554);
ref = caroncomb;
}
);
width = 1894;
}
);
unicode = 282;
},
{
glyphname = Ecircumflex;
kernLeft = H;
kernRight = E;
lastChange = "2024-05-02 12:22:03 +0000";
layers = (
{
background = {
shapes = (
{
closed = 1;
nodes = (
(1174,602,o),
(1149,569,o),
(1104,569,cs),
(1062,569,o),
(1035,600,o),
(1024,637,cs),
(973,823,l),
(639,823,l),
(639,176,l),
(1506,176,l),
(1622,506,l),
(1641,548,o),
(1673,582,o),
(1725,582,cs),
(1769,582,o),
(1798,554,o),
(1798,508,cs),
(1798,494,o),
(1796,481,o),
(1792,469,c),
(1729,78,l),
(1715,30,o),
(1695,0,o),
(1647,0,cs),
(123,0,ls),
(76,0,o),
(49,40,o),
(49,84,cs),
(49,134,o),
(70,176,o),
(121,176,cs),
(406,176,l),
(406,1538,l),
(223,1538,ls),
(172,1538,o),
(152,1580,o),
(152,1630,cs),
(152,1674,o),
(178,1714,o),
(225,1714,cs),
(1606,1714,ls),
(1654,1714,o),
(1672,1683,o),
(1688,1636,c),
(1784,1319,ls),
(1788,1304,o),
(1790,1291,o),
(1790,1280,cs),
(1790,1236,o),
(1760,1206,o),
(1717,1206,cs),
(1667,1206,o),
(1631,1240,o),
(1614,1282,cs),
(1506,1538,l),
(639,1538,l),
(639,967,l),
(973,967,l),
(1024,1153,ls),
(1035,1190,o),
(1062,1221,o),
(1104,1221,cs),
(1149,1221,o),
(1174,1188,o),
(1174,1141,c),
(1159,899,l),
(1174,649,l)
);
},
{
closed = 1;
nodes = (
(1032,2426,o),
(1051,2420,o),
(1059,2409,cs),
(1329,1995,l),
(1336,1987,o),
(1339,1978,o),
(1339,1970,cs),
(1339,1946,o),
(1312,1927,o),
(1285,1927,cs),
(1273,1927,o),
(1259,1929,o),
(1251,1940,cs),
(1013,2246,l),
(775,1940,ls),
(767,1929,o),
(753,1927,o),
(741,1927,cs),
(714,1927,o),
(687,1946,o),
(687,1970,cs),
(687,1978,o),
(690,1987,o),
(697,1995,c),
(967,2409,ls),
(975,2420,o),
(994,2426,o),
(1013,2426,cs)
);
}
);
};
layerId = m001;
shapes = (
{
ref = E;
},
{
pos = (711,554);
ref = circumflexcomb;
}
);
width = 1894;
}
);
unicode = 202;
},
{
glyphname = Edblgrave;
kernLeft = H;
kernRight = E;
lastChange = "2024-05-02 12:22:03 +0000";
layers = (
{
background = {
shapes = (
{
closed = 1;
nodes = (
(1174,602,o),
(1149,569,o),
(1104,569,cs),
(1062,569,o),
(1035,600,o),
(1024,637,cs),
(973,823,l),
(639,823,l),
(639,176,l),
(1506,176,l),
(1622,506,l),
(1641,548,o),
(1673,582,o),
(1725,582,cs),
(1769,582,o),
(1798,554,o),
(1798,508,cs),
(1798,494,o),
(1796,481,o),
(1792,469,c),
(1729,78,l),
(1715,30,o),
(1695,0,o),
(1647,0,cs),
(123,0,ls),
(76,0,o),
(49,40,o),
(49,84,cs),
(49,134,o),
(70,176,o),
(121,176,cs),
(406,176,l),
(406,1538,l),
(223,1538,ls),
(172,1538,o),
(152,1580,o),
(152,1630,cs),
(152,1674,o),
(178,1714,o),
(225,1714,cs),
(1606,1714,ls),
(1654,1714,o),
(1672,1683,o),
(1688,1636,c),
(1784,1319,ls),
(1788,1304,o),
(1790,1291,o),
(1790,1280,cs),
(1790,1236,o),
(1760,1206,o),
(1717,1206,cs),
(1667,1206,o),
(1631,1240,o),
(1614,1282,cs),
(1506,1538,l),
(639,1538,l),
(639,967,l),
(973,967,l),
(1024,1153,ls),
(1035,1190,o),
(1062,1221,o),
(1104,1221,cs),
(1149,1221,o),
(1174,1188,o),
(1174,1141,c),
(1159,899,l),
(1174,649,l)
);
},
{
closed = 1;
nodes = (
(738,2364,o),
(696,2321,o),
(696,2280,cs),
(696,2262,o),
(704,2247,o),
(722,2235,cs),
(880,2136,o),
(1057,2021,o),
(1220,1928,cs),
(1227,1924,o),
(1234,1921,o),
(1239,1921,cs),
(1265,1921,o),
(1288,1948,o),
(1288,1973,cs),
(1288,1987,o),
(1282,1996,o),
(1271,2003,cs),
(1121,2103,o),
(957,2232,o),
(821,2349,cs),
(810,2359,o),
(796,2364,o),
(780,2364,cs)
);
},
{
closed = 1;
nodes = (
(363,2364,o),
(321,2321,o),
(321,2280,cs),
(321,2262,o),
(330,2247,o),
(348,2235,cs),
(506,2136,o),
(682,2021,o),
(845,1928,cs),
(852,1924,o),
(859,1921,o),
(864,1921,cs),
(890,1921,o),
(913,1948,o),
(913,1973,cs),
(913,1987,o),
(907,1996,o),
(896,2003,cs),
(746,2103,o),
(582,2232,o),
(446,2349,cs),
(435,2359,o),
(421,2364,o),
(405,2364,cs)
);
}
);
};
layerId = m001;
shapes = (
{
ref = E;
},
{
pos = (314,494);
ref = dblgravecomb;
}
);
width = 1894;
}
);
unicode = 516;
},
{
glyphname = Edieresis;
kernLeft = H;
kernRight = E;
lastChange = "2024-05-02 12:22:03 +0000";
layers = (
{
background = {
shapes = (
{
closed = 1;
nodes = (
(1174,602,o),
(1149,569,o),
(1104,569,cs),
(1062,569,o),
(1035,600,o),
(1024,637,cs),
(973,823,l),
(639,823,l),
(639,176,l),
(1506,176,l),
(1622,506,l),
(1641,548,o),
(1673,582,o),
(1725,582,cs),
(1769,582,o),
(1798,554,o),
(1798,508,cs),
(1798,494,o),
(1796,481,o),
(1792,469,c),
(1729,78,l),
(1715,30,o),
(1695,0,o),
(1647,0,cs),
(123,0,ls),
(76,0,o),
(49,40,o),
(49,84,cs),
(49,134,o),
(70,176,o),
(121,176,cs),
(406,176,l),
(406,1538,l),
(223,1538,ls),
(172,1538,o),
(152,1580,o),
(152,1630,cs),
(152,1674,o),
(178,1714,o),
(225,1714,cs),
(1606,1714,ls),
(1654,1714,o),
(1672,1683,o),
(1688,1636,c),
(1784,1319,ls),
(1788,1304,o),
(1790,1291,o),
(1790,1280,cs),
(1790,1236,o),
(1760,1206,o),
(1717,1206,cs),
(1667,1206,o),
(1631,1240,o),
(1614,1282,cs),
(1506,1538,l),
(639,1538,l),
(639,967,l),
(973,967,l),
(1024,1153,ls),
(1035,1190,o),
(1062,1221,o),
(1104,1221,cs),
(1149,1221,o),
(1174,1188,o),
(1174,1141,c),
(1159,899,l),
(1174,649,l)
);
},
{
closed = 1;
nodes = (
(703,1926,o),
(642,1986,o),
(642,2059,cs),
(642,2132,o),
(703,2192,o),
(776,2192,cs),
(849,2192,o),
(909,2132,o),
(909,2059,cs),
(909,1986,o),
(849,1926,o),
(776,1926,cs)
);
},
{
closed = 1;
nodes = (
(1194,1926,o),
(1134,1986,o),
(1134,2059,cs),
(1134,2132,o),
(1194,2192,o),
(1267,2192,cs),
(1340,2192,o),
(1400,2132,o),
(1400,2059,cs),
(1400,1986,o),
(1340,1926,o),
(1267,1926,cs)
);
}
);
};
layerId = m001;
shapes = (
{
ref = E;
},
{
pos = (573,494);
ref = dieresiscomb;
}
);
width = 1894;
}
);
unicode = 203;
},
{
glyphname = Edotaccent;
kernLeft = H;
kernRight = E;
lastChange = "2024-05-02 12:22:03 +0000";
layers = (
{
background = {
shapes = (
{
closed = 1;
nodes = (
(1174,602,o),
(1149,569,o),
(1104,569,cs),
(1062,569,o),
(1035,600,o),
(1024,637,cs),
(973,823,l),
(639,823,l),
(639,176,l),
(1506,176,l),
(1622,506,l),
(1641,548,o),
(1673,582,o),
(1725,582,cs),
(1769,582,o),
(1798,554,o),
(1798,508,cs),
(1798,494,o),
(1796,481,o),
(1792,469,c),
(1729,78,l),
(1715,30,o),
(1695,0,o),
(1647,0,cs),
(123,0,ls),
(76,0,o),
(49,40,o),
(49,84,cs),
(49,134,o),
(70,176,o),
(121,176,cs),
(406,176,l),
(406,1538,l),
(223,1538,ls),
(172,1538,o),
(152,1580,o),
(152,1630,cs),
(152,1674,o),
(178,1714,o),
(225,1714,cs),
(1606,1714,ls),
(1654,1714,o),
(1672,1683,o),
(1688,1636,c),
(1784,1319,ls),
(1788,1304,o),
(1790,1291,o),
(1790,1280,cs),
(1790,1236,o),
(1760,1206,o),
(1717,1206,cs),
(1667,1206,o),
(1631,1240,o),
(1614,1282,cs),
(1506,1538,l),
(639,1538,l),
(639,967,l),
(973,967,l),
(1024,1153,ls),
(1035,1190,o),
(1062,1221,o),
(1104,1221,cs),
(1149,1221,o),
(1174,1188,o),
(1174,1141,c),
(1159,899,l),
(1174,649,l)
);
},
{
closed = 1;
nodes = (
(1073,1981,o),
(1013,1902,o),
(924,1902,cs),
(827,1902,o),
(774,1981,o),
(774,2058,cs),
(774,2131,o),
(822,2203,o),
(926,2203,cs),
(1018,2203,o),
(1073,2132,o),
(1073,2058,cs)
);
}
);
};
layerId = m001;
shapes = (
{
ref = E;
},
{
pos = (856,554);
ref = dotaccentcomb;
}
);
width = 1894;
}
);
unicode = 278;
},
{
glyphname = Egrave;
kernLeft = H;
kernRight = E;
lastChange = "2024-07-31 14:33:50 +0000";
layers = (
{
background = {
shapes = (
{
closed = 1;
nodes = (
(1174,602,o),
(1149,569,o),
(1104,569,cs),
(1062,569,o),
(1035,600,o),
(1024,637,cs),
(973,823,l),
(639,823,l),
(639,176,l),
(1506,176,l),
(1622,506,l),
(1641,548,o),
(1673,582,o),
(1725,582,cs),
(1769,582,o),
(1798,554,o),
(1798,508,cs),
(1798,494,o),
(1796,481,o),
(1792,469,c),
(1729,78,l),
(1715,30,o),
(1695,0,o),
(1647,0,cs),
(123,0,ls),
(76,0,o),
(49,40,o),
(49,84,cs),
(49,134,o),
(70,176,o),
(121,176,cs),
(406,176,l),
(406,1538,l),
(223,1538,ls),
(172,1538,o),
(152,1580,o),
(152,1630,cs),
(152,1674,o),
(178,1714,o),
(225,1714,cs),
(1606,1714,ls),
(1654,1714,o),
(1672,1683,o),
(1688,1636,c),
(1784,1319,ls),
(1788,1304,o),
(1790,1291,o),
(1790,1280,cs),
(1790,1236,o),
(1760,1206,o),
(1717,1206,cs),
(1667,1206,o),
(1631,1240,o),
(1614,1282,cs),
(1506,1538,l),
(639,1538,l),
(639,967,l),
(973,967,l),
(1024,1153,ls),
(1035,1190,o),
(1062,1221,o),
(1104,1221,cs),
(1149,1221,o),
(1174,1188,o),
(1174,1141,c),
(1159,899,l),
(1174,649,l)
);
},
{
closed = 1;
nodes = (
(1072,1948,o),
(1049,1921,o),
(1023,1921,cs),
(1016,1921,o),
(1010,1924,o),
(1005,1928,cs),
(843,2021,o),
(664,2137,o),
(507,2235,cs),
(489,2247,o),
(480,2262,o),
(480,2280,cs),
(480,2321,o),
(522,2364,o),
(564,2364,cs),
(580,2364,o),
(594,2359,o),
(605,2349,cs),
(741,2232,o),
(906,2103,o),
(1056,2003,cs),
(1067,1996,o),
(1072,1987,o),
(1072,1973,cs)
);
}
);
};
layerId = m001;
shapes = (
{
ref = E;
},
{
pos = (532,554);
ref = gravecomb;
}
);
width = 1894;
}
);
unicode = 200;
},
{
glyphname = Einvertedbreve;
kernLeft = H;
kernRight = E;
lastChange = "2024-05-02 12:22:03 +0000";
layers = (
{
background = {
shapes = (
{
closed = 1;
nodes = (
(1174,602,o),
(1149,569,o),
(1104,569,cs),
(1062,569,o),
(1035,600,o),
(1024,637,cs),
(973,823,l),
(639,823,l),
(639,176,l),
(1506,176,l),
(1622,506,l),
(1641,548,o),
(1673,582,o),
(1725,582,cs),
(1769,582,o),
(1798,554,o),
(1798,508,cs),
(1798,494,o),
(1796,481,o),
(1792,469,c),
(1729,78,l),
(1715,30,o),
(1695,0,o),
(1647,0,cs),
(123,0,ls),
(76,0,o),
(49,40,o),
(49,84,cs),
(49,134,o),
(70,176,o),
(121,176,cs),
(406,176,l),
(406,1538,l),
(223,1538,ls),
(172,1538,o),
(152,1580,o),
(152,1630,cs),
(152,1674,o),
(178,1714,o),
(225,1714,cs),
(1606,1714,ls),
(1654,1714,o),
(1672,1683,o),
(1688,1636,c),
(1784,1319,ls),
(1788,1304,o),
(1790,1291,o),
(1790,1280,cs),
(1790,1236,o),
(1760,1206,o),
(1717,1206,cs),
(1667,1206,o),
(1631,1240,o),
(1614,1282,cs),
(1506,1538,l),
(639,1538,l),
(639,967,l),
(973,967,l),
(1024,1153,ls),
(1035,1190,o),
(1062,1221,o),
(1104,1221,cs),
(1149,1221,o),
(1174,1188,o),
(1174,1141,c),
(1159,899,l),
(1174,649,l)
);
},
{
closed = 1;
nodes = (
(747,1876,o),
(720,1893,o),
(720,1917,cs),
(720,2129,o),
(868,2239,o),
(1016,2239,cs),
(1164,2239,o),
(1312,2128,o),
(1312,1917,cs),
(1312,1893,o),
(1285,1876,o),
(1259,1876,cs),
(1241,1876,o),
(1223,1884,o),
(1216,1904,cs),
(1170,2025,o),
(1097,2077,o),
(1016,2077,cs),
(935,2077,o),
(862,2025,o),
(816,1904,cs),
(809,1884,o),
(791,1876,o),
(773,1876,cs)
);
}
);
};
layerId = m001;
shapes = (
{
ref = E;
},
{
pos = (711,554);
ref = breveinvertedcomb;
}
);
width = 1894;
}
);
unicode = 518;
},
{
glyphname = Emacron;
kernLeft = H;
kernRight = E;
lastChange = "2024-05-02 12:22:03 +0000";
layers = (
{
background = {
shapes = (
{
closed = 1;
nodes = (
(1174,602,o),
(1149,569,o),
(1104,569,cs),
(1062,569,o),
(1035,600,o),
(1024,637,cs),
(973,823,l),
(639,823,l),
(639,176,l),
(1506,176,l),
(1622,506,l),
(1641,548,o),
(1673,582,o),
(1725,582,cs),
(1769,582,o),
(1798,554,o),
(1798,508,cs),
(1798,494,o),
(1796,481,o),
(1792,469,c),
(1729,78,l),
(1715,30,o),
(1695,0,o),
(1647,0,cs),
(123,0,ls),
(76,0,o),
(49,40,o),
(49,84,cs),
(49,134,o),
(70,176,o),
(121,176,cs),
(406,176,l),
(406,1538,l),
(223,1538,ls),
(172,1538,o),
(152,1580,o),
(152,1630,cs),
(152,1674,o),
(178,1714,o),
(225,1714,cs),
(1606,1714,ls),
(1654,1714,o),
(1672,1683,o),
(1688,1636,c),
(1784,1319,ls),
(1788,1304,o),
(1790,1291,o),
(1790,1280,cs),
(1790,1236,o),
(1760,1206,o),
(1717,1206,cs),
(1667,1206,o),
(1631,1240,o),
(1614,1282,cs),
(1506,1538,l),
(639,1538,l),
(639,967,l),
(973,967,l),
(1024,1153,ls),
(1035,1190,o),
(1062,1221,o),
(1104,1221,cs),
(1149,1221,o),
(1174,1188,o),
(1174,1141,c),
(1159,899,l),
(1174,649,l)
);
},
{
closed = 1;
nodes = (
(753,1976,ls),
(698,1976,o),
(671,2016,o),
(671,2055,cs),
(671,2094,o),
(697,2132,o),
(747,2132,cs),
(1285,2132,ls),
(1333,2132,o),
(1357,2094,o),
(1357,2055,cs),
(1357,2016,o),
(1332,1976,o),
(1283,1976,cs)
);
}
);
};
layerId = m001;
shapes = (
{
ref = E;
},
{
pos = (494,494);
ref = macroncomb;
}
);
width = 1894;
}
);
unicode = 274;
},
{
glyphname = Eogonek;
kernLeft = H;
kernRight = E;
lastChange = "2024-05-02 12:22:03 +0000";
layers = (
{
background = {
shapes = (
{
closed = 1;
nodes = (
(1174,602,o),
(1149,569,o),
(1104,569,cs),
(1062,569,o),
(1035,600,o),
(1024,637,cs),
(973,823,l),
(639,823,l),
(639,176,l),
(1506,176,l),
(1622,506,l),
(1641,548,o),
(1673,582,o),
(1725,582,cs),
(1769,582,o),
(1798,554,o),
(1798,508,cs),
(1798,494,o),
(1796,481,o),
(1792,469,c),
(1729,78,l),
(1715,30,o),
(1695,0,o),
(1647,0,cs),
(123,0,ls),
(76,0,o),
(49,40,o),
(49,84,cs),
(49,134,o),
(70,176,o),
(121,176,cs),
(406,176,l),
(406,1538,l),
(223,1538,ls),
(172,1538,o),
(152,1580,o),
(152,1630,cs),
(152,1674,o),
(178,1714,o),
(225,1714,cs),
(1606,1714,ls),
(1654,1714,o),
(1672,1683,o),
(1688,1636,c),
(1784,1319,ls),
(1788,1304,o),
(1790,1291,o),
(1790,1280,cs),
(1790,1236,o),
(1760,1206,o),
(1717,1206,cs),
(1667,1206,o),
(1631,1240,o),
(1614,1282,cs),
(1506,1538,l),
(639,1538,l),
(639,967,l),
(973,967,l),
(1024,1153,ls),
(1035,1190,o),
(1062,1221,o),
(1104,1221,cs),
(1149,1221,o),
(1174,1188,o),
(1174,1141,c),
(1159,899,l),
(1174,649,l)
);
},
{
closed = 1;
nodes = (
(1422,-516,o),
(1352,-473,o),
(1352,-358,cs),
(1352,-286,o),
(1418,-111,o),
(1588,30,c),
(1667,30,ls),
(1676,30,o),
(1556,-162,o),
(1556,-257,cs),
(1556,-368,o),
(1693,-343,o),
(1693,-403,cs),
(1693,-454,o),
(1608,-516,o),
(1514,-516,cs)
);
}
);
};
layerId = m001;
shapes = (
{
ref = E;
},
{
pos = (1392,0);
ref = ogonekcomb;
}
);
width = 1894;
}
);
unicode = 280;
},
{
glyphname = F;
kernLeft = H;
kernRight = F;
lastChange = "2024-05-02 12:22:03 +0000";
layers = (
{
anchors = (
{
name = bottom;
pos = (898,0);
},
{
name = top;
pos = (898,1714);
}
);
background = {
shapes = (
{
closed = 1;
nodes = (
(123,0,ls),
(76,0,o),
(49,40,o),
(49,84,cs),
(49,134,o),
(70,176,o),
(121,176,cs),
(447,176,l),
(447,1538,l),
(203,1538,ls),
(152,1538,o),
(131,1580,o),
(131,1630,cs),
(131,1674,o),
(158,1714,o),
(205,1714,cs),
(1655,1714,ls),
(1703,1714,o),
(1721,1683,o),
(1737,1636,c),
(1813,1319,ls),
(1817,1304,o),
(1819,1291,o),
(1819,1280,cs),
(1819,1236,o),
(1788,1206,o),
(1745,1206,cs),
(1695,1206,o),
(1660,1240,o),
(1643,1282,c),
(1555,1538,l),
(680,1538,l),
(680,928,l),
(1020,928,l),
(1071,1114,ls),
(1082,1151,o),
(1109,1182,o),
(1151,1182,cs),
(1196,1182,o),
(1221,1149,o),
(1221,1102,c),
(1207,860,l),
(1221,610,l),
(1221,563,o),
(1196,530,o),
(1151,530,cs),
(1109,530,o),
(1082,561,o),
(1071,598,cs),
(1020,784,l),
(680,784,l),
(680,176,l),
(985,176,ls),
(1036,176,o),
(1057,134,o),
(1057,84,cs),
(1057,40,o),
(1030,0,o),
(983,0,cs)
);
}
);
};
layerId = m001;
shapes = (
{
closed = 1;
nodes = (
(983,0,ls),
(1030,0,o),
(1057,40,o),
(1057,84,cs),
(1057,134,o),
(1036,176,o),
(985,176,cs),
(680,176,l),
(680,784,l),
(1020,784,l),
(1071,598,ls),
(1082,561,o),
(1109,530,o),
(1151,530,cs),
(1196,530,o),
(1221,563,o),
(1221,610,c),
(1207,860,l),
(1221,1102,l),
(1221,1149,o),
(1196,1182,o),
(1151,1182,cs),
(1109,1182,o),
(1082,1151,o),
(1071,1114,cs),
(1020,928,l),
(680,928,l),
(680,1538,l),
(1555,1538,l),
(1643,1282,l),
(1660,1240,o),
(1695,1206,o),
(1745,1206,cs),
(1788,1206,o),
(1819,1236,o),
(1819,1280,cs),
(1819,1291,o),
(1817,1304,o),
(1813,1319,cs),
(1737,1636,l),
(1721,1683,o),
(1703,1714,o),
(1655,1714,cs),
(205,1714,ls),
(158,1714,o),
(131,1674,o),
(131,1630,cs),
(131,1580,o),
(152,1538,o),
(203,1538,cs),
(447,1538,l),
(447,176,l),
(121,176,ls),
(70,176,o),
(49,134,o),
(49,84,cs),
(49,40,o),
(76,0,o),
(123,0,cs)
);
}
);
width = 1795;
}
);
unicode = 70;
},
{
glyphname = Fdotaccent;
kernLeft = H;
kernRight = F;
lastChange = "2024-05-02 12:22:03 +0000";
layers = (
{
background = {
shapes = (
{
closed = 1;
nodes = (
(123,0,ls),
(76,0,o),
(49,40,o),
(49,84,cs),
(49,134,o),
(70,176,o),
(121,176,cs),
(447,176,l),
(447,1538,l),
(203,1538,ls),
(152,1538,o),
(131,1580,o),
(131,1630,cs),
(131,1674,o),
(158,1714,o),
(205,1714,cs),
(1655,1714,ls),
(1703,1714,o),
(1721,1683,o),
(1737,1636,c),
(1813,1319,ls),
(1817,1304,o),
(1819,1291,o),
(1819,1280,cs),
(1819,1236,o),
(1788,1206,o),
(1745,1206,cs),
(1695,1206,o),
(1660,1240,o),
(1643,1282,c),
(1555,1538,l),
(680,1538,l),
(680,928,l),
(1020,928,l),
(1071,1114,ls),
(1082,1151,o),
(1109,1182,o),
(1151,1182,cs),
(1196,1182,o),
(1221,1149,o),
(1221,1102,c),
(1207,860,l),
(1221,610,l),
(1221,563,o),
(1196,530,o),
(1151,530,cs),
(1109,530,o),
(1082,561,o),
(1071,598,cs),
(1020,784,l),
(680,784,l),
(680,176,l),
(985,176,ls),
(1036,176,o),
(1057,134,o),
(1057,84,cs),
(1057,40,o),
(1030,0,o),
(983,0,cs)
);
},
{
closed = 1;
nodes = (
(1084,1981,o),
(1024,1902,o),
(935,1902,cs),
(838,1902,o),
(785,1981,o),
(785,2058,cs),
(785,2131,o),
(833,2203,o),
(937,2203,cs),
(1029,2203,o),
(1084,2132,o),
(1084,2058,cs)
);
}
);
};
layerId = m001;
shapes = (
{
ref = F;
},
{
pos = (747,554);
ref = dotaccentcomb;
}
);
width = 1795;
}
);
unicode = 7710;
},
{
glyphname = G;
kernLeft = O;
kernRight = G;
lastChange = "2024-05-02 12:22:03 +0000";
layers = (
{
anchors = (
{
name = bottom;
pos = (1004,0);
},
{
name = top;
pos = (1004,1714);
}
);
background = {
shapes = (
{
closed = 1;
nodes = (
(1304,164,o),
(1594,252,o),
(1594,569,cs),
(1594,696,l),
(1442,696,ls),
(1395,696,o),
(1369,736,o),
(1369,780,cs),
(1369,830,o),
(1389,872,o),
(1440,872,cs),
(1856,872,ls),
(1907,872,o),
(1928,830,o),
(1928,780,cs),
(1928,736,o),
(1901,696,o),
(1854,696,cs),
(1770,696,l),
(1770,72,ls),
(1770,21,o),
(1728,0,o),
(1678,0,cs),
(1634,0,o),
(1594,27,o),
(1594,74,cs),
(1594,197,l),
(1478,38,o),
(1261,-25,o),
(990,-25,cs),
(461,-25,o),
(93,319,o),
(93,850,cs),
(93,1387,o),
(474,1739,o),
(1010,1739,cs),
(1252,1739,o),
(1419,1664,o),
(1559,1538,c),
(1559,1642,ls),
(1559,1693,o),
(1601,1714,o),
(1651,1714,cs),
(1695,1714,o),
(1735,1687,o),
(1735,1640,cs),
(1735,1266,ls),
(1735,1219,o),
(1695,1192,o),
(1651,1192,cs),
(1605,1192,o),
(1589,1236,o),
(1567,1270,c),
(1444,1443,o),
(1272,1550,o),
(1010,1550,cs),
(599,1550,o),
(355,1262,o),
(355,850,cs),
(355,444,o),
(588,164,o),
(990,164,cs)
);
}
);
};
layerId = m001;
shapes = (
{
closed = 1;
nodes = (
(1261,-25,o),
(1478,38,o),
(1594,197,c),
(1594,74,ls),
(1594,27,o),
(1634,0,o),
(1678,0,cs),
(1728,0,o),
(1770,21,o),
(1770,72,cs),
(1770,696,l),
(1854,696,ls),
(1901,696,o),
(1928,736,o),
(1928,780,cs),
(1928,830,o),
(1907,872,o),
(1856,872,cs),
(1440,872,ls),
(1389,872,o),
(1369,830,o),
(1369,780,cs),
(1369,736,o),
(1395,696,o),
(1442,696,cs),
(1594,696,l),
(1594,569,ls),
(1594,252,o),
(1304,164,o),
(990,164,cs),
(588,164,o),
(355,444,o),
(355,850,cs),
(355,1262,o),
(599,1550,o),
(1010,1550,cs),
(1272,1550,o),
(1444,1443,o),
(1567,1270,c),
(1589,1236,o),
(1605,1192,o),
(1651,1192,cs),
(1695,1192,o),
(1735,1219,o),
(1735,1266,cs),
(1735,1640,ls),
(1735,1687,o),
(1695,1714,o),
(1651,1714,cs),
(1601,1714,o),
(1559,1693,o),
(1559,1642,cs),
(1559,1538,l),
(1419,1664,o),
(1252,1739,o),
(1010,1739,cs),
(474,1739,o),
(93,1387,o),
(93,850,cs),
(93,319,o),
(461,-25,o),
(990,-25,cs)
);
}
);
width = 2007;
}
);
unicode = 71;
},
{
glyphname = Gacute;
kernLeft = O;
kernRight = G;
lastChange = "2024-05-02 12:22:03 +0000";
layers = (
{
background = {
shapes = (
{
closed = 1;
nodes = (
(1304,164,o),
(1594,252,o),
(1594,569,cs),
(1594,696,l),
(1442,696,ls),
(1395,696,o),
(1369,736,o),
(1369,780,cs),
(1369,830,o),
(1389,872,o),
(1440,872,cs),
(1856,872,ls),
(1907,872,o),
(1928,830,o),
(1928,780,cs),
(1928,736,o),
(1901,696,o),
(1854,696,cs),
(1770,696,l),
(1770,72,ls),
(1770,21,o),
(1728,0,o),
(1678,0,cs),
(1634,0,o),
(1594,27,o),
(1594,74,cs),
(1594,197,l),
(1478,38,o),
(1261,-25,o),
(990,-25,cs),
(461,-25,o),
(93,319,o),
(93,850,cs),
(93,1387,o),
(474,1739,o),
(1010,1739,cs),
(1252,1739,o),
(1419,1664,o),
(1559,1538,c),
(1559,1642,ls),
(1559,1693,o),
(1601,1714,o),
(1651,1714,cs),
(1695,1714,o),
(1735,1687,o),
(1735,1640,cs),
(1735,1266,ls),
(1735,1219,o),
(1695,1192,o),
(1651,1192,cs),
(1605,1192,o),
(1589,1236,o),
(1567,1270,c),
(1444,1443,o),
(1272,1550,o),
(1010,1550,cs),
(599,1550,o),
(355,1262,o),
(355,850,cs),
(355,444,o),
(588,164,o),
(990,164,cs)
);
},
{
closed = 1;
nodes = (
(1516,2364,o),
(1558,2321,o),
(1558,2280,cs),
(1558,2262,o),
(1550,2247,o),
(1532,2235,cs),
(1374,2136,o),
(1197,2021,o),
(1034,1928,cs),
(1027,1924,o),
(1020,1921,o),
(1015,1921,cs),
(989,1921,o),
(966,1948,o),
(966,1973,cs),
(966,1987,o),
(972,1996,o),
(983,2003,cs),
(1133,2103,o),
(1297,2232,o),
(1433,2349,cs),
(1444,2359,o),
(1458,2364,o),
(1474,2364,cs)
);
}
);
};
layerId = m001;
shapes = (
{
ref = G;
},
{
pos = (959,554);
ref = acutecomb;
}
);
width = 2007;
}
);
unicode = 500;
},
{
glyphname = Gbreve;
kernLeft = O;
kernRight = G;
lastChange = "2024-05-02 12:22:03 +0000";
layers = (
{
background = {
shapes = (
{
closed = 1;
nodes = (
(1304,164,o),
(1594,252,o),
(1594,569,cs),
(1594,696,l),
(1442,696,ls),
(1395,696,o),
(1369,736,o),
(1369,780,cs),
(1369,830,o),
(1389,872,o),
(1440,872,cs),
(1856,872,ls),
(1907,872,o),
(1928,830,o),
(1928,780,cs),
(1928,736,o),
(1901,696,o),
(1854,696,cs),
(1770,696,l),
(1770,72,ls),
(1770,21,o),
(1728,0,o),
(1678,0,cs),
(1634,0,o),
(1594,27,o),
(1594,74,cs),
(1594,197,l),
(1478,38,o),
(1261,-25,o),
(990,-25,cs),
(461,-25,o),
(93,319,o),
(93,850,cs),
(93,1387,o),
(474,1739,o),
(1010,1739,cs),
(1252,1739,o),
(1419,1664,o),
(1559,1538,c),
(1559,1642,ls),
(1559,1693,o),
(1601,1714,o),
(1651,1714,cs),
(1695,1714,o),
(1735,1687,o),
(1735,1640,cs),
(1735,1266,ls),
(1735,1219,o),
(1695,1192,o),
(1651,1192,cs),
(1605,1192,o),
(1589,1236,o),
(1567,1270,c),
(1444,1443,o),
(1272,1550,o),
(1010,1550,cs),
(599,1550,o),
(355,1262,o),
(355,850,cs),
(355,444,o),
(588,164,o),
(990,164,cs)
);
},
{
closed = 1;
nodes = (
(848,2141,o),
(929,2081,o),
(1010,2081,cs),
(1091,2081,o),
(1172,2141,o),
(1218,2261,cs),
(1224,2277,o),
(1238,2282,o),
(1251,2282,cs),
(1277,2282,o),
(1306,2257,o),
(1306,2235,cs),
(1306,2024,o),
(1158,1918,o),
(1010,1918,cs),
(862,1918,o),
(714,2024,o),
(714,2235,cs),
(714,2257,o),
(743,2282,o),
(769,2282,cs),
(782,2282,o),
(796,2277,o),
(802,2261,cs)
);
}
);
};
layerId = m001;
shapes = (
{
ref = G;
},
{
pos = (708,554);
ref = brevecomb;
}
);
width = 2007;
}
);
unicode = 286;
},
{
glyphname = Gcircumflex;
kernLeft = O;
kernRight = G;
lastChange = "2024-05-02 12:22:03 +0000";
layers = (
{
background = {
shapes = (
{
closed = 1;
nodes = (
(1304,164,o),
(1594,252,o),
(1594,569,cs),
(1594,696,l),
(1442,696,ls),
(1395,696,o),
(1369,736,o),
(1369,780,cs),
(1369,830,o),
(1389,872,o),
(1440,872,cs),
(1856,872,ls),
(1907,872,o),
(1928,830,o),
(1928,780,cs),
(1928,736,o),
(1901,696,o),
(1854,696,cs),
(1770,696,l),
(1770,72,ls),
(1770,21,o),
(1728,0,o),
(1678,0,cs),
(1634,0,o),
(1594,27,o),
(1594,74,cs),
(1594,197,l),
(1478,38,o),
(1261,-25,o),
(990,-25,cs),
(461,-25,o),
(93,319,o),
(93,850,cs),
(93,1387,o),
(474,1739,o),
(1010,1739,cs),
(1252,1739,o),
(1419,1664,o),
(1559,1538,c),
(1559,1642,ls),
(1559,1693,o),
(1601,1714,o),
(1651,1714,cs),
(1695,1714,o),
(1735,1687,o),
(1735,1640,cs),
(1735,1266,ls),
(1735,1219,o),
(1695,1192,o),
(1651,1192,cs),
(1605,1192,o),
(1589,1236,o),
(1567,1270,c),
(1444,1443,o),
(1272,1550,o),
(1010,1550,cs),
(599,1550,o),
(355,1262,o),
(355,850,cs),
(355,444,o),
(588,164,o),
(990,164,cs)
);
},
{
closed = 1;
nodes = (
(1032,2426,o),
(1051,2420,o),
(1059,2409,cs),
(1329,1995,l),
(1336,1987,o),
(1339,1978,o),
(1339,1970,cs),
(1339,1946,o),
(1312,1927,o),
(1285,1927,cs),
(1273,1927,o),
(1259,1929,o),
(1251,1940,cs),
(1013,2246,l),
(775,1940,ls),
(767,1929,o),
(753,1927,o),
(741,1927,cs),
(714,1927,o),
(687,1946,o),
(687,1970,cs),
(687,1978,o),
(690,1987,o),
(697,1995,c),
(967,2409,ls),
(975,2420,o),
(994,2426,o),
(1013,2426,cs)
);
}
);
};
layerId = m001;
shapes = (
{
ref = G;
},
{
pos = (708,554);
ref = circumflexcomb;
}
);
width = 2007;
}
);
unicode = 284;
},
{
glyphname = Gcommaaccent;
kernLeft = O;
kernRight = G;
lastChange = "2024-05-02 12:22:03 +0000";
layers = (
{
background = {
shapes = (
{
closed = 1;
nodes = (
(1304,164,o),
(1594,252,o),
(1594,569,cs),
(1594,696,l),
(1442,696,ls),
(1395,696,o),
(1369,736,o),
(1369,780,cs),
(1369,830,o),
(1389,872,o),
(1440,872,cs),
(1856,872,ls),
(1907,872,o),
(1928,830,o),
(1928,780,cs),
(1928,736,o),
(1901,696,o),
(1854,696,cs),
(1770,696,l),
(1770,72,ls),
(1770,21,o),
(1728,0,o),
(1678,0,cs),
(1634,0,o),
(1594,27,o),
(1594,74,cs),
(1594,197,l),
(1478,38,o),
(1261,-25,o),
(990,-25,cs),
(461,-25,o),
(93,319,o),
(93,850,cs),
(93,1387,o),
(474,1739,o),
(1010,1739,cs),
(1252,1739,o),
(1419,1664,o),
(1559,1538,c),
(1559,1642,ls),
(1559,1693,o),
(1601,1714,o),
(1651,1714,cs),
(1695,1714,o),
(1735,1687,o),
(1735,1640,cs),
(1735,1266,ls),
(1735,1219,o),
(1695,1192,o),
(1651,1192,cs),
(1605,1192,o),
(1589,1236,o),
(1567,1270,c),
(1444,1443,o),
(1272,1550,o),
(1010,1550,cs),
(599,1550,o),
(355,1262,o),
(355,850,cs),
(355,444,o),
(588,164,o),
(990,164,cs)
);
},
{
closed = 1;
nodes = (
(1097,-147,o),
(1192,-221,o),
(1192,-369,cs),
(1192,-580,o),
(1069,-714,o),
(918,-790,cs),
(902,-799,o),
(885,-803,o),
(871,-803,cs),
(828,-803,o),
(796,-770,o),
(796,-735,cs),
(796,-717,o),
(805,-698,o),
(827,-683,cs),
(904,-632,o),
(1005,-566,o),
(1005,-452,c),
(897,-452,o),
(817,-404,o),
(817,-302,cs),
(817,-199,o),
(899,-147,o),
(987,-147,cs)
);
}
);
};
layerId = m001;
shapes = (
{
ref = G;
},
{
pos = (755,0);
ref = commaaccentcomb;
}
);
width = 2007;
}
);
unicode = 290;
},
{
glyphname = Gdotaccent;
kernLeft = O;
kernRight = G;
lastChange = "2024-05-02 12:22:03 +0000";
layers = (
{
background = {
shapes = (
{
closed = 1;
nodes = (
(1304,164,o),
(1594,252,o),
(1594,569,cs),
(1594,696,l),
(1442,696,ls),
(1395,696,o),
(1369,736,o),
(1369,780,cs),
(1369,830,o),
(1389,872,o),
(1440,872,cs),
(1856,872,ls),
(1907,872,o),
(1928,830,o),
(1928,780,cs),
(1928,736,o),
(1901,696,o),
(1854,696,cs),
(1770,696,l),
(1770,72,ls),
(1770,21,o),
(1728,0,o),
(1678,0,cs),
(1634,0,o),
(1594,27,o),
(1594,74,cs),
(1594,197,l),
(1478,38,o),
(1261,-25,o),
(990,-25,cs),
(461,-25,o),
(93,319,o),
(93,850,cs),
(93,1387,o),
(474,1739,o),
(1010,1739,cs),
(1252,1739,o),
(1419,1664,o),
(1559,1538,c),
(1559,1642,ls),
(1559,1693,o),
(1601,1714,o),
(1651,1714,cs),
(1695,1714,o),
(1735,1687,o),
(1735,1640,cs),
(1735,1266,ls),
(1735,1219,o),
(1695,1192,o),
(1651,1192,cs),
(1605,1192,o),
(1589,1236,o),
(1567,1270,c),
(1444,1443,o),
(1272,1550,o),
(1010,1550,cs),
(599,1550,o),
(355,1262,o),
(355,850,cs),
(355,444,o),
(588,164,o),
(990,164,cs)
);
},
{
closed = 1;
nodes = (
(1160,1981,o),
(1100,1902,o),
(1011,1902,cs),
(914,1902,o),
(861,1981,o),
(861,2058,cs),
(861,2131,o),
(909,2203,o),
(1013,2203,cs),
(1105,2203,o),
(1160,2132,o),
(1160,2058,cs)
);
}
);
};
layerId = m001;
shapes = (
{
ref = G;
},
{
pos = (853,554);
ref = dotaccentcomb;
}
);
width = 2007;
}
);
unicode = 288;
},
{
glyphname = H;
kernLeft = H;
kernRight = H;
lastChange = "2024-05-02 12:22:03 +0000";
layers = (
{
anchors = (
{
name = bottom;
pos = (1023,0);
},
{
name = center;
pos = (1023,1286);
},
{
name = top;
pos = (1023,1714);
},
{
name = topleft;
pos = (20,1714);
}
);
background = {
shapes = (
{
closed = 1;
nodes = (
(49,134,o),
(70,176,o),
(121,176,cs),
(344,176,l),
(344,1538,l),
(142,1538,ls),
(91,1538,o),
(70,1580,o),
(70,1630,cs),
(70,1674,o),
(97,1714,o),
(144,1714,cs),
(779,1714,ls),
(826,1714,o),
(852,1674,o),
(852,1630,cs),
(852,1580,o),
(832,1538,o),
(781,1538,cs),
(578,1538,l),
(578,963,l),
(1510,963,l),
(1510,1538,l),
(1307,1538,ls),
(1256,1538,o),
(1235,1580,o),
(1235,1630,cs),
(1235,1674,o),
(1262,1714,o),
(1309,1714,cs),
(1923,1714,ls),
(1970,1714,o),
(1997,1674,o),
(1997,1630,cs),
(1997,1580,o),
(1976,1538,o),
(1925,1538,cs),
(1743,1538,l),
(1743,176,l),
(1925,176,ls),
(1976,176,o),
(1997,134,o),
(1997,84,cs),
(1997,40,o),
(1970,0,o),
(1923,0,cs),
(1309,0,ls),
(1262,0,o),
(1235,40,o),
(1235,84,cs),
(1235,134,o),
(1256,176,o),
(1307,176,cs),
(1510,176,l),
(1510,788,l),
(578,788,l),
(578,176,l),
(781,176,ls),
(832,176,o),
(852,134,o),
(852,84,cs),
(852,40,o),
(826,0,o),
(779,0,cs),
(123,0,ls),
(76,0,o),
(49,40,o),
(49,84,cs)
);
}
);
};
layerId = m001;
shapes = (
{
closed = 1;
nodes = (
(779,0,ls),
(826,0,o),
(852,40,o),
(852,84,cs),
(852,134,o),
(832,176,o),
(781,176,cs),
(578,176,l),
(578,788,l),
(1510,788,l),
(1510,176,l),
(1307,176,ls),
(1256,176,o),
(1235,134,o),
(1235,84,cs),
(1235,40,o),
(1262,0,o),
(1309,0,cs),
(1923,0,ls),
(1970,0,o),
(1997,40,o),
(1997,84,cs),
(1997,134,o),
(1976,176,o),
(1925,176,cs),
(1743,176,l),
(1743,1538,l),
(1925,1538,ls),
(1976,1538,o),
(1997,1580,o),
(1997,1630,cs),
(1997,1674,o),
(1970,1714,o),
(1923,1714,cs),
(1309,1714,ls),
(1262,1714,o),
(1235,1674,o),
(1235,1630,cs),
(1235,1580,o),
(1256,1538,o),
(1307,1538,cs),
(1510,1538,l),
(1510,963,l),
(578,963,l),
(578,1538,l),
(781,1538,ls),
(832,1538,o),
(852,1580,o),
(852,1630,cs),
(852,1674,o),
(826,1714,o),
(779,1714,cs),
(144,1714,ls),
(97,1714,o),
(70,1674,o),
(70,1630,cs),
(70,1580,o),
(91,1538,o),
(142,1538,cs),
(344,1538,l),
(344,176,l),
(121,176,ls),
(70,176,o),
(49,134,o),
(49,84,cs),
(49,40,o),
(76,0,o),
(123,0,cs)
);
}
);
width = 2046;
}
);
unicode = 72;
},
{
glyphname = Hbar;
kernLeft = H;
kernRight = H;
lastChange = "2024-05-02 12:22:03 +0000";
layers = (
{
background = {
shapes = (
{
closed = 1;
nodes = (
(565,1170,l),
(565,963,l),
(1497,963,l),
(1497,1170,l)
);
},
{
closed = 1;
nodes = (
(36,134,o),
(57,176,o),
(108,176,cs),
(331,176,l),
(331,1170,l),
(187,1170,ls),
(131.003,1170,o),
(104,1210,o),
(104,1249,cs),
(104,1287,o),
(130.003,1325,o),
(181,1325,cs),
(331,1325,l),
(331,1538,l),
(129,1538,ls),
(78,1538,o),
(57,1580,o),
(57,1630,cs),
(57,1674,o),
(84,1714,o),
(131,1714,cs),
(766,1714,ls),
(813,1714,o),
(839,1674,o),
(839,1630,cs),
(839,1580,o),
(819,1538,o),
(768,1538,cs),
(565,1538,l),
(565,1325,l),
(1497,1325,l),
(1497,1538,l),
(1294,1538,ls),
(1243,1538,o),
(1222,1580,o),
(1222,1630,cs),
(1222,1674,o),
(1249,1714,o),
(1296,1714,cs),
(1910,1714,ls),
(1957,1714,o),
(1984,1674,o),
(1984,1630,cs),
(1984,1580,o),
(1963,1538,o),
(1912,1538,cs),
(1730,1538,l),
(1730,1325,l),
(1871.5,1325,ls),
(1919.5,1325,o),
(1943.5,1287,o),
(1943.5,1249,cs),
(1943.5,1210,o),
(1918.5,1170,o),
(1869.5,1170,cs),
(1730,1170,l),
(1730,176,l),
(1912,176,ls),
(1963,176,o),
(1984,134,o),
(1984,84,cs),
(1984,40,o),
(1957,0,o),
(1910,0,cs),
(1296,0,ls),
(1249,0,o),
(1222,40,o),
(1222,84,cs),
(1222,134,o),
(1243,176,o),
(1294,176,cs),
(1497,176,l),
(1497,788,l),
(565,788,l),
(565,176,l),
(768,176,ls),
(819,176,o),
(839,134,o),
(839,84,cs),
(839,40,o),
(813,0,o),
(766,0,cs),
(110,0,ls),
(63,0,o),
(36,40,o),
(36,84,cs)
);
}
);
};
layerId = m001;
shapes = (
{
closed = 1;
nodes = (
(766,0,ls),
(813,0,o),
(839,40,o),
(839,84,cs),
(839,134,o),
(819,176,o),
(768,176,cs),
(565,176,l),
(565,788,l),
(1497,788,l),
(1497,176,l),
(1294,176,ls),
(1243,176,o),
(1222,134,o),
(1222,84,cs),
(1222,40,o),
(1249,0,o),
(1296,0,cs),
(1910,0,ls),
(1957,0,o),
(1984,40,o),
(1984,84,cs),
(1984,134,o),
(1963,176,o),
(1912,176,cs),
(1730,176,l),
(1730,1170,l),
(1870,1170,ls),
(1919,1170,o),
(1944,1210,o),
(1944,1249,cs),
(1944,1287,o),
(1920,1325,o),
(1872,1325,cs),
(1730,1325,l),
(1730,1538,l),
(1912,1538,ls),
(1963,1538,o),
(1984,1580,o),
(1984,1630,cs),
(1984,1674,o),
(1957,1714,o),
(1910,1714,cs),
(1296,1714,ls),
(1249,1714,o),
(1222,1674,o),
(1222,1630,cs),
(1222,1580,o),
(1243,1538,o),
(1294,1538,cs),
(1497,1538,l),
(1497,1325,l),
(565,1325,l),
(565,1538,l),
(768,1538,ls),
(819,1538,o),
(839,1580,o),
(839,1630,cs),
(839,1674,o),
(813,1714,o),
(766,1714,cs),
(131,1714,ls),
(84,1714,o),
(57,1674,o),
(57,1630,cs),
(57,1580,o),
(78,1538,o),
(129,1538,cs),
(331,1538,l),
(331,1325,l),
(181,1325,ls),
(130,1325,o),
(104,1287,o),
(104,1249,cs),
(104,1210,o),
(131,1170,o),
(187,1170,cs),
(331,1170,l),
(331,176,l),
(108,176,ls),
(57,176,o),
(36,134,o),
(36,84,cs),
(36,40,o),
(63,0,o),
(110,0,cs)
);
},
{
closed = 1;
nodes = (
(565,1170,l),
(1497,1170,l),
(1497,963,l),
(565,963,l)
);
}
);
width = 2020;
}
);
unicode = 294;
},
{
glyphname = Hcircumflex;
kernLeft = H;
kernRight = H;
lastChange = "2024-05-02 12:22:03 +0000";
layers = (
{
background = {
shapes = (
{
closed = 1;
nodes = (
(49,134,o),
(70,176,o),
(121,176,cs),
(344,176,l),
(344,1538,l),
(142,1538,ls),
(91,1538,o),
(70,1580,o),
(70,1630,cs),
(70,1674,o),
(97,1714,o),
(144,1714,cs),
(779,1714,ls),
(826,1714,o),
(852,1674,o),
(852,1630,cs),
(852,1580,o),
(832,1538,o),
(781,1538,cs),
(578,1538,l),
(578,963,l),
(1510,963,l),
(1510,1538,l),
(1307,1538,ls),
(1256,1538,o),
(1235,1580,o),
(1235,1630,cs),
(1235,1674,o),
(1262,1714,o),
(1309,1714,cs),
(1923,1714,ls),
(1970,1714,o),
(1997,1674,o),
(1997,1630,cs),
(1997,1580,o),
(1976,1538,o),
(1925,1538,cs),
(1743,1538,l),
(1743,176,l),
(1925,176,ls),
(1976,176,o),
(1997,134,o),
(1997,84,cs),
(1997,40,o),
(1970,0,o),
(1923,0,cs),
(1309,0,ls),
(1262,0,o),
(1235,40,o),
(1235,84,cs),
(1235,134,o),
(1256,176,o),
(1307,176,cs),
(1510,176,l),
(1510,788,l),
(578,788,l),
(578,176,l),
(781,176,ls),
(832,176,o),
(852,134,o),
(852,84,cs),
(852,40,o),
(826,0,o),
(779,0,cs),
(123,0,ls),
(76,0,o),
(49,40,o),
(49,84,cs)
);
},
{
closed = 1;
nodes = (
(1064,2426,o),
(1083,2420,o),
(1091,2409,cs),
(1361,1995,l),
(1368,1987,o),
(1371,1978,o),
(1371,1970,cs),
(1371,1946,o),
(1344,1927,o),
(1317,1927,cs),
(1305,1927,o),
(1291,1929,o),
(1283,1940,cs),
(1045,2246,l),
(807,1940,ls),
(799,1929,o),
(785,1927,o),
(773,1927,cs),
(746,1927,o),
(719,1946,o),
(719,1970,cs),
(719,1978,o),
(722,1987,o),
(729,1995,c),
(999,2409,ls),
(1007,2420,o),
(1026,2426,o),
(1045,2426,cs)
);
}
);
};
layerId = m001;
shapes = (
{
ref = H;
},
{
pos = (727,554);
ref = circumflexcomb;
}
);
width = 2046;
}
);
unicode = 292;
},
{
glyphname = I;
kernLeft = H;
kernRight = H;
lastChange = "2024-05-02 12:22:03 +0000";
layers = (
{
anchors = (
{
name = bottom;
pos = (504,0);
},
{
name = ogonek;
pos = (907,10);
},
{
name = top;
pos = (504,1714);
},
{
name = topleft;
pos = (20,1714);
}
);
background = {
shapes = (
{
closed = 1;
nodes = (
(74,134,o),
(94,176,o),
(145,176,cs),
(389,176,l),
(389,1538,l),
(145,1538,ls),
(94,1538,o),
(74,1580,o),
(74,1630,cs),
(74,1674,o),
(100,1714,o),
(147,1714,cs),
(864,1714,ls),
(911,1714,o),
(938,1674,o),
(938,1630,cs),
(938,1580,o),
(917,1538,o),
(866,1538,cs),
(623,1538,l),
(623,176,l),
(866,176,ls),
(917,176,o),
(938,134,o),
(938,84,cs),
(938,40,o),
(911,0,o),
(864,0,cs),
(147,0,ls),
(100,0,o),
(74,40,o),
(74,84,cs)
);
}
);
};
layerId = m001;
shapes = (
{
closed = 1;
nodes = (
(864,0,ls),
(911,0,o),
(938,40,o),
(938,84,cs),
(938,134,o),
(917,176,o),
(866,176,cs),
(623,176,l),
(623,1538,l),
(866,1538,ls),
(917,1538,o),
(938,1580,o),
(938,1630,cs),
(938,1674,o),
(911,1714,o),
(864,1714,cs),
(147,1714,ls),
(100,1714,o),
(74,1674,o),
(74,1630,cs),
(74,1580,o),
(94,1538,o),
(145,1538,cs),
(389,1538,l),
(389,176,l),
(145,176,ls),
(94,176,o),
(74,134,o),
(74,84,cs),
(74,40,o),
(100,0,o),
(147,0,cs)
);
}
);
width = 1008;
}
);
unicode = 73;
},
{
glyphname = IJ;
kernLeft = H;
kernRight = J;
lastChange = "2024-05-02 12:22:03 +0000";
layers = (
{
background = {
shapes = (
{
closed = 1;
nodes = (
(74,134,o),
(94,176,o),
(145,176,cs),
(389,176,l),
(389,1538,l),
(145,1538,ls),
(94,1538,o),
(74,1580,o),
(74,1630,cs),
(74,1674,o),
(100,1714,o),
(147,1714,cs),
(864,1714,ls),
(911,1714,o),
(938,1674,o),
(938,1630,cs),
(938,1580,o),
(917,1538,o),
(866,1538,cs),
(623,1538,l),
(623,176,l),
(866,176,ls),
(917,176,o),
(938,134,o),
(938,84,cs),
(938,40,o),
(911,0,o),
(864,0,cs),
(147,0,ls),
(100,0,o),
(74,40,o),
(74,84,cs)
);
},
{
closed = 1;
nodes = (
(1973,24,o),
(1753,-158,o),
(1469,-158,cs),
(1265,-158,o),
(1093,-47,o),
(1093,93,cs),
(1093,226,ls),
(1093,303,o),
(1126,343,o),
(1210,343,cs),
(1274,343,o),
(1331,311,o),
(1331,249,cs),
(1331,122,l),
(1332,73,o),
(1402,31,o),
(1484,31,cs),
(1600,31,o),
(1740,123,o),
(1740,417,cs),
(1740,1538,l),
(1418,1538,ls),
(1367,1538,o),
(1347,1580,o),
(1347,1630,cs),
(1347,1674,o),
(1373,1714,o),
(1420,1714,cs),
(2236,1714,ls),
(2283,1714,o),
(2309,1674,o),
(2309,1630,cs),
(2309,1580,o),
(2289,1538,o),
(2238,1538,cs),
(1973,1538,l),
(1973,443,ls)
);
}
);
};
layerId = m001;
shapes = (
{
ref = I;
},
{
pos = (1008,0);
ref = J;
}
);
width = 2341;
}
);
unicode = 306;
},
{
glyphname = Iacute;
kernLeft = H;
kernRight = H;
lastChange = "2024-05-02 12:22:03 +0000";
layers = (
{
background = {
shapes = (
{
closed = 1;
nodes = (
(74,134,o),
(94,176,o),
(145,176,cs),
(389,176,l),
(389,1538,l),
(145,1538,ls),
(94,1538,o),
(74,1580,o),
(74,1630,cs),
(74,1674,o),
(100,1714,o),
(147,1714,cs),
(864,1714,ls),
(911,1714,o),
(938,1674,o),
(938,1630,cs),
(938,1580,o),
(917,1538,o),
(866,1538,cs),
(623,1538,l),
(623,176,l),
(866,176,ls),
(917,176,o),
(938,134,o),
(938,84,cs),
(938,40,o),
(911,0,o),
(864,0,cs),
(147,0,ls),
(100,0,o),
(74,40,o),
(74,84,cs)
);
},
{
closed = 1;
nodes = (
(1016,2364,o),
(1058,2321,o),
(1058,2280,cs),
(1058,2262,o),
(1050,2247,o),
(1032,2235,cs),
(874,2136,o),
(697,2021,o),
(534,1928,cs),
(527,1924,o),
(520,1921,o),
(515,1921,cs),
(489,1921,o),
(466,1948,o),
(466,1973,cs),
(466,1987,o),
(472,1996,o),
(483,2003,cs),
(633,2103,o),
(797,2232,o),
(933,2349,cs),
(944,2359,o),
(958,2364,o),
(974,2364,cs)
);
}
);
};
layerId = m001;
shapes = (
{
ref = I;
},
{
pos = (459,554);
ref = acutecomb;
}
);
width = 1008;
}
);
unicode = 205;
},
{
glyphname = Ibreve;
kernLeft = H;
kernRight = H;
lastChange = "2024-05-02 12:22:03 +0000";
layers = (
{
background = {
shapes = (
{
closed = 1;
nodes = (
(74,134,o),
(94,176,o),
(145,176,cs),
(389,176,l),
(389,1538,l),
(145,1538,ls),
(94,1538,o),
(74,1580,o),
(74,1630,cs),
(74,1674,o),
(100,1714,o),
(147,1714,cs),
(864,1714,ls),
(911,1714,o),
(938,1674,o),
(938,1630,cs),
(938,1580,o),
(917,1538,o),
(866,1538,cs),
(623,1538,l),
(623,176,l),
(866,176,ls),
(917,176,o),
(938,134,o),
(938,84,cs),
(938,40,o),
(911,0,o),
(864,0,cs),
(147,0,ls),
(100,0,o),
(74,40,o),
(74,84,cs)
);
},
{
closed = 1;
nodes = (
(348,2141,o),
(429,2081,o),
(510,2081,cs),
(591,2081,o),
(672,2141,o),
(718,2261,cs),
(724,2277,o),
(738,2282,o),
(751,2282,cs),
(777,2282,o),
(806,2257,o),
(806,2235,cs),
(806,2024,o),
(658,1918,o),
(510,1918,cs),
(362,1918,o),
(214,2024,o),
(214,2235,cs),
(214,2257,o),
(243,2282,o),
(269,2282,cs),
(282,2282,o),
(296,2277,o),
(302,2261,cs)
);
}
);
};
layerId = m001;
shapes = (
{
ref = I;
},
{
pos = (208,554);
ref = brevecomb;
}
);
width = 1008;
}
);
unicode = 300;
},
{
glyphname = Icircumflex;
kernLeft = H;
kernRight = H;
lastChange = "2024-05-02 12:22:03 +0000";
layers = (
{
background = {
shapes = (
{
closed = 1;
nodes = (
(74,134,o),
(94,176,o),
(145,176,cs),
(389,176,l),
(389,1538,l),
(145,1538,ls),
(94,1538,o),
(74,1580,o),
(74,1630,cs),
(74,1674,o),
(100,1714,o),
(147,1714,cs),
(864,1714,ls),
(911,1714,o),
(938,1674,o),
(938,1630,cs),
(938,1580,o),
(917,1538,o),
(866,1538,cs),
(623,1538,l),
(623,176,l),
(866,176,ls),
(917,176,o),
(938,134,o),
(938,84,cs),
(938,40,o),
(911,0,o),
(864,0,cs),
(147,0,ls),
(100,0,o),
(74,40,o),
(74,84,cs)
);
},
{
closed = 1;
nodes = (
(532,2426,o),
(551,2420,o),
(559,2409,cs),
(829,1995,l),
(836,1987,o),
(839,1978,o),
(839,1970,cs),
(839,1946,o),
(812,1927,o),
(785,1927,cs),
(773,1927,o),
(759,1929,o),
(751,1940,cs),
(513,2246,l),
(275,1940,ls),
(267,1929,o),
(253,1927,o),
(241,1927,cs),
(214,1927,o),
(187,1946,o),
(187,1970,cs),
(187,1978,o),
(190,1987,o),
(197,1995,c),
(467,2409,ls),
(475,2420,o),
(494,2426,o),
(513,2426,cs)
);
}
);
};
layerId = m001;
shapes = (
{
ref = I;
},
{
pos = (208,554);
ref = circumflexcomb;
}
);
width = 1008;
}
);
unicode = 206;
},
{
glyphname = Idblgrave;
kernLeft = H;
kernRight = H;
lastChange = "2024-05-02 12:22:03 +0000";
layers = (
{
background = {
shapes = (
{
closed = 1;
nodes = (
(74,134,o),
(94,176,o),
(145,176,cs),
(389,176,l),
(389,1538,l),
(145,1538,ls),
(94,1538,o),
(74,1580,o),
(74,1630,cs),
(74,1674,o),
(100,1714,o),
(147,1714,cs),
(864,1714,ls),
(911,1714,o),
(938,1674,o),
(938,1630,cs),
(938,1580,o),
(917,1538,o),
(866,1538,cs),
(623,1538,l),
(623,176,l),
(866,176,ls),
(917,176,o),
(938,134,o),
(938,84,cs),
(938,40,o),
(911,0,o),
(864,0,cs),
(147,0,ls),
(100,0,o),
(74,40,o),
(74,84,cs)
);
},
{
closed = 1;
nodes = (
(238,2364,o),
(196,2321,o),
(196,2280,cs),
(196,2262,o),
(204,2247,o),
(222,2235,cs),
(380,2136,o),
(557,2021,o),
(720,1928,cs),
(727,1924,o),
(734,1921,o),
(739,1921,cs),
(765,1921,o),
(788,1948,o),
(788,1973,cs),
(788,1987,o),
(782,1996,o),
(771,2003,cs),
(621,2103,o),
(457,2232,o),
(321,2349,cs),
(310,2359,o),
(296,2364,o),
(280,2364,cs)
);
},
{
closed = 1;
nodes = (
(-137,2364,o),
(-179,2321,o),
(-179,2280,cs),
(-179,2262,o),
(-170,2247,o),
(-152,2235,cs),
(6,2136,o),
(182,2021,o),
(345,1928,cs),
(352,1924,o),
(359,1921,o),
(364,1921,cs),
(390,1921,o),
(413,1948,o),
(413,1973,cs),
(413,1987,o),
(407,1996,o),
(396,2003,cs),
(246,2103,o),
(82,2232,o),
(-54,2349,cs),
(-65,2359,o),
(-79,2364,o),
(-95,2364,cs)
);
}
);
};
layerId = m001;
shapes = (
{
ref = I;
},
{
pos = (-189,494);
ref = dblgravecomb;
}
);
width = 1008;
}
);
unicode = 520;
},
{
glyphname = Idieresis;
kernLeft = H;
kernRight = H;
lastChange = "2024-05-02 12:22:03 +0000";
layers = (
{
background = {
shapes = (
{
closed = 1;
nodes = (
(74,134,o),
(94,176,o),
(145,176,cs),
(389,176,l),
(389,1538,l),
(145,1538,ls),
(94,1538,o),
(74,1580,o),
(74,1630,cs),
(74,1674,o),
(100,1714,o),
(147,1714,cs),
(864,1714,ls),
(911,1714,o),
(938,1674,o),
(938,1630,cs),
(938,1580,o),
(917,1538,o),
(866,1538,cs),
(623,1538,l),
(623,176,l),
(866,176,ls),
(917,176,o),
(938,134,o),
(938,84,cs),
(938,40,o),
(911,0,o),
(864,0,cs),
(147,0,ls),
(100,0,o),
(74,40,o),
(74,84,cs)
);
},
{
closed = 1;
nodes = (
(203,1926,o),
(142,1986,o),
(142,2059,cs),
(142,2132,o),
(203,2192,o),
(276,2192,cs),
(349,2192,o),
(409,2132,o),
(409,2059,cs),
(409,1986,o),
(349,1926,o),
(276,1926,cs)
);
},
{
closed = 1;
nodes = (
(694,1926,o),
(634,1986,o),
(634,2059,cs),
(634,2132,o),
(694,2192,o),
(767,2192,cs),
(840,2192,o),
(900,2132,o),
(900,2059,cs),
(900,1986,o),
(840,1926,o),
(767,1926,cs)
);
}
);
};
layerId = m001;
shapes = (
{
ref = I;
},
{
pos = (70,494);
ref = dieresiscomb;
}
);
width = 1008;
}
);
unicode = 207;
},
{
glyphname = Idotaccent;
kernLeft = H;
kernRight = H;
lastChange = "2024-05-02 12:22:03 +0000";
layers = (
{
background = {
shapes = (
{
closed = 1;
nodes = (
(74,134,o),
(94,176,o),
(145,176,cs),
(389,176,l),
(389,1538,l),
(145,1538,ls),
(94,1538,o),
(74,1580,o),
(74,1630,cs),
(74,1674,o),
(100,1714,o),
(147,1714,cs),
(864,1714,ls),
(911,1714,o),
(938,1674,o),
(938,1630,cs),
(938,1580,o),
(917,1538,o),
(866,1538,cs),
(623,1538,l),
(623,176,l),
(866,176,ls),
(917,176,o),
(938,134,o),
(938,84,cs),
(938,40,o),
(911,0,o),
(864,0,cs),
(147,0,ls),
(100,0,o),
(74,40,o),
(74,84,cs)
);
},
{
closed = 1;
nodes = (
(656,1981,o),
(596,1902,o),
(507,1902,cs),
(410,1902,o),
(357,1981,o),
(357,2058,cs),
(357,2131,o),
(405,2203,o),
(509,2203,cs),
(601,2203,o),
(656,2132,o),
(656,2058,cs)
);
}
);
};
layerId = m001;
shapes = (
{
ref = I;
},
{
pos = (353,554);
ref = dotaccentcomb;
}
);
width = 1008;
}
);
unicode = 304;
},
{
glyphname = Igrave;
kernLeft = H;
kernRight = H;
lastChange = "2024-07-31 14:33:50 +0000";
layers = (
{
background = {
shapes = (
{
closed = 1;
nodes = (
(74,134,o),
(94,176,o),
(145,176,cs),
(389,176,l),
(389,1538,l),
(145,1538,ls),
(94,1538,o),
(74,1580,o),
(74,1630,cs),
(74,1674,o),
(100,1714,o),
(147,1714,cs),
(864,1714,ls),
(911,1714,o),
(938,1674,o),
(938,1630,cs),
(938,1580,o),
(917,1538,o),
(866,1538,cs),
(623,1538,l),
(623,176,l),
(866,176,ls),
(917,176,o),
(938,134,o),
(938,84,cs),
(938,40,o),
(911,0,o),
(864,0,cs),
(147,0,ls),
(100,0,o),
(74,40,o),
(74,84,cs)
);
},
{
closed = 1;
nodes = (
(572,1948,o),
(549,1921,o),
(523,1921,cs),
(516,1921,o),
(510,1924,o),
(505,1928,cs),
(343,2021,o),
(164,2137,o),
(7,2235,cs),
(-11,2247,o),
(-20,2262,o),
(-20,2280,cs),
(-20,2321,o),
(22,2364,o),
(64,2364,cs),
(80,2364,o),
(94,2359,o),
(105,2349,cs),
(241,2232,o),
(406,2103,o),
(556,2003,cs),
(567,1996,o),
(572,1987,o),
(572,1973,cs)
);
}
);
};
layerId = m001;
shapes = (
{
ref = I;
},
{
pos = (29,554);
ref = gravecomb;
}
);
width = 1008;
}
);
unicode = 204;
},
{
glyphname = Iinvertedbreve;
kernLeft = H;
kernRight = H;
lastChange = "2024-05-02 12:22:03 +0000";
layers = (
{
background = {
shapes = (
{
closed = 1;
nodes = (
(74,134,o),
(94,176,o),
(145,176,cs),
(389,176,l),
(389,1538,l),
(145,1538,ls),
(94,1538,o),
(74,1580,o),
(74,1630,cs),
(74,1674,o),
(100,1714,o),
(147,1714,cs),
(864,1714,ls),
(911,1714,o),
(938,1674,o),
(938,1630,cs),
(938,1580,o),
(917,1538,o),
(866,1538,cs),
(623,1538,l),
(623,176,l),
(866,176,ls),
(917,176,o),
(938,134,o),
(938,84,cs),
(938,40,o),
(911,0,o),
(864,0,cs),
(147,0,ls),
(100,0,o),
(74,40,o),
(74,84,cs)
);
},
{
closed = 1;
nodes = (
(247,1876,o),
(220,1893,o),
(220,1917,cs),
(220,2129,o),
(368,2239,o),
(516,2239,cs),
(664,2239,o),
(812,2128,o),
(812,1917,cs),
(812,1893,o),
(785,1876,o),
(759,1876,cs),
(741,1876,o),
(723,1884,o),
(716,1904,cs),
(670,2025,o),
(597,2077,o),
(516,2077,cs),
(435,2077,o),
(362,2025,o),
(316,1904,cs),
(309,1884,o),
(291,1876,o),
(273,1876,cs)
);
}
);
};
layerId = m001;
shapes = (
{
ref = I;
},
{
pos = (208,554);
ref = breveinvertedcomb;
}
);
width = 1008;
}
);
unicode = 522;
},
{
glyphname = Imacron;
kernLeft = H;
kernRight = H;
lastChange = "2024-05-02 12:22:03 +0000";
layers = (
{
background = {
shapes = (
{
closed = 1;
nodes = (
(74,134,o),
(94,176,o),
(145,176,cs),
(389,176,l),
(389,1538,l),
(145,1538,ls),
(94,1538,o),
(74,1580,o),
(74,1630,cs),
(74,1674,o),
(100,1714,o),
(147,1714,cs),
(864,1714,ls),
(911,1714,o),
(938,1674,o),
(938,1630,cs),
(938,1580,o),
(917,1538,o),
(866,1538,cs),
(623,1538,l),
(623,176,l),
(866,176,ls),
(917,176,o),
(938,134,o),
(938,84,cs),
(938,40,o),
(911,0,o),
(864,0,cs),
(147,0,ls),
(100,0,o),
(74,40,o),
(74,84,cs)
);
},
{
closed = 1;
nodes = (
(253,1976,ls),
(198,1976,o),
(171,2016,o),
(171,2055,cs),
(171,2094,o),
(197,2132,o),
(247,2132,cs),
(785,2132,ls),
(833,2132,o),
(857,2094,o),
(857,2055,cs),
(857,2016,o),
(832,1976,o),
(783,1976,cs)
);
}
);
};
layerId = m001;
shapes = (
{
ref = I;
},
{
pos = (-9,494);
ref = macroncomb;
}
);
width = 1008;
}
);
unicode = 298;
},
{
glyphname = Iogonek;
kernLeft = H;
kernRight = H;
lastChange = "2024-05-02 12:22:03 +0000";
layers = (
{
background = {
shapes = (
{
closed = 1;
nodes = (
(74,134,o),
(94,176,o),
(145,176,cs),
(389,176,l),
(389,1538,l),
(145,1538,ls),
(94,1538,o),
(74,1580,o),
(74,1630,cs),
(74,1674,o),
(100,1714,o),
(147,1714,cs),
(864,1714,ls),
(911,1714,o),
(938,1674,o),
(938,1630,cs),
(938,1580,o),
(917,1538,o),
(866,1538,cs),
(623,1538,l),
(623,176,l),
(866,176,ls),
(917,176,o),
(938,134,o),
(938,84,cs),
(938,40,o),
(911,0,o),
(864,0,cs),
(147,0,ls),
(100,0,o),
(74,40,o),
(74,84,cs)
);
},
{
closed = 1;
nodes = (
(636,-516,o),
(566,-473,o),
(566,-358,cs),
(566,-286,o),
(632,-111,o),
(802,30,c),
(881,30,ls),
(890,30,o),
(770,-162,o),
(770,-257,cs),
(770,-368,o),
(907,-343,o),
(907,-403,cs),
(907,-454,o),
(822,-516,o),
(728,-516,cs)
);
}
);
};
layerId = m001;
shapes = (
{
ref = I;
},
{
pos = (594,0);
ref = ogonekcomb;
}
);
width = 1008;
}
);
unicode = 302;
},
{
glyphname = Itilde;
kernLeft = H;
kernRight = H;
lastChange = "2024-05-02 12:22:03 +0000";
layers = (
{
background = {
shapes = (
{
closed = 1;
nodes = (
(74,134,o),
(94,176,o),
(145,176,cs),
(389,176,l),
(389,1538,l),
(145,1538,ls),
(94,1538,o),
(74,1580,o),
(74,1630,cs),
(74,1674,o),
(100,1714,o),
(147,1714,cs),
(864,1714,ls),
(911,1714,o),
(938,1674,o),
(938,1630,cs),
(938,1580,o),
(917,1538,o),
(866,1538,cs),
(623,1538,l),
(623,176,l),
(866,176,ls),
(917,176,o),
(938,134,o),
(938,84,cs),
(938,40,o),
(911,0,o),
(864,0,cs),
(147,0,ls),
(100,0,o),
(74,40,o),
(74,84,cs)
);
},
{
closed = 1;
nodes = (
(139,2189,o),
(223,2299,o),
(329,2299,cs),
(484,2299,o),
(600,2157,o),
(656,2157,cs),
(745,2157,o),
(748,2299,o),
(797,2299,cs),
(836,2299,o),
(870,2281,o),
(870,2245,cs),
(870,2090,o),
(770,1981,o),
(644,1981,cs),
(528,1981,o),
(415,2122,o),
(338,2122,cs),
(253,2122,o),
(253,1981,o),
(212,1981,cs),
(173,1981,o),
(139,1998,o),
(139,2034,cs)
);
}
);
};
layerId = m001;
shapes = (
{
ref = I;
},
{
pos = (-3,494);
ref = tildecomb;
}
);
width = 1008;
}
);
unicode = 296;
},
{
glyphname = J;
kernLeft = J;
kernRight = J;
lastChange = "2024-05-02 12:22:03 +0000";
layers = (
{
anchors = (
{
name = bottom;
pos = (667,0);
},
{
name = top;
pos = (837,1714);
}
);
background = {
shapes = (
{
closed = 1;
nodes = (
(965,24,o),
(745,-158,o),
(461,-158,cs),
(257,-158,o),
(85,-47,o),
(85,93,cs),
(85,226,ls),
(85,303,o),
(118,343,o),
(202,343,cs),
(266,343,o),
(323,311,o),
(323,249,cs),
(323,122,l),
(324,73,o),
(394,31,o),
(476,31,cs),
(592,31,o),
(732,123,o),
(732,417,cs),
(732,1538,l),
(410,1538,ls),
(359,1538,o),
(339,1580,o),
(339,1630,cs),
(339,1674,o),
(365,1714,o),
(412,1714,cs),
(1228,1714,ls),
(1275,1714,o),
(1301,1674,o),
(1301,1630,cs),
(1301,1580,o),
(1281,1538,o),
(1230,1538,cs),
(965,1538,l),
(965,443,ls)
);
}
);
};
layerId = m001;
shapes = (
{
closed = 1;
nodes = (
(745,-158,o),
(965,24,o),
(965,443,cs),
(965,1538,l),
(1230,1538,ls),
(1281,1538,o),
(1301,1580,o),
(1301,1630,cs),
(1301,1674,o),
(1275,1714,o),
(1228,1714,cs),
(412,1714,ls),
(365,1714,o),
(339,1674,o),
(339,1630,cs),
(339,1580,o),
(359,1538,o),
(410,1538,cs),
(732,1538,l),
(732,417,ls),
(732,123,o),
(592,31,o),
(476,31,cs),
(394,31,o),
(324,73,o),
(323,122,c),
(323,249,ls),
(323,311,o),
(266,343,o),
(202,343,cs),
(118,343,o),
(85,303,o),
(85,226,cs),
(85,93,ls),
(85,-47,o),
(257,-158,o),
(461,-158,cs)
);
}
);
width = 1333;
}
);
unicode = 74;
},
{
glyphname = Jcircumflex;
kernLeft = J;
kernRight = J;
lastChange = "2024-05-02 12:22:03 +0000";
layers = (
{
background = {
shapes = (
{
closed = 1;
nodes = (
(965,24,o),
(745,-158,o),
(461,-158,cs),
(257,-158,o),
(85,-47,o),
(85,93,cs),
(85,226,ls),
(85,303,o),
(118,343,o),
(202,343,cs),
(266,343,o),
(323,311,o),
(323,249,cs),
(323,122,l),
(324,73,o),
(394,31,o),
(476,31,cs),
(592,31,o),
(732,123,o),
(732,417,cs),
(732,1538,l),
(410,1538,ls),
(359,1538,o),
(339,1580,o),
(339,1630,cs),
(339,1674,o),
(365,1714,o),
(412,1714,cs),
(1228,1714,ls),
(1275,1714,o),
(1301,1674,o),
(1301,1630,cs),
(1301,1580,o),
(1281,1538,o),
(1230,1538,cs),
(965,1538,l),
(965,443,ls)
);
},
{
closed = 1;
nodes = (
(852,2426,o),
(871,2420,o),
(879,2409,cs),
(1149,1995,l),
(1156,1987,o),
(1159,1978,o),
(1159,1970,cs),
(1159,1946,o),
(1132,1927,o),
(1105,1927,cs),
(1093,1927,o),
(1079,1929,o),
(1071,1940,cs),
(833,2246,l),
(595,1940,ls),
(587,1929,o),
(573,1927,o),
(561,1927,cs),
(534,1927,o),
(507,1946,o),
(507,1970,cs),
(507,1978,o),
(510,1987,o),
(517,1995,c),
(787,2409,ls),
(795,2420,o),
(814,2426,o),
(833,2426,cs)
);
}
);
};
layerId = m001;
shapes = (
{
ref = J;
},
{
pos = (541,554);
ref = circumflexcomb;
}
);
width = 1333;
}
);
unicode = 308;
},
{
glyphname = K;
kernLeft = H;
kernRight = K;
lastChange = "2024-05-02 12:22:03 +0000";
layers = (
{
anchors = (
{
name = bottom;
pos = (1023,0);
},
{
name = top;
pos = (1023,1714);
}
);
background = {
shapes = (
{
closed = 1;
nodes = (
(49,134,o),
(70,176,o),
(121,176,cs),
(340,176,l),
(340,1538,l),
(121,1538,ls),
(70,1538,o),
(49,1580,o),
(49,1630,cs),
(49,1674,o),
(76,1714,o),
(123,1714,cs),
(774,1714,ls),
(821,1714,o),
(848,1674,o),
(848,1630,cs),
(848,1580,o),
(828,1538,o),
(777,1538,cs),
(574,1538,l),
(574,842,l),
(1366,1499,ls),
(1372,1505,o),
(1381,1517,o),
(1381,1530,cs),
(1381,1545,o),
(1370,1552,o),
(1348,1552,cs),
(1278,1552,ls),
(1230,1552,o),
(1207,1578,o),
(1207,1630,cs),
(1207,1674,o),
(1233,1714,o),
(1280,1714,cs),
(1809,1714,ls),
(1856,1714,o),
(1882,1674,o),
(1882,1630,cs),
(1882,1580,o),
(1862,1538,o),
(1811,1538,cs),
(1653,1538,l),
(1047,1016,l),
(1833,176,l),
(1975,176,ls),
(2026,176,o),
(2046,134,o),
(2046,84,cs),
(2046,40,o),
(2020,0,o),
(1973,0,cs),
(1362,0,ls),
(1315,0,o),
(1289,40,o),
(1289,84,cs),
(1289,134,o),
(1309,176,o),
(1360,176,cs),
(1559,176,l),
(897,911,l),
(574,662,l),
(574,176,l),
(858,176,ls),
(909,176,o),
(930,134,o),
(930,84,cs),
(930,40,o),
(903,0,o),
(856,0,cs),
(123,0,ls),
(76,0,o),
(49,40,o),
(49,84,cs)
);
}
);
};
layerId = m001;
shapes = (
{
closed = 1;
nodes = (
(856,0,ls),
(903,0,o),
(930,40,o),
(930,84,cs),
(930,134,o),
(909,176,o),
(858,176,cs),
(574,176,l),
(574,662,l),
(897,911,l),
(1559,176,l),
(1360,176,ls),
(1309,176,o),
(1289,134,o),
(1289,84,cs),
(1289,40,o),
(1315,0,o),
(1362,0,cs),
(1973,0,ls),
(2020,0,o),
(2046,40,o),
(2046,84,cs),
(2046,134,o),
(2026,176,o),
(1975,176,cs),
(1833,176,l),
(1047,1016,l),
(1653,1538,l),
(1811,1538,ls),
(1862,1538,o),
(1882,1580,o),
(1882,1630,cs),
(1882,1674,o),
(1856,1714,o),
(1809,1714,cs),
(1280,1714,ls),
(1233,1714,o),
(1207,1674,o),
(1207,1630,cs),
(1207,1578,o),
(1230,1552,o),
(1278,1552,cs),
(1348,1552,ls),
(1370,1552,o),
(1381,1545,o),
(1381,1530,cs),
(1381,1517,o),
(1372,1505,o),
(1366,1499,cs),
(574,842,l),
(574,1538,l),
(777,1538,ls),
(828,1538,o),
(848,1580,o),
(848,1630,cs),
(848,1674,o),
(821,1714,o),
(774,1714,cs),
(123,1714,ls),
(76,1714,o),
(49,1674,o),
(49,1630,cs),
(49,1580,o),
(70,1538,o),
(121,1538,cs),
(340,1538,l),
(340,176,l),
(121,176,ls),
(70,176,o),
(49,134,o),
(49,84,cs),
(49,40,o),
(76,0,o),
(123,0,cs)
);
}
);
width = 2045;
}
);
unicode = 75;
},
{
glyphname = Kcommaaccent;
kernLeft = H;
kernRight = K;
lastChange = "2024-05-02 12:22:03 +0000";
layers = (
{
background = {
shapes = (
{
closed = 1;
nodes = (
(49,134,o),
(70,176,o),
(121,176,cs),
(340,176,l),
(340,1538,l),
(121,1538,ls),
(70,1538,o),
(49,1580,o),
(49,1630,cs),
(49,1674,o),
(76,1714,o),
(123,1714,cs),
(774,1714,ls),
(821,1714,o),
(848,1674,o),
(848,1630,cs),
(848,1580,o),
(828,1538,o),
(777,1538,cs),
(574,1538,l),
(574,842,l),
(1366,1499,ls),
(1372,1505,o),
(1381,1517,o),
(1381,1530,cs),
(1381,1545,o),
(1370,1552,o),
(1348,1552,cs),
(1278,1552,ls),
(1230,1552,o),
(1207,1578,o),
(1207,1630,cs),
(1207,1674,o),
(1233,1714,o),
(1280,1714,cs),
(1809,1714,ls),
(1856,1714,o),
(1882,1674,o),
(1882,1630,cs),
(1882,1580,o),
(1862,1538,o),
(1811,1538,cs),
(1653,1538,l),
(1047,1016,l),
(1833,176,l),
(1975,176,ls),
(2026,176,o),
(2046,134,o),
(2046,84,cs),
(2046,40,o),
(2020,0,o),
(1973,0,cs),
(1362,0,ls),
(1315,0,o),
(1289,40,o),
(1289,84,cs),
(1289,134,o),
(1309,176,o),
(1360,176,cs),
(1559,176,l),
(897,911,l),
(574,662,l),
(574,176,l),
(858,176,ls),
(909,176,o),
(930,134,o),
(930,84,cs),
(930,40,o),
(903,0,o),
(856,0,cs),
(123,0,ls),
(76,0,o),
(49,40,o),
(49,84,cs)
);
},
{
closed = 1;
nodes = (
(1137,-122,o),
(1232,-196,o),
(1232,-344,cs),
(1232,-555,o),
(1109,-689,o),
(958,-765,cs),
(942,-774,o),
(925,-778,o),
(911,-778,cs),
(868,-778,o),
(836,-745,o),
(836,-710,cs),
(836,-692,o),
(845,-673,o),
(867,-658,cs),
(944,-607,o),
(1045,-541,o),
(1045,-427,c),
(937,-427,o),
(857,-379,o),
(857,-277,cs),
(857,-174,o),
(939,-122,o),
(1027,-122,cs)
);
}
);
};
layerId = m001;
shapes = (
{
ref = K;
},
{
pos = (774,0);
ref = commaaccentcomb;
}
);
width = 2045;
}
);
unicode = 310;
},
{
glyphname = L;
kernLeft = H;
kernRight = L;
lastChange = "2024-05-02 12:22:03 +0000";
layers = (
{
anchors = (
{
name = bottom;
pos = (926,0);
},
{
name = center;
pos = (926,857);
},
{
name = top;
pos = (504,1714);
},
{
name = topright;
pos = (1222,1714);
}
);
background = {
shapes = (
{
closed = 1;
nodes = (
(951,1580,o),
(930,1538,o),
(879,1538,cs),
(656,1538,l),
(656,176,l),
(1360,176,ls),
(1474,176,o),
(1566,197,o),
(1575,303,c),
(1604,584,ls),
(1609,628,o),
(1639,647,o),
(1686,647,cs),
(1735,647,o),
(1778,620,o),
(1778,567,c),
(1733,68,ls),
(1729,30,o),
(1709,0,o),
(1672,0,cs),
(123,0,ls),
(76,0,o),
(49,40,o),
(49,84,cs),
(49,134,o),
(70,176,o),
(121,176,cs),
(422,176,l),
(422,1538,l),
(183,1538,ls),
(132,1538,o),
(111,1580,o),
(111,1630,cs),
(111,1674,o),
(138,1714,o),
(185,1714,cs),
(877,1714,ls),
(924,1714,o),
(951,1674,o),
(951,1630,cs)
);
}
);
};
layerId = m001;
shapes = (
{
closed = 1;
nodes = (
(1672,0,ls),
(1709,0,o),
(1729,30,o),
(1733,68,cs),
(1778,567,l),
(1778,620,o),
(1735,647,o),
(1686,647,cs),
(1639,647,o),
(1609,628,o),
(1604,584,cs),
(1575,303,l),
(1566,197,o),
(1474,176,o),
(1360,176,cs),
(656,176,l),
(656,1538,l),
(879,1538,ls),
(930,1538,o),
(951,1580,o),
(951,1630,cs),
(951,1674,o),
(924,1714,o),
(877,1714,cs),
(185,1714,ls),
(138,1714,o),
(111,1674,o),
(111,1630,cs),
(111,1580,o),
(132,1538,o),
(183,1538,cs),
(422,1538,l),
(422,176,l),
(121,176,ls),
(70,176,o),
(49,134,o),
(49,84,cs),
(49,40,o),
(76,0,o),
(123,0,cs)
);
}
);
width = 1851;
}
);
unicode = 76;
},
{
glyphname = LJ;
kernLeft = H;
kernRight = J;
lastChange = "2024-05-02 12:22:03 +0000";
layers = (
{
background = {
shapes = (
{
closed = 1;
nodes = (
(2816,24,o),
(2596,-158,o),
(2312,-158,cs),
(2108,-158,o),
(1936,-47,o),
(1936,93,cs),
(1936,226,ls),
(1936,303,o),
(1969,343,o),
(2053,343,cs),
(2117,343,o),
(2174,311,o),
(2174,249,cs),
(2174,122,l),
(2175,73,o),
(2245,31,o),
(2327,31,cs),
(2443,31,o),
(2583,123,o),
(2583,417,cs),
(2583,1538,l),
(2261,1538,ls),
(2210,1538,o),
(2190,1580,o),
(2190,1630,cs),
(2190,1674,o),
(2216,1714,o),
(2263,1714,cs),
(3079,1714,ls),
(3126,1714,o),
(3152,1674,o),
(3152,1630,cs),
(3152,1580,o),
(3132,1538,o),
(3081,1538,cs),
(2816,1538,l),
(2816,443,ls)
);
},
{
closed = 1;
nodes = (
(951,1580,o),
(930,1538,o),
(879,1538,cs),
(656,1538,l),
(656,176,l),
(1360,176,ls),
(1474,176,o),
(1566,197,o),
(1575,303,c),
(1604,584,ls),
(1609,628,o),
(1639,647,o),
(1686,647,cs),
(1735,647,o),
(1778,620,o),
(1778,567,c),
(1733,68,ls),
(1729,30,o),
(1709,0,o),
(1672,0,cs),
(123,0,ls),
(76,0,o),
(49,40,o),
(49,84,cs),
(49,134,o),
(70,176,o),
(121,176,cs),
(422,176,l),
(422,1538,l),
(183,1538,ls),
(132,1538,o),
(111,1580,o),
(111,1630,cs),
(111,1674,o),
(138,1714,o),
(185,1714,cs),
(877,1714,ls),
(924,1714,o),
(951,1674,o),
(951,1630,cs)
);
}
);
};
layerId = m001;
shapes = (
{
ref = L;
},
{
pos = (1851,0);
ref = J;
}
);
width = 3184;
}
);
unicode = 455;
},
{
glyphname = Lacute;
kernLeft = H;
kernRight = L;
lastChange = "2024-05-02 12:22:03 +0000";
layers = (
{
background = {
shapes = (
{
closed = 1;
nodes = (
(951,1580,o),
(930,1538,o),
(879,1538,cs),
(656,1538,l),
(656,176,l),
(1360,176,ls),
(1474,176,o),
(1566,197,o),
(1575,303,c),
(1604,584,ls),
(1609,628,o),
(1639,647,o),
(1686,647,cs),
(1735,647,o),
(1778,620,o),
(1778,567,c),
(1733,68,ls),
(1729,30,o),
(1709,0,o),
(1672,0,cs),
(123,0,ls),
(76,0,o),
(49,40,o),
(49,84,cs),
(49,134,o),
(70,176,o),
(121,176,cs),
(422,176,l),
(422,1538,l),
(183,1538,ls),
(132,1538,o),
(111,1580,o),
(111,1630,cs),
(111,1674,o),
(138,1714,o),
(185,1714,cs),
(877,1714,ls),
(924,1714,o),
(951,1674,o),
(951,1630,cs)
);
},
{
closed = 1;
nodes = (
(1173,2424,o),
(1215,2381,o),
(1215,2340,cs),
(1215,2322,o),
(1207,2307,o),
(1189,2295,cs),
(1031,2196,o),
(854,2081,o),
(691,1988,cs),
(684,1984,o),
(677,1981,o),
(672,1981,cs),
(646,1981,o),
(623,2008,o),
(623,2033,cs),
(623,2047,o),
(629,2056,o),
(640,2063,cs),
(790,2163,o),
(954,2292,o),
(1090,2409,cs),
(1101,2419,o),
(1115,2424,o),
(1131,2424,cs)
);
}
);
};
layerId = m001;
shapes = (
{
ref = L;
},
{
pos = (459,554);
ref = acutecomb;
}
);
width = 1851;
}
);
unicode = 313;
},
{
glyphname = Lcaron;
kernLeft = H;
kernRight = L;
lastChange = "2024-05-02 12:22:03 +0000";
layers = (
{
background = {
shapes = (
{
closed = 1;
nodes = (
(951,1580,o),
(930,1538,o),
(879,1538,cs),
(656,1538,l),
(656,176,l),
(1360,176,ls),
(1474,176,o),
(1566,197,o),
(1575,303,c),
(1604,584,ls),
(1609,628,o),
(1639,647,o),
(1686,647,cs),
(1735,647,o),
(1778,620,o),
(1778,567,c),
(1733,68,ls),
(1729,30,o),
(1709,0,o),
(1672,0,cs),
(123,0,ls),
(76,0,o),
(49,40,o),
(49,84,cs),
(49,134,o),
(70,176,o),
(121,176,cs),
(422,176,l),
(422,1538,l),
(183,1538,ls),
(132,1538,o),
(111,1580,o),
(111,1630,cs),
(111,1674,o),
(138,1714,o),
(185,1714,cs),
(877,1714,ls),
(924,1714,o),
(951,1674,o),
(951,1630,cs)
);
},
{
closed = 1;
nodes = (
(1494,1739,o),
(1589,1665,o),
(1589,1517,cs),
(1589,1306,o),
(1466,1172,o),
(1315,1096,cs),
(1299,1087,o),
(1282,1083,o),
(1268,1083,cs),
(1225,1083,o),
(1193,1116,o),
(1193,1151,cs),
(1193,1169,o),
(1202,1188,o),
(1224,1203,cs),
(1301,1254,o),
(1402,1320,o),
(1402,1434,c),
(1294,1434,o),
(1214,1482,o),
(1214,1584,cs),
(1214,1687,o),
(1296,1739,o),
(1384,1739,cs)
);
}
);
};
layerId = m001;
shapes = (
{
ref = L;
},
{
pos = (999,208);
ref = caroncomb.alt;
}
);
width = 1851;
}
);
unicode = 317;
},
{
glyphname = Lcommaaccent;
kernLeft = H;
kernRight = L;
lastChange = "2024-05-02 12:22:03 +0000";
layers = (
{
background = {
shapes = (
{
closed = 1;
nodes = (
(951,1580,o),
(930,1538,o),
(879,1538,cs),
(656,1538,l),
(656,176,l),
(1360,176,ls),
(1474,176,o),
(1566,197,o),
(1575,303,c),
(1604,584,ls),
(1609,628,o),
(1639,647,o),
(1686,647,cs),
(1735,647,o),
(1778,620,o),
(1778,567,c),
(1733,68,ls),
(1729,30,o),
(1709,0,o),
(1672,0,cs),
(123,0,ls),
(76,0,o),
(49,40,o),
(49,84,cs),
(49,134,o),
(70,176,o),
(121,176,cs),
(422,176,l),
(422,1538,l),
(183,1538,ls),
(132,1538,o),
(111,1580,o),
(111,1630,cs),
(111,1674,o),
(138,1714,o),
(185,1714,cs),
(877,1714,ls),
(924,1714,o),
(951,1674,o),
(951,1630,cs)
);
},
{
closed = 1;
nodes = (
(1003,-122,o),
(1098,-196,o),
(1098,-344,cs),
(1098,-555,o),
(975,-689,o),
(824,-765,cs),
(808,-774,o),
(791,-778,o),
(777,-778,cs),
(734,-778,o),
(702,-745,o),
(702,-710,cs),
(702,-692,o),
(711,-673,o),
(733,-658,cs),
(810,-607,o),
(911,-541,o),
(911,-427,c),
(803,-427,o),
(723,-379,o),
(723,-277,cs),
(723,-174,o),
(805,-122,o),
(893,-122,cs)
);
}
);
};
layerId = m001;
shapes = (
{
ref = L;
},
{
pos = (677,0);
ref = commaaccentcomb;
}
);
width = 1851;
}
);
unicode = 315;
},
{
glyphname = Ldot;
kernLeft = H;
kernRight = L;
lastChange = "2024-05-02 12:22:03 +0000";
layers = (
{
background = {
shapes = (
{
closed = 1;
nodes = (
(951,1580,o),
(930,1538,o),
(879,1538,cs),
(656,1538,l),
(656,176,l),
(1360,176,ls),
(1474,176,o),
(1566,197,o),
(1575,303,c),
(1604,584,ls),
(1609,628,o),
(1639,647,o),
(1686,647,cs),
(1735,647,o),
(1778,620,o),
(1778,567,c),
(1733,68,ls),
(1729,30,o),
(1709,0,o),
(1672,0,cs),
(123,0,ls),
(76,0,o),
(49,40,o),
(49,84,cs),
(49,134,o),
(70,176,o),
(121,176,cs),
(422,176,l),
(422,1538,l),
(183,1538,ls),
(132,1538,o),
(111,1580,o),
(111,1630,cs),
(111,1674,o),
(138,1714,o),
(185,1714,cs),
(877,1714,ls),
(924,1714,o),
(951,1674,o),
(951,1630,cs)
);
},
{
closed = 1;
nodes = (
(1183,889,o),
(1094,979,o),
(1094,1100,cs),
(1094,1222,o),
(1184,1311,o),
(1305,1311,cs),
(1427,1311,o),
(1516,1221,o),
(1516,1100,cs),
(1516,978,o),
(1426,889,o),
(1305,889,cs)
);
}
);
};
layerId = m001;
shapes = (
{
ref = L;
},
{
ref = periodcentered;
}
);
width = 1851;
}
);
unicode = 319;
},
{
glyphname = Lj;
kernLeft = H;
kernRight = j;
lastChange = "2024-05-02 12:22:03 +0000";
layers = (
{
background = {
shapes = (
{
closed = 1;
nodes = (
(951,1580,o),
(930,1538,o),
(879,1538,cs),
(656,1538,l),
(656,176,l),
(1360,176,ls),
(1474,176,o),
(1566,197,o),
(1575,303,c),
(1604,584,ls),
(1609,628,o),
(1639,647,o),
(1686,647,cs),
(1735,647,o),
(1778,620,o),
(1778,567,c),
(1733,68,ls),
(1729,30,o),
(1709,0,o),
(1672,0,cs),
(123,0,ls),
(76,0,o),
(49,40,o),
(49,84,cs),
(49,134,o),
(70,176,o),
(121,176,cs),
(422,176,l),
(422,1538,l),
(183,1538,ls),
(132,1538,o),
(111,1580,o),
(111,1630,cs),
(111,1674,o),
(138,1714,o),
(185,1714,cs),
(877,1714,ls),
(924,1714,o),
(951,1674,o),
(951,1630,cs)
);
},
{
closed = 1;
nodes = (
(2248,-323,o),
(2296,-126,o),
(2296,115,cs),
(2296,983,l),
(2152,944,ls),
(2149,943,o),
(2145,942,o),
(2138,942,cs),
(2098,942,o),
(2056,981,o),
(2056,1022,cs),
(2056,1065,o),
(2075,1096,o),
(2113,1106,cs),
(2433,1186,ls),
(2437,1187,o),
(2442,1188,o),
(2449,1188,cs),
(2479,1188,o),
(2501,1174,o),
(2501,1143,cs),
(2501,115,ls),
(2501,-191,o),
(2413,-496,o),
(2054,-496,cs),
(1899,-496,o),
(1776,-436,o),
(1776,-243,cs),
(1776,-164,o),
(1794,-120,o),
(1874,-120,cs),
(1930,-120,o),
(1964,-157,o),
(1964,-220,c),
(1982,-283,o),
(1940,-323,o),
(2065,-323,cs)
);
},
{
closed = 1;
nodes = (
(2197,1655,o),
(2248,1735,o),
(2324,1735,cs),
(2411,1735,o),
(2484,1680,o),
(2484,1593,cs),
(2484,1507,o),
(2426,1450,o),
(2341,1450,cs),
(2265,1450,o),
(2197,1503,o),
(2197,1579,cs)
);
}
);
};
layerId = m001;
shapes = (
{
ref = L;
},
{
pos = (1851,0);
ref = j;
}
);
width = 2676;
}
);
unicode = 456;
},
{
glyphname = Lslash;
kernLeft = H;
kernRight = L;
lastChange = "2024-05-02 12:22:03 +0000";
layers = (
{
background = {
shapes = (
{
closed = 1;
nodes = (
(970,1580,o),
(949,1538,o),
(898,1538,cs),
(675,1538,l),
(675,1149,l),
(937,1250,l),
(958,1256,o),
(976,1259,o),
(992,1259,cs),
(1042,1259,o),
(1060,1228,o),
(1060,1195,cs),
(1060,1160,o),
(1040,1122,o),
(1016,1115,c),
(675,984,l),
(675,176,l),
(1379,176,ls),
(1493,176,o),
(1585,197,o),
(1594,303,c),
(1623,584,ls),
(1628,628,o),
(1658,647,o),
(1705,647,cs),
(1754,647,o),
(1797,620,o),
(1797,567,c),
(1752,68,ls),
(1748,30,o),
(1728,0,o),
(1691,0,cs),
(142,0,ls),
(95,0,o),
(68,40,o),
(68,84,cs),
(68,134,o),
(89,176,o),
(140,176,cs),
(441,176,l),
(441,893,l),
(310,843,l),
(286,836,o),
(266,833,o),
(249,833,cs),
(197,833,o),
(178,864,o),
(178,897,cs),
(178,931,o),
(197,967,o),
(223,975,c),
(441,1059,l),
(441,1538,l),
(202,1538,ls),
(151,1538,o),
(130,1580,o),
(130,1630,cs),
(130,1674,o),
(157,1714,o),
(204,1714,cs),
(896,1714,ls),
(943,1714,o),
(970,1674,o),
(970,1630,cs)
);
}
);
};
layerId = m001;
shapes = (
{
closed = 1;
nodes = (
(1691,0,ls),
(1728,0,o),
(1748,30,o),
(1752,68,cs),
(1797,567,l),
(1797,620,o),
(1754,647,o),
(1705,647,cs),
(1658,647,o),
(1628,628,o),
(1623,584,cs),
(1594,303,l),
(1585,197,o),
(1493,176,o),
(1379,176,cs),
(675,176,l),
(675,984,l),
(1016,1115,l),
(1040,1122,o),
(1060,1160,o),
(1060,1195,cs),
(1060,1228,o),
(1042,1259,o),
(992,1259,cs),
(976,1259,o),
(958,1256,o),
(937,1250,c),
(675,1149,l),
(675,1538,l),
(898,1538,ls),
(949,1538,o),
(970,1580,o),
(970,1630,cs),
(970,1674,o),
(943,1714,o),
(896,1714,cs),
(204,1714,ls),
(157,1714,o),
(130,1674,o),
(130,1630,cs),
(130,1580,o),
(151,1538,o),
(202,1538,cs),
(441,1538,l),
(441,1059,l),
(223,975,l),
(197,967,o),
(178,931,o),
(178,897,cs),
(178,864,o),
(197,833,o),
(249,833,cs),
(266,833,o),
(286,836,o),
(310,843,c),
(441,893,l),
(441,176,l),
(140,176,ls),
(89,176,o),
(68,134,o),
(68,84,cs),
(68,40,o),
(95,0,o),
(142,0,cs)
);
}
);
width = 1870;
}
);
unicode = 321;
},
{
glyphname = M;
kernLeft = M;
kernRight = M;
lastChange = "2024-05-02 12:22:03 +0000";
layers = (
{
anchors = (
{
name = bottom;
pos = (1222,0);
},
{
name = top;
pos = (1222,1714);
}
);
background = {
shapes = (
{
closed = 1;
nodes = (
(1653,134,o),
(1674,176,o),
(1725,176,cs),
(1907,176,l),
(1907,1235,l),
(1303,102,l),
(1290,67,o),
(1255,37,o),
(1209,37,cs),
(1168,37,o),
(1133,63,o),
(1119,92,cs),
(553,1249,l),
(553,176,l),
(756,176,ls),
(807,176,o),
(828,134,o),
(828,84,cs),
(828,40,o),
(801,0,o),
(754,0,cs),
(123,0,ls),
(76,0,o),
(49,40,o),
(49,84,cs),
(49,134,o),
(70,176,o),
(121,176,cs),
(344,176,l),
(344,1538,l),
(142,1538,ls),
(91,1538,o),
(70,1580,o),
(70,1630,cs),
(70,1674,o),
(97,1714,o),
(144,1714,cs),
(480,1714,ls),
(516,1714,o),
(535,1688,o),
(547,1663,cs),
(1209,328,l),
(1915,1671,ls),
(1927,1694,o),
(1947,1714,o),
(1981,1714,cs),
(2300,1714,ls),
(2347,1714,o),
(2374,1674,o),
(2374,1630,cs),
(2374,1580,o),
(2353,1538,o),
(2302,1538,cs),
(2120,1538,l),
(2120,176,l),
(2323,176,ls),
(2374,176,o),
(2394,134,o),
(2394,84,cs),
(2394,40,o),
(2368,0,o),
(2321,0,cs),
(1727,0,ls),
(1680,0,o),
(1653,40,o),
(1653,84,cs)
);
}
);
};
layerId = m001;
shapes = (
{
closed = 1;
nodes = (
(754,0,ls),
(801,0,o),
(828,40,o),
(828,84,cs),
(828,134,o),
(807,176,o),
(756,176,cs),
(553,176,l),
(553,1249,l),
(1119,92,ls),
(1133,63,o),
(1168,37,o),
(1209,37,cs),
(1255,37,o),
(1290,67,o),
(1303,102,c),
(1907,1235,l),
(1907,176,l),
(1725,176,ls),
(1674,176,o),
(1653,134,o),
(1653,84,cs),
(1653,40,o),
(1680,0,o),
(1727,0,cs),
(2321,0,ls),
(2368,0,o),
(2394,40,o),
(2394,84,cs),
(2394,134,o),
(2374,176,o),
(2323,176,cs),
(2120,176,l),
(2120,1538,l),
(2302,1538,ls),
(2353,1538,o),
(2374,1580,o),
(2374,1630,cs),
(2374,1674,o),
(2347,1714,o),
(2300,1714,cs),
(1981,1714,ls),
(1947,1714,o),
(1927,1694,o),
(1915,1671,cs),
(1209,328,l),
(547,1663,ls),
(535,1688,o),
(516,1714,o),
(480,1714,cs),
(144,1714,ls),
(97,1714,o),
(70,1674,o),
(70,1630,cs),
(70,1580,o),
(91,1538,o),
(142,1538,cs),
(344,1538,l),
(344,176,l),
(121,176,ls),
(70,176,o),
(49,134,o),
(49,84,cs),
(49,40,o),
(76,0,o),
(123,0,cs)
);
}
);
width = 2443;
}
);
unicode = 77;
},
{
glyphname = Mdotaccent;
kernLeft = M;
kernRight = M;
lastChange = "2024-05-02 12:22:03 +0000";
layers = (
{
background = {
shapes = (
{
closed = 1;
nodes = (
(1653,134,o),
(1674,176,o),
(1725,176,cs),
(1907,176,l),
(1907,1235,l),
(1303,102,l),
(1290,67,o),
(1255,37,o),
(1209,37,cs),
(1168,37,o),
(1133,63,o),
(1119,92,cs),
(553,1249,l),
(553,176,l),
(756,176,ls),
(807,176,o),
(828,134,o),
(828,84,cs),
(828,40,o),
(801,0,o),
(754,0,cs),
(123,0,ls),
(76,0,o),
(49,40,o),
(49,84,cs),
(49,134,o),
(70,176,o),
(121,176,cs),
(344,176,l),
(344,1538,l),
(142,1538,ls),
(91,1538,o),
(70,1580,o),
(70,1630,cs),
(70,1674,o),
(97,1714,o),
(144,1714,cs),
(480,1714,ls),
(516,1714,o),
(535,1688,o),
(547,1663,cs),
(1209,328,l),
(1915,1671,ls),
(1927,1694,o),
(1947,1714,o),
(1981,1714,cs),
(2300,1714,ls),
(2347,1714,o),
(2374,1674,o),
(2374,1630,cs),
(2374,1580,o),
(2353,1538,o),
(2302,1538,cs),
(2120,1538,l),
(2120,176,l),
(2323,176,ls),
(2374,176,o),
(2394,134,o),
(2394,84,cs),
(2394,40,o),
(2368,0,o),
(2321,0,cs),
(1727,0,ls),
(1680,0,o),
(1653,40,o),
(1653,84,cs)
);
},
{
closed = 1;
nodes = (
(1371,1981,o),
(1311,1902,o),
(1222,1902,cs),
(1125,1902,o),
(1072,1981,o),
(1072,2058,cs),
(1072,2131,o),
(1120,2203,o),
(1224,2203,cs),
(1316,2203,o),
(1371,2132,o),
(1371,2058,cs)
);
}
);
};
layerId = m001;
shapes = (
{
ref = M;
},
{
pos = (1071,554);
ref = dotaccentcomb;
}
);
width = 2443;
}
);
unicode = 7744;
},
{
glyphname = N;
kernLeft = H;
kernRight = H;
lastChange = "2024-05-02 12:22:03 +0000";
layers = (
{
anchors = (
{
name = bottom;
pos = (1019,0);
},
{
name = top;
pos = (1009,1714);
}
);
background = {
shapes = (
{
closed = 1;
nodes = (
(49,1674,o),
(76,1714,o),
(123,1714,cs),
(586,1714,ls),
(618,1714,o),
(633,1704,o),
(645,1679,c),
(1524,426,l),
(1524,1538,l),
(1344,1538,ls),
(1293,1538,o),
(1272,1580,o),
(1272,1630,cs),
(1272,1674,o),
(1299,1714,o),
(1346,1714,cs),
(1928,1714,ls),
(1975,1714,o),
(2001,1674,o),
(2001,1630,cs),
(2001,1580,o),
(1981,1538,o),
(1930,1538,cs),
(1731,1538,l),
(1731,53,ls),
(1731,2,o),
(1690,-37,o),
(1641,-37,cs),
(1598,-37,o),
(1569,-13,o),
(1549,16,cs),
(531,1456,l),
(531,176,l),
(707,176,ls),
(758,176,o),
(779,134,o),
(779,84,cs),
(779,40,o),
(752,0,o),
(705,0,cs),
(123,0,ls),
(76,0,o),
(49,40,o),
(49,84,cs),
(49,134,o),
(70,176,o),
(121,176,cs),
(320,176,l),
(320,1538,l),
(121,1538,ls),
(70,1538,o),
(49,1580,o),
(49,1630,cs)
);
}
);
};
layerId = m001;
shapes = (
{
closed = 1;
nodes = (
(1690,-37,o),
(1731,2,o),
(1731,53,cs),
(1731,1538,l),
(1930,1538,ls),
(1981,1538,o),
(2001,1580,o),
(2001,1630,cs),
(2001,1674,o),
(1975,1714,o),
(1928,1714,cs),
(1346,1714,ls),
(1299,1714,o),
(1272,1674,o),
(1272,1630,cs),
(1272,1580,o),
(1293,1538,o),
(1344,1538,cs),
(1524,1538,l),
(1524,426,l),
(645,1679,l),
(633,1704,o),
(618,1714,o),
(586,1714,cs),
(123,1714,ls),
(76,1714,o),
(49,1674,o),
(49,1630,cs),
(49,1580,o),
(70,1538,o),
(121,1538,cs),
(320,1538,l),
(320,176,l),
(121,176,ls),
(70,176,o),
(49,134,o),
(49,84,cs),
(49,40,o),
(76,0,o),
(123,0,cs),
(705,0,ls),
(752,0,o),
(779,40,o),
(779,84,cs),
(779,134,o),
(758,176,o),
(707,176,cs),
(531,176,l),
(531,1456,l),
(1549,16,ls),
(1569,-13,o),
(1598,-37,o),
(1641,-37,cs)
);
}
);
width = 2037;
}
);
unicode = 78;
},
{
glyphname = NJ;
kernLeft = H;
kernRight = J;
lastChange = "2024-05-02 12:22:03 +0000";
layers = (
{
background = {
shapes = (
{
closed = 1;
nodes = (
(3002,24,o),
(2782,-158,o),
(2498,-158,cs),
(2294,-158,o),
(2122,-47,o),
(2122,93,cs),
(2122,226,ls),
(2122,303,o),
(2155,343,o),
(2239,343,cs),
(2303,343,o),
(2360,311,o),
(2360,249,cs),
(2360,122,l),
(2361,73,o),
(2431,31,o),
(2513,31,cs),
(2629,31,o),
(2769,123,o),
(2769,417,cs),
(2769,1538,l),
(2447,1538,ls),
(2396,1538,o),
(2376,1580,o),
(2376,1630,cs),
(2376,1674,o),
(2402,1714,o),
(2449,1714,cs),
(3265,1714,ls),
(3312,1714,o),
(3338,1674,o),
(3338,1630,cs),
(3338,1580,o),
(3318,1538,o),
(3267,1538,cs),
(3002,1538,l),
(3002,443,ls)
);
},
{
closed = 1;
nodes = (
(49,1674,o),
(76,1714,o),
(123,1714,cs),
(586,1714,ls),
(618,1714,o),
(633,1704,o),
(645,1679,c),
(1524,426,l),
(1524,1538,l),
(1344,1538,ls),
(1293,1538,o),
(1272,1580,o),
(1272,1630,cs),
(1272,1674,o),
(1299,1714,o),
(1346,1714,cs),
(1928,1714,ls),
(1975,1714,o),
(2001,1674,o),
(2001,1630,cs),
(2001,1580,o),
(1981,1538,o),
(1930,1538,cs),
(1731,1538,l),
(1731,53,ls),
(1731,2,o),
(1690,-37,o),
(1641,-37,cs),
(1598,-37,o),
(1569,-13,o),
(1549,16,cs),
(531,1456,l),
(531,176,l),
(707,176,ls),
(758,176,o),
(779,134,o),
(779,84,cs),
(779,40,o),
(752,0,o),
(705,0,cs),
(123,0,ls),
(76,0,o),
(49,40,o),
(49,84,cs),
(49,134,o),
(70,176,o),
(121,176,cs),
(320,176,l),
(320,1538,l),
(121,1538,ls),
(70,1538,o),
(49,1580,o),
(49,1630,cs)
);
}
);
};
layerId = m001;
shapes = (
{
ref = N;
},
{
pos = (2037,0);
ref = J;
}
);
width = 3370;
}
);
unicode = 458;
},
{
glyphname = Nacute;
kernLeft = H;
kernRight = H;
lastChange = "2024-05-02 12:22:03 +0000";
layers = (
{
background = {
shapes = (
{
closed = 1;
nodes = (
(49,1674,o),
(76,1714,o),
(123,1714,cs),
(586,1714,ls),
(618,1714,o),
(633,1704,o),
(645,1679,c),
(1524,426,l),
(1524,1538,l),
(1344,1538,ls),
(1293,1538,o),
(1272,1580,o),
(1272,1630,cs),
(1272,1674,o),
(1299,1714,o),
(1346,1714,cs),
(1928,1714,ls),
(1975,1714,o),
(2001,1674,o),
(2001,1630,cs),
(2001,1580,o),
(1981,1538,o),
(1930,1538,cs),
(1731,1538,l),
(1731,53,ls),
(1731,2,o),
(1690,-37,o),
(1641,-37,cs),
(1598,-37,o),
(1569,-13,o),
(1549,16,cs),
(531,1456,l),
(531,176,l),
(707,176,ls),
(758,176,o),
(779,134,o),
(779,84,cs),
(779,40,o),
(752,0,o),
(705,0,cs),
(123,0,ls),
(76,0,o),
(49,40,o),
(49,84,cs),
(49,134,o),
(70,176,o),
(121,176,cs),
(320,176,l),
(320,1538,l),
(121,1538,ls),
(70,1538,o),
(49,1580,o),
(49,1630,cs)
);
},
{
closed = 1;
nodes = (
(1266,2424,o),
(1308,2381,o),
(1308,2340,cs),
(1308,2322,o),
(1300,2307,o),
(1282,2295,cs),
(1124,2196,o),
(947,2081,o),
(784,1988,cs),
(777,1984,o),
(770,1981,o),
(765,1981,cs),
(739,1981,o),
(716,2008,o),
(716,2033,cs),
(716,2047,o),
(722,2056,o),
(733,2063,cs),
(883,2163,o),
(1047,2292,o),
(1183,2409,cs),
(1194,2419,o),
(1208,2424,o),
(1224,2424,cs)
);
}
);
};
layerId = m001;
shapes = (
{
ref = N;
},
{
pos = (964,554);
ref = acutecomb;
}
);
width = 2037;
}
);
unicode = 323;
},
{
glyphname = Ncaron;
kernLeft = H;
kernRight = H;
lastChange = "2024-05-02 12:22:03 +0000";
layers = (
{
background = {
shapes = (
{
closed = 1;
nodes = (
(49,1674,o),
(76,1714,o),
(123,1714,cs),
(586,1714,ls),
(618,1714,o),
(633,1704,o),
(645,1679,c),
(1524,426,l),
(1524,1538,l),
(1344,1538,ls),
(1293,1538,o),
(1272,1580,o),
(1272,1630,cs),
(1272,1674,o),
(1299,1714,o),
(1346,1714,cs),
(1928,1714,ls),
(1975,1714,o),
(2001,1674,o),
(2001,1630,cs),
(2001,1580,o),
(1981,1538,o),
(1930,1538,cs),
(1731,1538,l),
(1731,53,ls),
(1731,2,o),
(1690,-37,o),
(1641,-37,cs),
(1598,-37,o),
(1569,-13,o),
(1549,16,cs),
(531,1456,l),
(531,176,l),
(707,176,ls),
(758,176,o),
(779,134,o),
(779,84,cs),
(779,40,o),
(752,0,o),
(705,0,cs),
(123,0,ls),
(76,0,o),
(49,40,o),
(49,84,cs),
(49,134,o),
(70,176,o),
(121,176,cs),
(320,176,l),
(320,1538,l),
(121,1538,ls),
(70,1538,o),
(49,1580,o),
(49,1630,cs)
);
},
{
closed = 1;
nodes = (
(993,1987,o),
(974,1993,o),
(966,2004,cs),
(696,2418,l),
(689,2426,o),
(686,2435,o),
(686,2443,cs),
(686,2467,o),
(713,2486,o),
(740,2486,cs),
(752,2486,o),
(766,2484,o),
(774,2473,cs),
(1012,2167,l),
(1250,2473,ls),
(1258,2484,o),
(1272,2486,o),
(1284,2486,cs),
(1311,2486,o),
(1338,2467,o),
(1338,2443,cs),
(1338,2435,o),
(1335,2426,o),
(1328,2418,c),
(1058,2004,ls),
(1050,1993,o),
(1031,1987,o),
(1012,1987,cs)
);
}
);
};
layerId = m001;
shapes = (
{
ref = N;
},
{
pos = (713,554);
ref = caroncomb;
}
);
width = 2037;
}
);
unicode = 327;
},
{
glyphname = Ncommaaccent;
kernLeft = H;
kernRight = H;
lastChange = "2024-05-02 12:22:03 +0000";
layers = (
{
background = {
shapes = (
{
closed = 1;
nodes = (
(49,1674,o),
(76,1714,o),
(123,1714,cs),
(586,1714,ls),
(618,1714,o),
(633,1704,o),
(645,1679,c),
(1524,426,l),
(1524,1538,l),
(1344,1538,ls),
(1293,1538,o),
(1272,1580,o),
(1272,1630,cs),
(1272,1674,o),
(1299,1714,o),
(1346,1714,cs),
(1928,1714,ls),
(1975,1714,o),
(2001,1674,o),
(2001,1630,cs),
(2001,1580,o),
(1981,1538,o),
(1930,1538,cs),
(1731,1538,l),
(1731,53,ls),
(1731,2,o),
(1690,-37,o),
(1641,-37,cs),
(1598,-37,o),
(1569,-13,o),
(1549,16,cs),
(531,1456,l),
(531,176,l),
(707,176,ls),
(758,176,o),
(779,134,o),
(779,84,cs),
(779,40,o),
(752,0,o),
(705,0,cs),
(123,0,ls),
(76,0,o),
(49,40,o),
(49,84,cs),
(49,134,o),
(70,176,o),
(121,176,cs),
(320,176,l),
(320,1538,l),
(121,1538,ls),
(70,1538,o),
(49,1580,o),
(49,1630,cs)
);
},
{
closed = 1;
nodes = (
(1115,-159,o),
(1210,-233,o),
(1210,-381,cs),
(1210,-592,o),
(1087,-726,o),
(936,-802,cs),
(920,-811,o),
(903,-815,o),
(889,-815,cs),
(846,-815,o),
(814,-782,o),
(814,-747,cs),
(814,-729,o),
(823,-710,o),
(845,-695,cs),
(922,-644,o),
(1023,-578,o),
(1023,-464,c),
(915,-464,o),
(835,-416,o),
(835,-314,cs),
(835,-211,o),
(917,-159,o),
(1005,-159,cs)
);
}
);
};
layerId = m001;
shapes = (
{
ref = N;
},
{
pos = (770,0);
ref = commaaccentcomb;
}
);
width = 2037;
}
);
unicode = 325;
},
{
glyphname = Nj;
kernLeft = H;
kernRight = j;
lastChange = "2024-05-02 12:22:03 +0000";
layers = (
{
background = {
shapes = (
{
closed = 1;
nodes = (
(49,1674,o),
(76,1714,o),
(123,1714,cs),
(586,1714,ls),
(618,1714,o),
(633,1704,o),
(645,1679,c),
(1524,426,l),
(1524,1538,l),
(1344,1538,ls),
(1293,1538,o),
(1272,1580,o),
(1272,1630,cs),
(1272,1674,o),
(1299,1714,o),
(1346,1714,cs),
(1928,1714,ls),
(1975,1714,o),
(2001,1674,o),
(2001,1630,cs),
(2001,1580,o),
(1981,1538,o),
(1930,1538,cs),
(1731,1538,l),
(1731,53,ls),
(1731,2,o),
(1690,-37,o),
(1641,-37,cs),
(1598,-37,o),
(1569,-13,o),
(1549,16,cs),
(531,1456,l),
(531,176,l),
(707,176,ls),
(758,176,o),
(779,134,o),
(779,84,cs),
(779,40,o),
(752,0,o),
(705,0,cs),
(123,0,ls),
(76,0,o),
(49,40,o),
(49,84,cs),
(49,134,o),
(70,176,o),
(121,176,cs),
(320,176,l),
(320,1538,l),
(121,1538,ls),
(70,1538,o),
(49,1580,o),
(49,1630,cs)
);
},
{
closed = 1;
nodes = (
(2434,-323,o),
(2482,-126,o),
(2482,115,cs),
(2482,983,l),
(2338,944,ls),
(2335,943,o),
(2331,942,o),
(2324,942,cs),
(2284,942,o),
(2242,981,o),
(2242,1022,cs),
(2242,1065,o),
(2261,1096,o),
(2299,1106,cs),
(2619,1186,ls),
(2623,1187,o),
(2628,1188,o),
(2635,1188,cs),
(2665,1188,o),
(2687,1174,o),
(2687,1143,cs),
(2687,115,ls),
(2687,-191,o),
(2599,-496,o),
(2240,-496,cs),
(2085,-496,o),
(1962,-436,o),
(1962,-243,cs),
(1962,-164,o),
(1980,-120,o),
(2060,-120,cs),
(2116,-120,o),
(2150,-157,o),
(2150,-220,c),
(2168,-283,o),
(2126,-323,o),
(2251,-323,cs)
);
},
{
closed = 1;
nodes = (
(2383,1655,o),
(2434,1735,o),
(2510,1735,cs),
(2597,1735,o),
(2670,1680,o),
(2670,1593,cs),
(2670,1507,o),
(2612,1450,o),
(2527,1450,cs),
(2451,1450,o),
(2383,1503,o),
(2383,1579,cs)
);
}
);
};
layerId = m001;
shapes = (
{
ref = N;
},
{
pos = (2037,0);
ref = j;
}
);
width = 2862;
}
);
unicode = 459;
},
{
glyphname = Ntilde;
kernLeft = H;
kernRight = H;
lastChange = "2024-05-02 12:22:03 +0000";
layers = (
{
background = {
shapes = (
{
closed = 1;
nodes = (
(49,1674,o),
(76,1714,o),
(123,1714,cs),
(586,1714,ls),
(618,1714,o),
(633,1704,o),
(645,1679,c),
(1524,426,l),
(1524,1538,l),
(1344,1538,ls),
(1293,1538,o),
(1272,1580,o),
(1272,1630,cs),
(1272,1674,o),
(1299,1714,o),
(1346,1714,cs),
(1928,1714,ls),
(1975,1714,o),
(2001,1674,o),
(2001,1630,cs),
(2001,1580,o),
(1981,1538,o),
(1930,1538,cs),
(1731,1538,l),
(1731,53,ls),
(1731,2,o),
(1690,-37,o),
(1641,-37,cs),
(1598,-37,o),
(1569,-13,o),
(1549,16,cs),
(531,1456,l),
(531,176,l),
(707,176,ls),
(758,176,o),
(779,134,o),
(779,84,cs),
(779,40,o),
(752,0,o),
(705,0,cs),
(123,0,ls),
(76,0,o),
(49,40,o),
(49,84,cs),
(49,134,o),
(70,176,o),
(121,176,cs),
(320,176,l),
(320,1538,l),
(121,1538,ls),
(70,1538,o),
(49,1580,o),
(49,1630,cs)
);
},
{
closed = 1;
nodes = (
(639,2189,o),
(723,2299,o),
(829,2299,cs),
(984,2299,o),
(1100,2157,o),
(1156,2157,cs),
(1245,2157,o),
(1248,2299,o),
(1297,2299,cs),
(1336,2299,o),
(1370,2281,o),
(1370,2245,cs),
(1370,2090,o),
(1270,1981,o),
(1144,1981,cs),
(1028,1981,o),
(915,2122,o),
(838,2122,cs),
(753,2122,o),
(753,1981,o),
(712,1981,cs),
(673,1981,o),
(639,1998,o),
(639,2034,cs)
);
}
);
};
layerId = m001;
shapes = (
{
ref = N;
},
{
pos = (502,494);
ref = tildecomb;
}
);
width = 2037;
}
);
unicode = 209;
},
{
glyphname = Eng;
kernLeft = H;
kernRight = J;
lastChange = "2024-05-02 12:22:03 +0000";
layers = (
{
background = {
shapes = (
{
closed = 1;
nodes = (
(68,1674,o),
(95,1714,o),
(142,1714,cs),
(605,1714,ls),
(637,1714,o),
(652,1704,o),
(664,1679,c),
(1543,426,l),
(1543,1538,l),
(1363,1538,ls),
(1312,1538,o),
(1291,1580,o),
(1291,1630,cs),
(1291,1674,o),
(1318,1714,o),
(1365,1714,cs),
(1947,1714,ls),
(1994,1714,o),
(2020,1674,o),
(2020,1630,cs),
(2020,1580,o),
(2000,1538,o),
(1949,1538,cs),
(1750,1538,l),
(1750,-52,ls),
(1750,-425,o),
(1555,-587,o),
(1302,-587,cs),
(1121,-587,o),
(967,-489,o),
(967,-364,cs),
(967,-245,ls),
(967,-176,o),
(997,-141,o),
(1071,-141,cs),
(1128,-141,o),
(1179,-170,o),
(1179,-225,cs),
(1179,-338,l),
(1180,-381,o),
(1242,-419,o),
(1315,-419,cs),
(1418,-419,o),
(1543,-336,o),
(1543,-75,cs),
(1543,51,l),
(550,1456,l),
(550,176,l),
(726,176,ls),
(777,176,o),
(798,134,o),
(798,84,cs),
(798,40,o),
(771,0,o),
(724,0,cs),
(142,0,ls),
(95,0,o),
(68,40,o),
(68,84,cs),
(68,134,o),
(89,176,o),
(140,176,cs),
(339,176,l),
(339,1538,l),
(140,1538,ls),
(89,1538,o),
(68,1580,o),
(68,1630,cs)
);
}
);
};
layerId = m001;
shapes = (
{
closed = 1;
nodes = (
(1555,-587,o),
(1750,-425,o),
(1750,-52,cs),
(1750,1538,l),
(1949,1538,ls),
(2000,1538,o),
(2020,1580,o),
(2020,1630,cs),
(2020,1674,o),
(1994,1714,o),
(1947,1714,cs),
(1365,1714,ls),
(1318,1714,o),
(1291,1674,o),
(1291,1630,cs),
(1291,1580,o),
(1312,1538,o),
(1363,1538,cs),
(1543,1538,l),
(1543,426,l),
(664,1679,l),
(652,1704,o),
(637,1714,o),
(605,1714,cs),
(142,1714,ls),
(95,1714,o),
(68,1674,o),
(68,1630,cs),
(68,1580,o),
(89,1538,o),
(140,1538,cs),
(339,1538,l),
(339,176,l),
(140,176,ls),
(89,176,o),
(68,134,o),
(68,84,cs),
(68,40,o),
(95,0,o),
(142,0,cs),
(724,0,ls),
(771,0,o),
(798,40,o),
(798,84,cs),
(798,134,o),
(777,176,o),
(726,176,cs),
(550,176,l),
(550,1456,l),
(1543,51,l),
(1543,-75,ls),
(1543,-336,o),
(1418,-419,o),
(1315,-419,cs),
(1242,-419,o),
(1180,-381,o),
(1179,-338,c),
(1179,-225,ls),
(1179,-170,o),
(1128,-141,o),
(1071,-141,cs),
(997,-141,o),
(967,-176,o),
(967,-245,cs),
(967,-364,ls),
(967,-489,o),
(1121,-587,o),
(1302,-587,cs)
);
}
);
width = 2083;
}
);
unicode = 330;
},
{
glyphname = O;
kernLeft = O;
kernRight = O;
lastChange = "2024-05-02 12:22:03 +0000";
layers = (
{
anchors = (
{
name = bottom;
pos = (986,0);
},
{
name = center;
pos = (986,857);
},
{
name = ogonek;
pos = (1775,10);
},
{
name = top;
pos = (986,1714);
},
{
name = topleft;
pos = (20,1714);
},
{
name = topright;
pos = (1952,1714);
}
);
background = {
shapes = (
{
closed = 1;
nodes = (
(458,-25,o),
(93,320,o),
(93,850,cs),
(93,1382,o),
(458,1739,o),
(982,1739,cs),
(1512,1739,o),
(1879,1382,o),
(1879,850,cs),
(1879,320,o),
(1510,-25,o),
(982,-25,cs)
);
},
{
closed = 1;
nodes = (
(574,1550,o),
(343,1256,o),
(343,850,cs),
(343,444,o),
(580,164,o),
(990,164,cs),
(1391,164,o),
(1631,438,o),
(1631,848,cs),
(1631,1262,o),
(1385,1550,o),
(973,1550,cs)
);
}
);
};
layerId = m001;
shapes = (
{
closed = 1;
nodes = (
(1510,-25,o),
(1879,320,o),
(1879,850,cs),
(1879,1382,o),
(1512,1739,o),
(982,1739,cs),
(458,1739,o),
(93,1382,o),
(93,850,cs),
(93,320,o),
(458,-25,o),
(982,-25,cs)
);
},
{
closed = 1;
nodes = (
(580,164,o),
(343,444,o),
(343,850,cs),
(343,1256,o),
(574,1550,o),
(973,1550,cs),
(1385,1550,o),
(1631,1262,o),
(1631,848,cs),
(1631,438,o),
(1391,164,o),
(990,164,cs)
);
}
);
width = 1972;
}
);
unicode = 79;
},
{
glyphname = Oacute;
kernLeft = O;
kernRight = O;
lastChange = "2024-05-02 12:22:03 +0000";
layers = (
{
background = {
shapes = (
{
closed = 1;
nodes = (
(458,-25,o),
(93,320,o),
(93,850,cs),
(93,1382,o),
(458,1739,o),
(982,1739,cs),
(1512,1739,o),
(1879,1382,o),
(1879,850,cs),
(1879,320,o),
(1510,-25,o),
(982,-25,cs)
);
},
{
closed = 1;
nodes = (
(574,1550,o),
(343,1256,o),
(343,850,cs),
(343,444,o),
(580,164,o),
(990,164,cs),
(1391,164,o),
(1631,438,o),
(1631,848,cs),
(1631,1262,o),
(1385,1550,o),
(973,1550,cs)
);
},
{
closed = 1;
nodes = (
(1481,2364,o),
(1523,2321,o),
(1523,2280,cs),
(1523,2262,o),
(1515,2247,o),
(1497,2235,cs),
(1339,2136,o),
(1162,2021,o),
(999,1928,cs),
(992,1924,o),
(985,1921,o),
(980,1921,cs),
(954,1921,o),
(931,1948,o),
(931,1973,cs),
(931,1987,o),
(937,1996,o),
(948,2003,cs),
(1098,2103,o),
(1262,2232,o),
(1398,2349,cs),
(1409,2359,o),
(1423,2364,o),
(1439,2364,cs)
);
}
);
};
layerId = m001;
shapes = (
{
ref = O;
},
{
pos = (941,554);
ref = acutecomb;
}
);
width = 1972;
}
);
unicode = 211;
},
{
glyphname = Obreve;
kernLeft = O;
kernRight = O;
lastChange = "2024-05-02 12:22:03 +0000";
layers = (
{
background = {
shapes = (
{
closed = 1;
nodes = (
(458,-25,o),
(93,320,o),
(93,850,cs),
(93,1382,o),
(458,1739,o),
(982,1739,cs),
(1512,1739,o),
(1879,1382,o),
(1879,850,cs),
(1879,320,o),
(1510,-25,o),
(982,-25,cs)
);
},
{
closed = 1;
nodes = (
(574,1550,o),
(343,1256,o),
(343,850,cs),
(343,444,o),
(580,164,o),
(990,164,cs),
(1391,164,o),
(1631,438,o),
(1631,848,cs),
(1631,1262,o),
(1385,1550,o),
(973,1550,cs)
);
},
{
closed = 1;
nodes = (
(808,2201,o),
(889,2141,o),
(970,2141,cs),
(1051,2141,o),
(1132,2201,o),
(1178,2321,cs),
(1184,2337,o),
(1198,2342,o),
(1211,2342,cs),
(1237,2342,o),
(1266,2317,o),
(1266,2295,cs),
(1266,2084,o),
(1118,1978,o),
(970,1978,cs),
(822,1978,o),
(674,2084,o),
(674,2295,cs),
(674,2317,o),
(703,2342,o),
(729,2342,cs),
(742,2342,o),
(756,2337,o),
(762,2321,cs)
);
}
);
};
layerId = m001;
shapes = (
{
ref = O;
},
{
pos = (690,554);
ref = brevecomb;
}
);
width = 1972;
}
);
unicode = 334;
},
{
glyphname = Ocircumflex;
kernLeft = O;
kernRight = O;
lastChange = "2024-05-02 12:22:03 +0000";
layers = (
{
background = {
shapes = (
{
closed = 1;
nodes = (
(458,-25,o),
(93,320,o),
(93,850,cs),
(93,1382,o),
(458,1739,o),
(982,1739,cs),
(1512,1739,o),
(1879,1382,o),
(1879,850,cs),
(1879,320,o),
(1510,-25,o),
(982,-25,cs)
);
},
{
closed = 1;
nodes = (
(574,1550,o),
(343,1256,o),
(343,850,cs),
(343,444,o),
(580,164,o),
(990,164,cs),
(1391,164,o),
(1631,438,o),
(1631,848,cs),
(1631,1262,o),
(1385,1550,o),
(973,1550,cs)
);
},
{
closed = 1;
nodes = (
(997,2426,o),
(1016,2420,o),
(1024,2409,cs),
(1294,1995,l),
(1301,1987,o),
(1304,1978,o),
(1304,1970,cs),
(1304,1946,o),
(1277,1927,o),
(1250,1927,cs),
(1238,1927,o),
(1224,1929,o),
(1216,1940,cs),
(978,2246,l),
(740,1940,ls),
(732,1929,o),
(718,1927,o),
(706,1927,cs),
(679,1927,o),
(652,1946,o),
(652,1970,cs),
(652,1978,o),
(655,1987,o),
(662,1995,c),
(932,2409,ls),
(940,2420,o),
(959,2426,o),
(978,2426,cs)
);
}
);
};
layerId = m001;
shapes = (
{
ref = O;
},
{
pos = (690,554);
ref = circumflexcomb;
}
);
width = 1972;
}
);
unicode = 212;
},
{
glyphname = Odblgrave;
kernLeft = O;
kernRight = O;
lastChange = "2024-05-02 12:22:03 +0000";
layers = (
{
background = {
shapes = (
{
closed = 1;
nodes = (
(458,-25,o),
(93,320,o),
(93,850,cs),
(93,1382,o),
(458,1739,o),
(982,1739,cs),
(1512,1739,o),
(1879,1382,o),
(1879,850,cs),
(1879,320,o),
(1510,-25,o),
(982,-25,cs)
);
},
{
closed = 1;
nodes = (
(574,1550,o),
(343,1256,o),
(343,850,cs),
(343,444,o),
(580,164,o),
(990,164,cs),
(1391,164,o),
(1631,438,o),
(1631,848,cs),
(1631,1262,o),
(1385,1550,o),
(973,1550,cs)
);
},
{
closed = 1;
nodes = (
(703,2364,o),
(661,2321,o),
(661,2280,cs),
(661,2262,o),
(669,2247,o),
(687,2235,cs),
(845,2136,o),
(1022,2021,o),
(1185,1928,cs),
(1192,1924,o),
(1199,1921,o),
(1204,1921,cs),
(1230,1921,o),
(1253,1948,o),
(1253,1973,cs),
(1253,1987,o),
(1247,1996,o),
(1236,2003,cs),
(1086,2103,o),
(922,2232,o),
(786,2349,cs),
(775,2359,o),
(761,2364,o),
(745,2364,cs)
);
},
{
closed = 1;
nodes = (
(328,2364,o),
(286,2321,o),
(286,2280,cs),
(286,2262,o),
(295,2247,o),
(313,2235,cs),
(471,2136,o),
(647,2021,o),
(810,1928,cs),
(817,1924,o),
(824,1921,o),
(829,1921,cs),
(855,1921,o),
(878,1948,o),
(878,1973,cs),
(878,1987,o),
(872,1996,o),
(861,2003,cs),
(711,2103,o),
(547,2232,o),
(411,2349,cs),
(400,2359,o),
(386,2364,o),
(370,2364,cs)
);
}
);
};
layerId = m001;
shapes = (
{
ref = O;
},
{
pos = (293,494);
ref = dblgravecomb;
}
);
width = 1972;
}
);
unicode = 524;
},
{
glyphname = Odieresis;
kernLeft = O;
kernRight = O;
lastChange = "2024-05-02 12:22:03 +0000";
layers = (
{
background = {
shapes = (
{
closed = 1;
nodes = (
(458,-25,o),
(93,320,o),
(93,850,cs),
(93,1382,o),
(458,1739,o),
(982,1739,cs),
(1512,1739,o),
(1879,1382,o),
(1879,850,cs),
(1879,320,o),
(1510,-25,o),
(982,-25,cs)
);
},
{
closed = 1;
nodes = (
(574,1550,o),
(343,1256,o),
(343,850,cs),
(343,444,o),
(580,164,o),
(990,164,cs),
(1391,164,o),
(1631,438,o),
(1631,848,cs),
(1631,1262,o),
(1385,1550,o),
(973,1550,cs)
);
},
{
closed = 1;
nodes = (
(668,1926,o),
(607,1986,o),
(607,2059,cs),
(607,2132,o),
(668,2192,o),
(741,2192,cs),
(814,2192,o),
(874,2132,o),
(874,2059,cs),
(874,1986,o),
(814,1926,o),
(741,1926,cs)
);
},
{
closed = 1;
nodes = (
(1159,1926,o),
(1099,1986,o),
(1099,2059,cs),
(1099,2132,o),
(1159,2192,o),
(1232,2192,cs),
(1305,2192,o),
(1365,2132,o),
(1365,2059,cs),
(1365,1986,o),
(1305,1926,o),
(1232,1926,cs)
);
}
);
};
layerId = m001;
shapes = (
{
ref = O;
},
{
pos = (552,494);
ref = dieresiscomb;
}
);
width = 1972;
}
);
unicode = 214;
},
{
glyphname = Ograve;
kernLeft = O;
kernRight = O;
lastChange = "2024-07-31 14:33:50 +0000";
layers = (
{
background = {
shapes = (
{
closed = 1;
nodes = (
(458,-25,o),
(93,320,o),
(93,850,cs),
(93,1382,o),
(458,1739,o),
(982,1739,cs),
(1512,1739,o),
(1879,1382,o),
(1879,850,cs),
(1879,320,o),
(1510,-25,o),
(982,-25,cs)
);
},
{
closed = 1;
nodes = (
(574,1550,o),
(343,1256,o),
(343,850,cs),
(343,444,o),
(580,164,o),
(990,164,cs),
(1391,164,o),
(1631,438,o),
(1631,848,cs),
(1631,1262,o),
(1385,1550,o),
(973,1550,cs)
);
},
{
closed = 1;
nodes = (
(1037,1948,o),
(1014,1921,o),
(988,1921,cs),
(981,1921,o),
(975,1924,o),
(970,1928,cs),
(808,2021,o),
(629,2137,o),
(472,2235,cs),
(454,2247,o),
(445,2262,o),
(445,2280,cs),
(445,2321,o),
(487,2364,o),
(529,2364,cs),
(545,2364,o),
(559,2359,o),
(570,2349,cs),
(706,2232,o),
(871,2103,o),
(1021,2003,cs),
(1032,1996,o),
(1037,1987,o),
(1037,1973,cs)
);
}
);
};
layerId = m001;
shapes = (
{
ref = O;
},
{
pos = (511,554);
ref = gravecomb;
}
);
width = 1972;
}
);
unicode = 210;
},
{
glyphname = Ohungarumlaut;
kernLeft = O;
kernRight = O;
lastChange = "2024-05-02 12:22:03 +0000";
layers = (
{
background = {
shapes = (
{
closed = 1;
nodes = (
(458,-25,o),
(93,320,o),
(93,850,cs),
(93,1382,o),
(458,1739,o),
(982,1739,cs),
(1512,1739,o),
(1879,1382,o),
(1879,850,cs),
(1879,320,o),
(1510,-25,o),
(982,-25,cs)
);
},
{
closed = 1;
nodes = (
(574,1550,o),
(343,1256,o),
(343,850,cs),
(343,444,o),
(580,164,o),
(990,164,cs),
(1391,164,o),
(1631,438,o),
(1631,848,cs),
(1631,1262,o),
(1385,1550,o),
(973,1550,cs)
);
},
{
closed = 1;
nodes = (
(1349,2364,o),
(1391,2321,o),
(1391,2280,cs),
(1391,2262,o),
(1383,2247,o),
(1365,2235,cs),
(1207,2136,o),
(1030,2021,o),
(867,1928,cs),
(860,1924,o),
(853,1921,o),
(848,1921,cs),
(822,1921,o),
(799,1948,o),
(799,1973,cs),
(799,1987,o),
(805,1996,o),
(816,2003,cs),
(966,2103,o),
(1130,2232,o),
(1266,2349,cs),
(1277,2359,o),
(1291,2364,o),
(1307,2364,cs)
);
},
{
closed = 1;
nodes = (
(1724,2364,o),
(1766,2321,o),
(1766,2280,cs),
(1766,2262,o),
(1757,2247,o),
(1739,2235,cs),
(1581,2136,o),
(1405,2021,o),
(1242,1928,cs),
(1235,1924,o),
(1228,1921,o),
(1223,1921,cs),
(1197,1921,o),
(1174,1948,o),
(1174,1973,cs),
(1174,1987,o),
(1180,1996,o),
(1191,2003,cs),
(1341,2103,o),
(1505,2232,o),
(1641,2349,cs),
(1652,2359,o),
(1666,2364,o),
(1682,2364,cs)
);
}
);
};
layerId = m001;
shapes = (
{
ref = O;
},
{
pos = (783,474);
ref = hungarumlautcomb;
}
);
width = 1972;
}
);
unicode = 336;
},
{
glyphname = Oinvertedbreve;
kernLeft = O;
kernRight = O;
lastChange = "2024-05-02 12:22:03 +0000";
layers = (
{
background = {
shapes = (
{
closed = 1;
nodes = (
(458,-25,o),
(93,320,o),
(93,850,cs),
(93,1382,o),
(458,1739,o),
(982,1739,cs),
(1512,1739,o),
(1879,1382,o),
(1879,850,cs),
(1879,320,o),
(1510,-25,o),
(982,-25,cs)
);
},
{
closed = 1;
nodes = (
(574,1550,o),
(343,1256,o),
(343,850,cs),
(343,444,o),
(580,164,o),
(990,164,cs),
(1391,164,o),
(1631,438,o),
(1631,848,cs),
(1631,1262,o),
(1385,1550,o),
(973,1550,cs)
);
},
{
closed = 1;
nodes = (
(712,1876,o),
(685,1893,o),
(685,1917,cs),
(685,2129,o),
(833,2239,o),
(981,2239,cs),
(1129,2239,o),
(1277,2128,o),
(1277,1917,cs),
(1277,1893,o),
(1250,1876,o),
(1224,1876,cs),
(1206,1876,o),
(1188,1884,o),
(1181,1904,cs),
(1135,2025,o),
(1062,2077,o),
(981,2077,cs),
(900,2077,o),
(827,2025,o),
(781,1904,cs),
(774,1884,o),
(756,1876,o),
(738,1876,cs)
);
}
);
};
layerId = m001;
shapes = (
{
ref = O;
},
{
pos = (690,554);
ref = breveinvertedcomb;
}
);
width = 1972;
}
);
unicode = 526;
},
{
glyphname = Omacron;
kernLeft = O;
kernRight = O;
lastChange = "2024-05-02 12:22:03 +0000";
layers = (
{
background = {
shapes = (
{
closed = 1;
nodes = (
(458,-25,o),
(93,320,o),
(93,850,cs),
(93,1382,o),
(458,1739,o),
(982,1739,cs),
(1512,1739,o),
(1879,1382,o),
(1879,850,cs),
(1879,320,o),
(1510,-25,o),
(982,-25,cs)
);
},
{
closed = 1;
nodes = (
(574,1550,o),
(343,1256,o),
(343,850,cs),
(343,444,o),
(580,164,o),
(990,164,cs),
(1391,164,o),
(1631,438,o),
(1631,848,cs),
(1631,1262,o),
(1385,1550,o),
(973,1550,cs)
);
},
{
closed = 1;
nodes = (
(709,2036,ls),
(654,2036,o),
(627,2076,o),
(627,2115,cs),
(627,2154,o),
(653,2192,o),
(703,2192,cs),
(1241,2192,ls),
(1289,2192,o),
(1313,2154,o),
(1313,2115,cs),
(1313,2076,o),
(1288,2036,o),
(1239,2036,cs)
);
}
);
};
layerId = m001;
shapes = (
{
ref = O;
},
{
pos = (473,494);
ref = macroncomb;
}
);
width = 1972;
}
);
unicode = 332;
},
{
glyphname = Oslash;
kernLeft = O;
kernRight = O;
lastChange = "2024-05-02 12:22:03 +0000";
layers = (
{
background = {
shapes = (
{
closed = 1;
nodes = (
(558,1550,o),
(327,1256,o),
(327,850,cs),
(327,594,o),
(422,387,o),
(595,270,c),
(1190,1515,l),
(1120,1538,o),
(1042,1550,o),
(957,1550,cs)
);
},
{
closed = 1;
nodes = (
(1375,164,o),
(1615,438,o),
(1615,848,cs),
(1615,1106,o),
(1519,1315,o),
(1348,1436,c),
(755,195,l),
(821,175,o),
(894,164,o),
(974,164,cs)
);
},
{
closed = 1;
nodes = (
(484,-370,o),
(467,-389,o),
(432,-389,cs),
(385,-389,o),
(327,-351,o),
(327,-303,cs),
(327,-292,o),
(330,-282,o),
(335,-272,cs),
(505,83,l),
(240,224,o),
(77,496,o),
(77,850,cs),
(77,1382,o),
(442,1739,o),
(966,1739,cs),
(1077,1739,o),
(1181,1723,o),
(1276,1694,c),
(1443,2042,l),
(1454,2068,o),
(1475,2081,o),
(1505,2081,cs),
(1551,2081,o),
(1607,2045,o),
(1607,1995,cs),
(1607,1985,o),
(1605,1977,o),
(1601,1967,cs),
(1438,1625,l),
(1701,1479,o),
(1863,1203,o),
(1863,850,cs),
(1863,320,o),
(1494,-25,o),
(966,-25,cs),
(860,-25,o),
(761,-11,o),
(669,16,c),
(499,-341,l)
);
}
);
};
layerId = m001;
shapes = (
{
closed = 1;
nodes = (
(467,-389,o),
(484,-370,o),
(499,-341,c),
(669,16,l),
(761,-11,o),
(860,-25,o),
(966,-25,cs),
(1494,-25,o),
(1863,320,o),
(1863,850,cs),
(1863,1203,o),
(1701,1479,o),
(1438,1625,c),
(1601,1967,ls),
(1605,1977,o),
(1607,1985,o),
(1607,1995,cs),
(1607,2045,o),
(1551,2081,o),
(1505,2081,cs),
(1475,2081,o),
(1454,2068,o),
(1443,2042,c),
(1276,1694,l),
(1181,1723,o),
(1077,1739,o),
(966,1739,cs),
(442,1739,o),
(77,1382,o),
(77,850,cs),
(77,496,o),
(240,224,o),
(505,83,c),
(335,-272,ls),
(330,-282,o),
(327,-292,o),
(327,-303,cs),
(327,-351,o),
(385,-389,o),
(432,-389,cs)
);
},
{
closed = 1;
nodes = (
(422,387,o),
(327,594,o),
(327,850,cs),
(327,1256,o),
(558,1550,o),
(957,1550,cs),
(1042,1550,o),
(1120,1538,o),
(1190,1515,c),
(595,270,l)
);
},
{
closed = 1;
nodes = (
(894,164,o),
(821,175,o),
(755,195,c),
(1348,1436,l),
(1519,1315,o),
(1615,1106,o),
(1615,848,cs),
(1615,438,o),
(1375,164,o),
(974,164,cs)
);
}
);
width = 1940;
}
);
unicode = 216;
},
{
glyphname = Otilde;
kernLeft = O;
kernRight = O;
lastChange = "2024-05-02 12:22:03 +0000";
layers = (
{
background = {
shapes = (
{
closed = 1;
nodes = (
(458,-25,o),
(93,320,o),
(93,850,cs),
(93,1382,o),
(458,1739,o),
(982,1739,cs),
(1512,1739,o),
(1879,1382,o),
(1879,850,cs),
(1879,320,o),
(1510,-25,o),
(982,-25,cs)
);
},
{
closed = 1;
nodes = (
(574,1550,o),
(343,1256,o),
(343,850,cs),
(343,444,o),
(580,164,o),
(990,164,cs),
(1391,164,o),
(1631,438,o),
(1631,848,cs),
(1631,1262,o),
(1385,1550,o),
(973,1550,cs)
);
},
{
closed = 1;
nodes = (
(604,2189,o),
(688,2299,o),
(794,2299,cs),
(949,2299,o),
(1065,2157,o),
(1121,2157,cs),
(1210,2157,o),
(1213,2299,o),
(1262,2299,cs),
(1301,2299,o),
(1335,2281,o),
(1335,2245,cs),
(1335,2090,o),
(1235,1981,o),
(1109,1981,cs),
(993,1981,o),
(880,2122,o),
(803,2122,cs),
(718,2122,o),
(718,1981,o),
(677,1981,cs),
(638,1981,o),
(604,1998,o),
(604,2034,cs)
);
}
);
};
layerId = m001;
shapes = (
{
ref = O;
},
{
pos = (479,494);
ref = tildecomb;
}
);
width = 1972;
}
);
unicode = 213;
},
{
glyphname = OE;
kernLeft = O;
kernRight = E;
lastChange = "2024-05-02 12:22:03 +0000";
layers = (
{
background = {
shapes = (
{
closed = 1;
nodes = (
(434,-25,o),
(74,320,o),
(74,850,cs),
(74,1382,o),
(434,1739,o),
(950,1739,cs),
(1222,1739,o),
(1485,1609,o),
(1589,1387,c),
(1589,1714,l),
(2786,1714,ls),
(2834,1714,o),
(2852,1683,o),
(2868,1636,c),
(2964,1319,ls),
(2968,1304,o),
(2970,1291,o),
(2970,1280,cs),
(2970,1236,o),
(2940,1206,o),
(2897,1206,cs),
(2847,1206,o),
(2811,1240,o),
(2794,1282,cs),
(2686,1538,l),
(1822,1538,l),
(1822,967,l),
(2156,967,l),
(2207,1153,ls),
(2218,1190,o),
(2245,1221,o),
(2287,1221,cs),
(2332,1221,o),
(2357,1188,o),
(2357,1141,c),
(2342,899,l),
(2357,649,l),
(2357,602,o),
(2332,569,o),
(2287,569,cs),
(2245,569,o),
(2218,600,o),
(2207,637,cs),
(2156,823,l),
(1822,823,l),
(1822,176,l),
(2686,176,l),
(2802,506,l),
(2821,548,o),
(2853,582,o),
(2905,582,cs),
(2949,582,o),
(2978,554,o),
(2978,508,cs),
(2978,494,o),
(2976,481,o),
(2972,469,c),
(2909,78,l),
(2895,30,o),
(2875,0,o),
(2827,0,cs),
(1589,0,l),
(1589,311,l),
(1505,108,o),
(1221,-25,o),
(950,-25,cs)
);
},
{
closed = 1;
nodes = (
(550,1550,o),
(324,1256,o),
(324,850,cs),
(324,444,o),
(556,164,o),
(958,164,cs),
(1353,164,o),
(1589,438,o),
(1589,848,cs),
(1589,1262,o),
(1347,1550,o),
(941,1550,cs)
);
}
);
};
layerId = m001;
shapes = (
{
closed = 1;
nodes = (
(1221,-25,o),
(1505,108,o),
(1589,311,c),
(1589,0,l),
(2827,0,ls),
(2875,0,o),
(2895,30,o),
(2909,78,c),
(2972,469,l),
(2976,481,o),
(2978,494,o),
(2978,508,cs),
(2978,554,o),
(2949,582,o),
(2905,582,cs),
(2853,582,o),
(2821,548,o),
(2802,506,c),
(2686,176,l),
(1822,176,l),
(1822,823,l),
(2156,823,l),
(2207,637,ls),
(2218,600,o),
(2245,569,o),
(2287,569,cs),
(2332,569,o),
(2357,602,o),
(2357,649,c),
(2342,899,l),
(2357,1141,l),
(2357,1188,o),
(2332,1221,o),
(2287,1221,cs),
(2245,1221,o),
(2218,1190,o),
(2207,1153,cs),
(2156,967,l),
(1822,967,l),
(1822,1538,l),
(2686,1538,l),
(2794,1282,ls),
(2811,1240,o),
(2847,1206,o),
(2897,1206,cs),
(2940,1206,o),
(2970,1236,o),
(2970,1280,cs),
(2970,1291,o),
(2968,1304,o),
(2964,1319,cs),
(2868,1636,l),
(2852,1683,o),
(2834,1714,o),
(2786,1714,cs),
(1589,1714,l),
(1589,1387,l),
(1485,1609,o),
(1222,1739,o),
(950,1739,cs),
(434,1739,o),
(74,1382,o),
(74,850,cs),
(74,320,o),
(434,-25,o),
(950,-25,cs)
);
},
{
closed = 1;
nodes = (
(556,164,o),
(324,444,o),
(324,850,cs),
(324,1256,o),
(550,1550,o),
(941,1550,cs),
(1347,1550,o),
(1589,1262,o),
(1589,848,cs),
(1589,438,o),
(1353,164,o),
(958,164,cs)
);
}
);
width = 3047;
}
);
unicode = 338;
},
{
glyphname = P;
kernLeft = H;
kernRight = P;
lastChange = "2024-05-02 12:22:03 +0000";
layers = (
{
anchors = (
{
name = bottom;
pos = (884,0);
},
{
name = top;
pos = (884,1714);
}
);
background = {
shapes = (
{
closed = 1;
nodes = (
(1448,1538,o),
(1107,1538,o),
(826,1538,cs),
(619,1538,l),
(619,889,l),
(887,889,ls),
(1175,889,o),
(1448,903,o),
(1448,1223,cs)
);
},
{
closed = 1;
nodes = (
(1684,745,o),
(1262,725,o),
(834,725,cs),
(619,725,l),
(619,176,l),
(924,176,ls),
(975,176,o),
(996,134,o),
(996,84,cs),
(996,40,o),
(969,0,o),
(922,0,cs),
(123,0,ls),
(76,0,o),
(49,40,o),
(49,84,cs),
(49,134,o),
(70,176,o),
(121,176,cs),
(385,176,l),
(385,1538,l),
(142,1538,ls),
(91,1538,o),
(70,1580,o),
(70,1630,cs),
(70,1674,o),
(97,1714,o),
(144,1714,cs),
(797,1714,ls),
(1244,1714,o),
(1684,1688,o),
(1684,1208,cs)
);
}
);
};
layerId = m001;
shapes = (
{
closed = 1;
nodes = (
(922,0,ls),
(969,0,o),
(996,40,o),
(996,84,cs),
(996,134,o),
(975,176,o),
(924,176,cs),
(619,176,l),
(619,725,l),
(834,725,ls),
(1262,725,o),
(1684,745,o),
(1684,1208,cs),
(1684,1688,o),
(1244,1714,o),
(797,1714,cs),
(144,1714,ls),
(97,1714,o),
(70,1674,o),
(70,1630,cs),
(70,1580,o),
(91,1538,o),
(142,1538,cs),
(385,1538,l),
(385,176,l),
(121,176,ls),
(70,176,o),
(49,134,o),
(49,84,cs),
(49,40,o),
(76,0,o),
(123,0,cs)
);
},
{
closed = 1;
nodes = (
(619,1538,l),
(826,1538,ls),
(1107,1538,o),
(1448,1538,o),
(1448,1223,cs),
(1448,903,o),
(1175,889,o),
(887,889,cs),
(619,889,l)
);
}
);
width = 1768;
}
);
unicode = 80;
},
{
glyphname = Pdotaccent;
kernLeft = H;
kernRight = P;
lastChange = "2024-05-02 12:22:03 +0000";
layers = (
{
background = {
shapes = (
{
closed = 1;
nodes = (
(1448,1538,o),
(1107,1538,o),
(826,1538,cs),
(619,1538,l),
(619,889,l),
(887,889,ls),
(1175,889,o),
(1448,903,o),
(1448,1223,cs)
);
},
{
closed = 1;
nodes = (
(1684,745,o),
(1262,725,o),
(834,725,cs),
(619,725,l),
(619,176,l),
(924,176,ls),
(975,176,o),
(996,134,o),
(996,84,cs),
(996,40,o),
(969,0,o),
(922,0,cs),
(123,0,ls),
(76,0,o),
(49,40,o),
(49,84,cs),
(49,134,o),
(70,176,o),
(121,176,cs),
(385,176,l),
(385,1538,l),
(142,1538,ls),
(91,1538,o),
(70,1580,o),
(70,1630,cs),
(70,1674,o),
(97,1714,o),
(144,1714,cs),
(797,1714,ls),
(1244,1714,o),
(1684,1688,o),
(1684,1208,cs)
);
},
{
closed = 1;
nodes = (
(1016,1981,o),
(956,1902,o),
(867,1902,cs),
(770,1902,o),
(717,1981,o),
(717,2058,cs),
(717,2131,o),
(765,2203,o),
(869,2203,cs),
(961,2203,o),
(1016,2132,o),
(1016,2058,cs)
);
}
);
};
layerId = m001;
shapes = (
{
ref = P;
},
{
pos = (733,554);
ref = dotaccentcomb;
}
);
width = 1768;
}
);
unicode = 7766;
},
{
glyphname = Thorn;
kernLeft = H;
kernRight = Thorn;
lastChange = "2024-05-02 12:22:03 +0000";
layers = (
{
background = {
shapes = (
{
closed = 1;
nodes = (
(1545,471,o),
(1070,460,o),
(638,460,c),
(638,176,l),
(943,176,ls),
(994,176,o),
(1015,134,o),
(1015,84,cs),
(1015,40,o),
(988,0,o),
(941,0,cs),
(142,0,ls),
(95,0,o),
(68,40,o),
(68,84,cs),
(68,134,o),
(89,176,o),
(140,176,cs),
(404,176,l),
(404,1536,l),
(160,1536,ls),
(109,1536,o),
(88,1578,o),
(88,1628,cs),
(88,1672,o),
(115,1712,o),
(162,1712,cs),
(861,1712,ls),
(899,1712,o),
(921,1672,o),
(921,1628,cs),
(921,1578,o),
(900,1536,o),
(849,1536,cs),
(638,1536,l),
(638,1359,l),
(1098,1359,o),
(1545,1358,o),
(1545,907,cs)
);
},
{
closed = 1;
nodes = (
(1309,1175,o),
(1093,1191,o),
(638,1191,c),
(638,624,l),
(1105,624,o),
(1309,635,o),
(1309,917,cs)
);
}
);
};
layerId = m001;
shapes = (
{
closed = 1;
nodes = (
(941,0,ls),
(988,0,o),
(1015,40,o),
(1015,84,cs),
(1015,134,o),
(994,176,o),
(943,176,cs),
(638,176,l),
(638,460,l),
(1070,460,o),
(1545,471,o),
(1545,907,cs),
(1545,1358,o),
(1098,1359,o),
(638,1359,c),
(638,1536,l),
(849,1536,ls),
(900,1536,o),
(921,1578,o),
(921,1628,cs),
(921,1672,o),
(899,1712,o),
(861,1712,cs),
(162,1712,ls),
(115,1712,o),
(88,1672,o),
(88,1628,cs),
(88,1578,o),
(109,1536,o),
(160,1536,cs),
(404,1536,l),
(404,176,l),
(140,176,ls),
(89,176,o),
(68,134,o),
(68,84,cs),
(68,40,o),
(95,0,o),
(142,0,cs)
);
},
{
closed = 1;
nodes = (
(638,1191,l),
(1093,1191,o),
(1309,1175,o),
(1309,917,cs),
(1309,635,o),
(1105,624,o),
(638,624,c)
);
}
);
width = 1518;
}
);
unicode = 222;
},
{
glyphname = Q;
kernLeft = O;
kernRight = Q;
lastChange = "2024-05-02 12:22:03 +0000";
layers = (
{
anchors = (
{
name = bottom;
pos = (990,0);
},
{
name = top;
pos = (990,1714);
}
);
background = {
shapes = (
{
closed = 1;
nodes = (
(587,1550,o),
(355,1255,o),
(355,850,cs),
(355,444,o),
(588,164,o),
(990,164,cs),
(1400,164,o),
(1645,439,o),
(1645,850,cs),
(1645,1263,o),
(1400,1550,o),
(990,1550,cs)
);
},
{
closed = 1;
nodes = (
(1384,-161,l),
(1417,-178,o),
(1454,-183,o),
(1492,-183,cs),
(1552,-183,o),
(1623,-154,o),
(1705,-95,cs),
(1717,-87,o),
(1731,-83,o),
(1746,-83,cs),
(1802,-83,o),
(1855,-136,o),
(1855,-191,cs),
(1855,-314,o),
(1584,-384,o),
(1480,-384,cs),
(1213,-384,o),
(1093,-91,o),
(894,-21,c),
(417,18,o),
(93,352,o),
(93,850,cs),
(93,1382,o),
(460,1739,o),
(990,1739,cs),
(1520,1739,o),
(1887,1382,o),
(1887,850,cs),
(1887,377,o),
(1595,52,o),
(1156,-13,c)
);
}
);
};
layerId = m001;
shapes = (
{
closed = 1;
nodes = (
(1584,-384,o),
(1855,-314,o),
(1855,-191,cs),
(1855,-136,o),
(1802,-83,o),
(1746,-83,cs),
(1731,-83,o),
(1717,-87,o),
(1705,-95,cs),
(1623,-154,o),
(1552,-183,o),
(1492,-183,cs),
(1454,-183,o),
(1417,-178,o),
(1384,-161,c),
(1156,-13,l),
(1595,52,o),
(1887,377,o),
(1887,850,cs),
(1887,1382,o),
(1520,1739,o),
(990,1739,cs),
(460,1739,o),
(93,1382,o),
(93,850,cs),
(93,352,o),
(417,18,o),
(894,-21,c),
(1093,-91,o),
(1213,-384,o),
(1480,-384,cs)
);
},
{
closed = 1;
nodes = (
(588,164,o),
(355,444,o),
(355,850,cs),
(355,1255,o),
(587,1550,o),
(990,1550,cs),
(1400,1550,o),
(1645,1263,o),
(1645,850,cs),
(1645,439,o),
(1400,164,o),
(990,164,cs)
);
}
);
width = 1980;
}
);
unicode = 81;
},
{
glyphname = R;
kernLeft = H;
kernRight = R;
lastChange = "2024-05-02 12:22:03 +0000";
layers = (
{
anchors = (
{
name = bottom;
pos = (921,0);
},
{
name = top;
pos = (921,1714);
}
);
background = {
shapes = (
{
closed = 1;
nodes = (
(1067,942,o),
(1338,947,o),
(1338,1239,cs),
(1338,1537,o),
(1022,1538,o),
(725,1538,cs),
(578,1538,l),
(578,942,l),
(762,942,ls)
);
},
{
closed = 1;
nodes = (
(1581,976,o),
(1361,861,o),
(1101,816,c),
(1268,774,o),
(1343,686,o),
(1403,540,cs),
(1553,177,l),
(1700,177,ls),
(1780,177,o),
(1808,153,o),
(1808,84,cs),
(1808,9,o),
(1764,0,o),
(1701,0,cs),
(1187,0,ls),
(1140,0,o),
(1113,40,o),
(1113,84,cs),
(1113,134,o),
(1134,177,o),
(1185,177,cs),
(1314,177,l),
(1202,460,ls),
(1142,611,o),
(1059,764,o),
(805,764,cs),
(578,764,l),
(578,177,l),
(842,177,ls),
(893,177,o),
(914,134,o),
(914,84,cs),
(914,40,o),
(887,0,o),
(840,0,cs),
(123,0,ls),
(76,0,o),
(49,40,o),
(49,84,cs),
(49,134,o),
(70,177,o),
(121,177,cs),
(344,177,l),
(344,1538,l),
(162,1538,ls),
(111,1538,o),
(90,1580,o),
(90,1630,cs),
(90,1674,o),
(117,1714,o),
(164,1714,cs),
(756,1714,ls),
(1191,1714,o),
(1581,1678,o),
(1581,1249,cs)
);
}
);
};
layerId = m001;
shapes = (
{
closed = 1;
nodes = (
(840,0,ls),
(887,0,o),
(914,40,o),
(914,84,cs),
(914,134,o),
(893,177,o),
(842,177,cs),
(578,177,l),
(578,764,l),
(805,764,ls),
(1059,764,o),
(1142,611,o),
(1202,460,cs),
(1314,177,l),
(1185,177,ls),
(1134,177,o),
(1113,134,o),
(1113,84,cs),
(1113,40,o),
(1140,0,o),
(1187,0,cs),
(1701,0,ls),
(1764,0,o),
(1808,9,o),
(1808,84,cs),
(1808,153,o),
(1780,177,o),
(1700,177,cs),
(1553,177,l),
(1403,540,ls),
(1343,686,o),
(1268,774,o),
(1101,816,c),
(1361,861,o),
(1581,976,o),
(1581,1249,cs),
(1581,1678,o),
(1191,1714,o),
(756,1714,cs),
(164,1714,ls),
(117,1714,o),
(90,1674,o),
(90,1630,cs),
(90,1580,o),
(111,1538,o),
(162,1538,cs),
(344,1538,l),
(344,177,l),
(121,177,ls),
(70,177,o),
(49,134,o),
(49,84,cs),
(49,40,o),
(76,0,o),
(123,0,cs)
);
},
{
closed = 1;
nodes = (
(578,1538,l),
(725,1538,ls),
(1022,1538,o),
(1338,1537,o),
(1338,1239,cs),
(1338,947,o),
(1067,942,o),
(762,942,cs),
(578,942,l)
);
}
);
width = 1841;
}
);
unicode = 82;
},
{
glyphname = Racute;
kernLeft = H;
kernRight = R;
lastChange = "2024-05-02 12:22:03 +0000";
layers = (
{
background = {
shapes = (
{
closed = 1;
nodes = (
(1067,942,o),
(1338,947,o),
(1338,1239,cs),
(1338,1537,o),
(1022,1538,o),
(725,1538,cs),
(578,1538,l),
(578,942,l),
(762,942,ls)
);
},
{
closed = 1;
nodes = (
(1581,976,o),
(1361,861,o),
(1101,816,c),
(1268,774,o),
(1343,686,o),
(1403,540,cs),
(1553,177,l),
(1700,177,ls),
(1780,177,o),
(1808,153,o),
(1808,84,cs),
(1808,9,o),
(1764,0,o),
(1701,0,cs),
(1187,0,ls),
(1140,0,o),
(1113,40,o),
(1113,84,cs),
(1113,134,o),
(1134,177,o),
(1185,177,cs),
(1314,177,l),
(1202,460,ls),
(1142,611,o),
(1059,764,o),
(805,764,cs),
(578,764,l),
(578,177,l),
(842,177,ls),
(893,177,o),
(914,134,o),
(914,84,cs),
(914,40,o),
(887,0,o),
(840,0,cs),
(123,0,ls),
(76,0,o),
(49,40,o),
(49,84,cs),
(49,134,o),
(70,177,o),
(121,177,cs),
(344,177,l),
(344,1538,l),
(162,1538,ls),
(111,1538,o),
(90,1580,o),
(90,1630,cs),
(90,1674,o),
(117,1714,o),
(164,1714,cs),
(756,1714,ls),
(1191,1714,o),
(1581,1678,o),
(1581,1249,cs)
);
},
{
closed = 1;
nodes = (
(1396,2364,o),
(1438,2321,o),
(1438,2280,cs),
(1438,2262,o),
(1430,2247,o),
(1412,2235,cs),
(1254,2136,o),
(1077,2021,o),
(914,1928,cs),
(907,1924,o),
(900,1921,o),
(895,1921,cs),
(869,1921,o),
(846,1948,o),
(846,1973,cs),
(846,1987,o),
(852,1996,o),
(863,2003,cs),
(1013,2103,o),
(1177,2232,o),
(1313,2349,cs),
(1324,2359,o),
(1338,2364,o),
(1354,2364,cs)
);
}
);
};
layerId = m001;
shapes = (
{
ref = R;
},
{
pos = (876,554);
ref = acutecomb;
}
);
width = 1841;
}
);
unicode = 340;
},
{
glyphname = Rcaron;
kernLeft = H;
kernRight = R;
lastChange = "2024-05-02 12:22:03 +0000";
layers = (
{
background = {
shapes = (
{
closed = 1;
nodes = (
(1067,942,o),
(1338,947,o),
(1338,1239,cs),
(1338,1537,o),
(1022,1538,o),
(725,1538,cs),
(578,1538,l),
(578,942,l),
(762,942,ls)
);
},
{
closed = 1;
nodes = (
(1581,976,o),
(1361,861,o),
(1101,816,c),
(1268,774,o),
(1343,686,o),
(1403,540,cs),
(1553,177,l),
(1700,177,ls),
(1780,177,o),
(1808,153,o),
(1808,84,cs),
(1808,9,o),
(1764,0,o),
(1701,0,cs),
(1187,0,ls),
(1140,0,o),
(1113,40,o),
(1113,84,cs),
(1113,134,o),
(1134,177,o),
(1185,177,cs),
(1314,177,l),
(1202,460,ls),
(1142,611,o),
(1059,764,o),
(805,764,cs),
(578,764,l),
(578,177,l),
(842,177,ls),
(893,177,o),
(914,134,o),
(914,84,cs),
(914,40,o),
(887,0,o),
(840,0,cs),
(123,0,ls),
(76,0,o),
(49,40,o),
(49,84,cs),
(49,134,o),
(70,177,o),
(121,177,cs),
(344,177,l),
(344,1538,l),
(162,1538,ls),
(111,1538,o),
(90,1580,o),
(90,1630,cs),
(90,1674,o),
(117,1714,o),
(164,1714,cs),
(756,1714,ls),
(1191,1714,o),
(1581,1678,o),
(1581,1249,cs)
);
},
{
closed = 1;
nodes = (
(880,1927,o),
(861,1933,o),
(853,1944,cs),
(583,2358,l),
(576,2366,o),
(573,2375,o),
(573,2383,cs),
(573,2407,o),
(600,2426,o),
(627,2426,cs),
(639,2426,o),
(653,2424,o),
(661,2413,cs),
(899,2107,l),
(1137,2413,ls),
(1145,2424,o),
(1159,2426,o),
(1171,2426,cs),
(1198,2426,o),
(1225,2407,o),
(1225,2383,cs),
(1225,2375,o),
(1222,2366,o),
(1215,2358,c),
(945,1944,ls),
(937,1933,o),
(918,1927,o),
(899,1927,cs)
);
}
);
};
layerId = m001;
shapes = (
{
ref = R;
},
{
pos = (625,554);
ref = caroncomb;
}
);
width = 1841;
}
);
unicode = 344;
},
{
glyphname = Rcommaaccent;
kernLeft = H;
kernRight = R;
lastChange = "2024-05-02 12:22:03 +0000";
layers = (
{
background = {
shapes = (
{
closed = 1;
nodes = (
(1067,942,o),
(1338,947,o),
(1338,1239,cs),
(1338,1537,o),
(1022,1538,o),
(725,1538,cs),
(578,1538,l),
(578,942,l),
(762,942,ls)
);
},
{
closed = 1;
nodes = (
(1581,976,o),
(1361,861,o),
(1101,816,c),
(1268,774,o),
(1343,686,o),
(1403,540,cs),
(1553,177,l),
(1700,177,ls),
(1780,177,o),
(1808,153,o),
(1808,84,cs),
(1808,9,o),
(1764,0,o),
(1701,0,cs),
(1187,0,ls),
(1140,0,o),
(1113,40,o),
(1113,84,cs),
(1113,134,o),
(1134,177,o),
(1185,177,cs),
(1314,177,l),
(1202,460,ls),
(1142,611,o),
(1059,764,o),
(805,764,cs),
(578,764,l),
(578,177,l),
(842,177,ls),
(893,177,o),
(914,134,o),
(914,84,cs),
(914,40,o),
(887,0,o),
(840,0,cs),
(123,0,ls),
(76,0,o),
(49,40,o),
(49,84,cs),
(49,134,o),
(70,177,o),
(121,177,cs),
(344,177,l),
(344,1538,l),
(162,1538,ls),
(111,1538,o),
(90,1580,o),
(90,1630,cs),
(90,1674,o),
(117,1714,o),
(164,1714,cs),
(756,1714,ls),
(1191,1714,o),
(1581,1678,o),
(1581,1249,cs)
);
},
{
closed = 1;
nodes = (
(1019,-123,o),
(1114,-197,o),
(1114,-345,cs),
(1114,-556,o),
(991,-690,o),
(840,-766,cs),
(824,-775,o),
(807,-779,o),
(793,-779,cs),
(750,-779,o),
(718,-746,o),
(718,-711,cs),
(718,-693,o),
(727,-674,o),
(749,-659,cs),
(826,-608,o),
(927,-542,o),
(927,-428,c),
(819,-428,o),
(739,-380,o),
(739,-278,cs),
(739,-175,o),
(821,-123,o),
(909,-123,cs)
);
}
);
};
layerId = m001;
shapes = (
{
ref = R;
},
{
pos = (672,0);
ref = commaaccentcomb;
}
);
width = 1841;
}
);
unicode = 342;
},
{
glyphname = Rdblgrave;
kernLeft = H;
kernRight = R;
lastChange = "2024-05-02 12:22:03 +0000";
layers = (
{
background = {
shapes = (
{
closed = 1;
nodes = (
(1067,942,o),
(1338,947,o),
(1338,1239,cs),
(1338,1537,o),
(1022,1538,o),
(725,1538,cs),
(578,1538,l),
(578,942,l),
(762,942,ls)
);
},
{
closed = 1;
nodes = (
(1581,976,o),
(1361,861,o),
(1101,816,c),
(1268,774,o),
(1343,686,o),
(1403,540,cs),
(1553,177,l),
(1700,177,ls),
(1780,177,o),
(1808,153,o),
(1808,84,cs),
(1808,9,o),
(1764,0,o),
(1701,0,cs),
(1187,0,ls),
(1140,0,o),
(1113,40,o),
(1113,84,cs),
(1113,134,o),
(1134,177,o),
(1185,177,cs),
(1314,177,l),
(1202,460,ls),
(1142,611,o),
(1059,764,o),
(805,764,cs),
(578,764,l),
(578,177,l),
(842,177,ls),
(893,177,o),
(914,134,o),
(914,84,cs),
(914,40,o),
(887,0,o),
(840,0,cs),
(123,0,ls),
(76,0,o),
(49,40,o),
(49,84,cs),
(49,134,o),
(70,177,o),
(121,177,cs),
(344,177,l),
(344,1538,l),
(162,1538,ls),
(111,1538,o),
(90,1580,o),
(90,1630,cs),
(90,1674,o),
(117,1714,o),
(164,1714,cs),
(756,1714,ls),
(1191,1714,o),
(1581,1678,o),
(1581,1249,cs)
);
},
{
closed = 1;
nodes = (
(618,2364,o),
(576,2321,o),
(576,2280,cs),
(576,2262,o),
(584,2247,o),
(602,2235,cs),
(760,2136,o),
(937,2021,o),
(1100,1928,cs),
(1107,1924,o),
(1114,1921,o),
(1119,1921,cs),
(1145,1921,o),
(1168,1948,o),
(1168,1973,cs),
(1168,1987,o),
(1162,1996,o),
(1151,2003,cs),
(1001,2103,o),
(837,2232,o),
(701,2349,cs),
(690,2359,o),
(676,2364,o),
(660,2364,cs)
);
},
{
closed = 1;
nodes = (
(243,2364,o),
(201,2321,o),
(201,2280,cs),
(201,2262,o),
(210,2247,o),
(228,2235,cs),
(386,2136,o),
(562,2021,o),
(725,1928,cs),
(732,1924,o),
(739,1921,o),
(744,1921,cs),
(770,1921,o),
(793,1948,o),
(793,1973,cs),
(793,1987,o),
(787,1996,o),
(776,2003,cs),
(626,2103,o),
(462,2232,o),
(326,2349,cs),
(315,2359,o),
(301,2364,o),
(285,2364,cs)
);
}
);
};
layerId = m001;
shapes = (
{
ref = R;
},
{
pos = (228,494);
ref = dblgravecomb;
}
);
width = 1841;
}
);
unicode = 528;
},
{
glyphname = Rinvertedbreve;
kernLeft = H;
kernRight = R;
lastChange = "2024-05-02 12:22:03 +0000";
layers = (
{
background = {
shapes = (
{
closed = 1;
nodes = (
(1067,942,o),
(1338,947,o),
(1338,1239,cs),
(1338,1537,o),
(1022,1538,o),
(725,1538,cs),
(578,1538,l),
(578,942,l),
(762,942,ls)
);
},
{
closed = 1;
nodes = (
(1581,976,o),
(1361,861,o),
(1101,816,c),
(1268,774,o),
(1343,686,o),
(1403,540,cs),
(1553,177,l),
(1700,177,ls),
(1780,177,o),
(1808,153,o),
(1808,84,cs),
(1808,9,o),
(1764,0,o),
(1701,0,cs),
(1187,0,ls),
(1140,0,o),
(1113,40,o),
(1113,84,cs),
(1113,134,o),
(1134,177,o),
(1185,177,cs),
(1314,177,l),
(1202,460,ls),
(1142,611,o),
(1059,764,o),
(805,764,cs),
(578,764,l),
(578,177,l),
(842,177,ls),
(893,177,o),
(914,134,o),
(914,84,cs),
(914,40,o),
(887,0,o),
(840,0,cs),
(123,0,ls),
(76,0,o),
(49,40,o),
(49,84,cs),
(49,134,o),
(70,177,o),
(121,177,cs),
(344,177,l),
(344,1538,l),
(162,1538,ls),
(111,1538,o),
(90,1580,o),
(90,1630,cs),
(90,1674,o),
(117,1714,o),
(164,1714,cs),
(756,1714,ls),
(1191,1714,o),
(1581,1678,o),
(1581,1249,cs)
);
},
{
closed = 1;
nodes = (
(627,1876,o),
(600,1893,o),
(600,1917,cs),
(600,2129,o),
(748,2239,o),
(896,2239,cs),
(1044,2239,o),
(1192,2128,o),
(1192,1917,cs),
(1192,1893,o),
(1165,1876,o),
(1139,1876,cs),
(1121,1876,o),
(1103,1884,o),
(1096,1904,cs),
(1050,2025,o),
(977,2077,o),
(896,2077,cs),
(815,2077,o),
(742,2025,o),
(696,1904,cs),
(689,1884,o),
(671,1876,o),
(653,1876,cs)
);
}
);
};
layerId = m001;
shapes = (
{
ref = R;
},
{
pos = (625,554);
ref = breveinvertedcomb;
}
);
width = 1841;
}
);
unicode = 530;
},
{
glyphname = S;
kernLeft = S;
kernRight = S;
lastChange = "2024-05-02 12:22:03 +0000";
layers = (
{
anchors = (
{
name = bottom;
pos = (755,0);
},
{
name = top;
pos = (755,1714);
}
);
background = {
shapes = (
{
closed = 1;
nodes = (
(480,1581,o),
(406,1439,o),
(406,1287,cs),
(406,1157,o),
(496,1082,o),
(675,1038,cs),
(962,967,ls),
(1226,901,o),
(1407,775,o),
(1407,458,cs),
(1407,111,o),
(1086,-27,o),
(735,-27,cs),
(593,-27,o),
(439,7,o),
(311,95,c),
(306,49,o),
(285,-25,o),
(239,-25,cs),
(191,-25,o),
(160,-6,o),
(155,39,cs),
(98,535,l),
(98,588,o),
(130,614,o),
(194,614,cs),
(234,614,o),
(269,589,o),
(274,549,cs),
(290,410,l),
(303,286,o),
(503,150,o),
(710,150,cs),
(939,150,o),
(1202,208,o),
(1202,459,cs),
(1202,640,o),
(1077,689,o),
(927,732,cs),
(599,825,l),
(359,879,o),
(185,1001,o),
(185,1271,cs),
(185,1564,o),
(446,1739,o),
(769,1739,cs),
(909,1739,o),
(1067,1707,o),
(1164,1627,c),
(1164,1683,o),
(1203,1738,o),
(1258,1738,cs),
(1298,1738,o),
(1333,1712,o),
(1338,1672,c),
(1345,1275,l),
(1345,1217,o),
(1306,1193,o),
(1253,1193,cs),
(1206,1193,o),
(1174,1212,o),
(1169,1256,c),
(1165,1372,l),
(1147,1524,o),
(973,1581,o),
(802,1581,cs)
);
}
);
};
layerId = m001;
shapes = (
{
closed = 1;
nodes = (
(1086,-27,o),
(1407,111,o),
(1407,458,cs),
(1407,775,o),
(1226,901,o),
(962,967,cs),
(675,1038,ls),
(496,1082,o),
(406,1157,o),
(406,1287,cs),
(406,1439,o),
(480,1581,o),
(802,1581,cs),
(973,1581,o),
(1147,1524,o),
(1165,1372,c),
(1169,1256,l),
(1174,1212,o),
(1206,1193,o),
(1253,1193,cs),
(1306,1193,o),
(1345,1217,o),
(1345,1275,c),
(1338,1672,l),
(1333,1712,o),
(1298,1738,o),
(1258,1738,cs),
(1203,1738,o),
(1164,1683,o),
(1164,1627,c),
(1067,1707,o),
(909,1739,o),
(769,1739,cs),
(446,1739,o),
(185,1564,o),
(185,1271,cs),
(185,1001,o),
(359,879,o),
(599,825,c),
(927,732,ls),
(1077,689,o),
(1202,640,o),
(1202,459,cs),
(1202,208,o),
(939,150,o),
(710,150,cs),
(503,150,o),
(303,286,o),
(290,410,c),
(274,549,ls),
(269,589,o),
(234,614,o),
(194,614,cs),
(130,614,o),
(98,588,o),
(98,535,c),
(155,39,ls),
(160,-6,o),
(191,-25,o),
(239,-25,cs),
(285,-25,o),
(306,49,o),
(311,95,c),
(439,7,o),
(593,-27,o),
(735,-27,cs)
);
}
);
width = 1510;
}
);
unicode = 83;
},
{
glyphname = Sacute;
kernLeft = S;
kernRight = S;
lastChange = "2024-05-02 12:22:03 +0000";
layers = (
{
background = {
shapes = (
{
closed = 1;
nodes = (
(480,1581,o),
(406,1439,o),
(406,1287,cs),
(406,1157,o),
(496,1082,o),
(675,1038,cs),
(962,967,ls),
(1226,901,o),
(1407,775,o),
(1407,458,cs),
(1407,111,o),
(1086,-27,o),
(735,-27,cs),
(593,-27,o),
(439,7,o),
(311,95,c),
(306,49,o),
(285,-25,o),
(239,-25,cs),
(191,-25,o),
(160,-6,o),
(155,39,cs),
(98,535,l),
(98,588,o),
(130,614,o),
(194,614,cs),
(234,614,o),
(269,589,o),
(274,549,cs),
(290,410,l),
(303,286,o),
(503,150,o),
(710,150,cs),
(939,150,o),
(1202,208,o),
(1202,459,cs),
(1202,640,o),
(1077,689,o),
(927,732,cs),
(599,825,l),
(359,879,o),
(185,1001,o),
(185,1271,cs),
(185,1564,o),
(446,1739,o),
(769,1739,cs),
(909,1739,o),
(1067,1707,o),
(1164,1627,c),
(1164,1683,o),
(1203,1738,o),
(1258,1738,cs),
(1298,1738,o),
(1333,1712,o),
(1338,1672,c),
(1345,1275,l),
(1345,1217,o),
(1306,1193,o),
(1253,1193,cs),
(1206,1193,o),
(1174,1212,o),
(1169,1256,c),
(1165,1372,l),
(1147,1524,o),
(973,1581,o),
(802,1581,cs)
);
},
{
closed = 1;
nodes = (
(1276,2364,o),
(1318,2321,o),
(1318,2280,cs),
(1318,2262,o),
(1310,2247,o),
(1292,2235,cs),
(1134,2136,o),
(957,2021,o),
(794,1928,cs),
(787,1924,o),
(780,1921,o),
(775,1921,cs),
(749,1921,o),
(726,1948,o),
(726,1973,cs),
(726,1987,o),
(732,1996,o),
(743,2003,cs),
(893,2103,o),
(1057,2232,o),
(1193,2349,cs),
(1204,2359,o),
(1218,2364,o),
(1234,2364,cs)
);
}
);
};
layerId = m001;
shapes = (
{
ref = S;
},
{
pos = (710,554);
ref = acutecomb;
}
);
width = 1510;
}
);
unicode = 346;
},
{
glyphname = Scaron;
kernLeft = S;
kernRight = S;
lastChange = "2024-05-02 12:22:03 +0000";
layers = (
{
background = {
shapes = (
{
closed = 1;
nodes = (
(480,1581,o),
(406,1439,o),
(406,1287,cs),
(406,1157,o),
(496,1082,o),
(675,1038,cs),
(962,967,ls),
(1226,901,o),
(1407,775,o),
(1407,458,cs),
(1407,111,o),
(1086,-27,o),
(735,-27,cs),
(593,-27,o),
(439,7,o),
(311,95,c),
(306,49,o),
(285,-25,o),
(239,-25,cs),
(191,-25,o),
(160,-6,o),
(155,39,cs),
(98,535,l),
(98,588,o),
(130,614,o),
(194,614,cs),
(234,614,o),
(269,589,o),
(274,549,cs),
(290,410,l),
(303,286,o),
(503,150,o),
(710,150,cs),
(939,150,o),
(1202,208,o),
(1202,459,cs),
(1202,640,o),
(1077,689,o),
(927,732,cs),
(599,825,l),
(359,879,o),
(185,1001,o),
(185,1271,cs),
(185,1564,o),
(446,1739,o),
(769,1739,cs),
(909,1739,o),
(1067,1707,o),
(1164,1627,c),
(1164,1683,o),
(1203,1738,o),
(1258,1738,cs),
(1298,1738,o),
(1333,1712,o),
(1338,1672,c),
(1345,1275,l),
(1345,1217,o),
(1306,1193,o),
(1253,1193,cs),
(1206,1193,o),
(1174,1212,o),
(1169,1256,c),
(1165,1372,l),
(1147,1524,o),
(973,1581,o),
(802,1581,cs)
);
},
{
closed = 1;
nodes = (
(760,1927,o),
(741,1933,o),
(733,1944,cs),
(463,2358,l),
(456,2366,o),
(453,2375,o),
(453,2383,cs),
(453,2407,o),
(480,2426,o),
(507,2426,cs),
(519,2426,o),
(533,2424,o),
(541,2413,cs),
(779,2107,l),
(1017,2413,ls),
(1025,2424,o),
(1039,2426,o),
(1051,2426,cs),
(1078,2426,o),
(1105,2407,o),
(1105,2383,cs),
(1105,2375,o),
(1102,2366,o),
(1095,2358,c),
(825,1944,ls),
(817,1933,o),
(798,1927,o),
(779,1927,cs)
);
}
);
};
layerId = m001;
shapes = (
{
ref = S;
},
{
pos = (459,554);
ref = caroncomb;
}
);
width = 1510;
}
);
unicode = 352;
},
{
glyphname = Scedilla;
kernLeft = S;
kernRight = S;
lastChange = "2024-05-02 12:22:03 +0000";
layers = (
{
background = {
shapes = (
{
closed = 1;
nodes = (
(480,1581,o),
(406,1439,o),
(406,1287,cs),
(406,1157,o),
(496,1082,o),
(675,1038,cs),
(962,967,ls),
(1226,901,o),
(1407,775,o),
(1407,458,cs),
(1407,111,o),
(1086,-27,o),
(735,-27,cs),
(593,-27,o),
(439,7,o),
(311,95,c),
(306,49,o),
(285,-25,o),
(239,-25,cs),
(191,-25,o),
(160,-6,o),
(155,39,cs),
(98,535,l),
(98,588,o),
(130,614,o),
(194,614,cs),
(234,614,o),
(269,589,o),
(274,549,cs),
(290,410,l),
(303,286,o),
(503,150,o),
(710,150,cs),
(939,150,o),
(1202,208,o),
(1202,459,cs),
(1202,640,o),
(1077,689,o),
(927,732,cs),
(599,825,l),
(359,879,o),
(185,1001,o),
(185,1271,cs),
(185,1564,o),
(446,1739,o),
(769,1739,cs),
(909,1739,o),
(1067,1707,o),
(1164,1627,c),
(1164,1683,o),
(1203,1738,o),
(1258,1738,cs),
(1298,1738,o),
(1333,1712,o),
(1338,1672,c),
(1345,1275,l),
(1345,1217,o),
(1306,1193,o),
(1253,1193,cs),
(1206,1193,o),
(1174,1212,o),
(1169,1256,c),
(1165,1372,l),
(1147,1524,o),
(973,1581,o),
(802,1581,cs)
);
},
{
closed = 1;
nodes = (
(853,-501,l),
(845,-619,o),
(776,-675,o),
(711,-675,cs),
(653,-675,o),
(599,-629,o),
(599,-538,cs),
(599,-472,o),
(755,-49,o),
(785,0,c),
(913,0,l)
);
}
);
};
layerId = m001;
shapes = (
{
ref = S;
},
{
pos = (508,0);
ref = cedillacomb;
}
);
width = 1510;
}
);
unicode = 350;
},
{
glyphname = Scircumflex;
kernLeft = S;
kernRight = S;
lastChange = "2024-05-02 12:22:03 +0000";
layers = (
{
background = {
shapes = (
{
closed = 1;
nodes = (
(480,1581,o),
(406,1439,o),
(406,1287,cs),
(406,1157,o),
(496,1082,o),
(675,1038,cs),
(962,967,ls),
(1226,901,o),
(1407,775,o),
(1407,458,cs),
(1407,111,o),
(1086,-27,o),
(735,-27,cs),
(593,-27,o),
(439,7,o),
(311,95,c),
(306,49,o),
(285,-25,o),
(239,-25,cs),
(191,-25,o),
(160,-6,o),
(155,39,cs),
(98,535,l),
(98,588,o),
(130,614,o),
(194,614,cs),
(234,614,o),
(269,589,o),
(274,549,cs),
(290,410,l),
(303,286,o),
(503,150,o),
(710,150,cs),
(939,150,o),
(1202,208,o),
(1202,459,cs),
(1202,640,o),
(1077,689,o),
(927,732,cs),
(599,825,l),
(359,879,o),
(185,1001,o),
(185,1271,cs),
(185,1564,o),
(446,1739,o),
(769,1739,cs),
(909,1739,o),
(1067,1707,o),
(1164,1627,c),
(1164,1683,o),
(1203,1738,o),
(1258,1738,cs),
(1298,1738,o),
(1333,1712,o),
(1338,1672,c),
(1345,1275,l),
(1345,1217,o),
(1306,1193,o),
(1253,1193,cs),
(1206,1193,o),
(1174,1212,o),
(1169,1256,c),
(1165,1372,l),
(1147,1524,o),
(973,1581,o),
(802,1581,cs)
);
},
{
closed = 1;
nodes = (
(792,2426,o),
(811,2420,o),
(819,2409,cs),
(1089,1995,l),
(1096,1987,o),
(1099,1978,o),
(1099,1970,cs),
(1099,1946,o),
(1072,1927,o),
(1045,1927,cs),
(1033,1927,o),
(1019,1929,o),
(1011,1940,cs),
(773,2246,l),
(535,1940,ls),
(527,1929,o),
(513,1927,o),
(501,1927,cs),
(474,1927,o),
(447,1946,o),
(447,1970,cs),
(447,1978,o),
(450,1987,o),
(457,1995,c),
(727,2409,ls),
(735,2420,o),
(754,2426,o),
(773,2426,cs)
);
}
);
};
layerId = m001;
shapes = (
{
ref = S;
},
{
pos = (459,554);
ref = circumflexcomb;
}
);
width = 1510;
}
);
unicode = 348;
},
{
glyphname = Scommaaccent;
kernLeft = S;
kernRight = S;
lastChange = "2024-05-02 12:22:03 +0000";
layers = (
{
background = {
shapes = (
{
closed = 1;
nodes = (
(480,1581,o),
(406,1439,o),
(406,1287,cs),
(406,1157,o),
(496,1082,o),
(675,1038,cs),
(962,967,ls),
(1226,901,o),
(1407,775,o),
(1407,458,cs),
(1407,111,o),
(1086,-27,o),
(735,-27,cs),
(593,-27,o),
(439,7,o),
(311,95,c),
(306,49,o),
(285,-25,o),
(239,-25,cs),
(191,-25,o),
(160,-6,o),
(155,39,cs),
(98,535,l),
(98,588,o),
(130,614,o),
(194,614,cs),
(234,614,o),
(269,589,o),
(274,549,cs),
(290,410,l),
(303,286,o),
(503,150,o),
(710,150,cs),
(939,150,o),
(1202,208,o),
(1202,459,cs),
(1202,640,o),
(1077,689,o),
(927,732,cs),
(599,825,l),
(359,879,o),
(185,1001,o),
(185,1271,cs),
(185,1564,o),
(446,1739,o),
(769,1739,cs),
(909,1739,o),
(1067,1707,o),
(1164,1627,c),
(1164,1683,o),
(1203,1738,o),
(1258,1738,cs),
(1298,1738,o),
(1333,1712,o),
(1338,1672,c),
(1345,1275,l),
(1345,1217,o),
(1306,1193,o),
(1253,1193,cs),
(1206,1193,o),
(1174,1212,o),
(1169,1256,c),
(1165,1372,l),
(1147,1524,o),
(973,1581,o),
(802,1581,cs)
);
},
{
closed = 1;
nodes = (
(859,-149,o),
(954,-223,o),
(954,-371,cs),
(954,-582,o),
(831,-716,o),
(680,-792,cs),
(664,-801,o),
(647,-805,o),
(633,-805,cs),
(590,-805,o),
(558,-772,o),
(558,-737,cs),
(558,-719,o),
(567,-700,o),
(589,-685,cs),
(666,-634,o),
(767,-568,o),
(767,-454,c),
(659,-454,o),
(579,-406,o),
(579,-304,cs),
(579,-201,o),
(661,-149,o),
(749,-149,cs)
);
}
);
};
layerId = m001;
shapes = (
{
ref = S;
},
{
pos = (506,0);
ref = commaaccentcomb;
}
);
width = 1510;
}
);
unicode = 536;
},
{
glyphname = Sdotaccent;
kernLeft = S;
kernRight = S;
lastChange = "2024-05-02 12:22:03 +0000";
layers = (
{
background = {
shapes = (
{
closed = 1;
nodes = (
(480,1581,o),
(406,1439,o),
(406,1287,cs),
(406,1157,o),
(496,1082,o),
(675,1038,cs),
(962,967,ls),
(1226,901,o),
(1407,775,o),
(1407,458,cs),
(1407,111,o),
(1086,-27,o),
(735,-27,cs),
(593,-27,o),
(439,7,o),
(311,95,c),
(306,49,o),
(285,-25,o),
(239,-25,cs),
(191,-25,o),
(160,-6,o),
(155,39,cs),
(98,535,l),
(98,588,o),
(130,614,o),
(194,614,cs),
(234,614,o),
(269,589,o),
(274,549,cs),
(290,410,l),
(303,286,o),
(503,150,o),
(710,150,cs),
(939,150,o),
(1202,208,o),
(1202,459,cs),
(1202,640,o),
(1077,689,o),
(927,732,cs),
(599,825,l),
(359,879,o),
(185,1001,o),
(185,1271,cs),
(185,1564,o),
(446,1739,o),
(769,1739,cs),
(909,1739,o),
(1067,1707,o),
(1164,1627,c),
(1164,1683,o),
(1203,1738,o),
(1258,1738,cs),
(1298,1738,o),
(1333,1712,o),
(1338,1672,c),
(1345,1275,l),
(1345,1217,o),
(1306,1193,o),
(1253,1193,cs),
(1206,1193,o),
(1174,1212,o),
(1169,1256,c),
(1165,1372,l),
(1147,1524,o),
(973,1581,o),
(802,1581,cs)
);
},
{
closed = 1;
nodes = (
(902,1981,o),
(842,1902,o),
(753,1902,cs),
(656,1902,o),
(603,1981,o),
(603,2058,cs),
(603,2131,o),
(651,2203,o),
(755,2203,cs),
(847,2203,o),
(902,2132,o),
(902,2058,cs)
);
}
);
};
layerId = m001;
shapes = (
{
ref = S;
},
{
pos = (604,554);
ref = dotaccentcomb;
}
);
width = 1510;
}
);
unicode = 7776;
},
{
glyphname = T;
kernLeft = T;
kernRight = T;
lastChange = "2024-05-02 12:22:03 +0000";
layers = (
{
anchors = (
{
name = bottom;
pos = (831,0);
},
{
name = center;
pos = (831,857);
},
{
name = top;
pos = (831,1714);
}
);
background = {
shapes = (
{
closed = 1;
nodes = (
(58,1184,o),
(34,1216,o),
(34,1264,c),
(49,1636,ls),
(51,1688,o),
(65,1714,o),
(110,1714,cs),
(1552,1714,ls),
(1595,1714,o),
(1611,1687,o),
(1613,1636,cs),
(1628,1264,l),
(1628,1216,o),
(1604,1184,o),
(1560,1184,cs),
(1513,1184,o),
(1483,1201,o),
(1478,1251,cs),
(1447,1538,l),
(937,1538,l),
(937,176,l),
(1202,176,ls),
(1253,176,o),
(1273,134,o),
(1273,84,cs),
(1273,40,o),
(1247,0,o),
(1200,0,cs),
(442,0,ls),
(395,0,o),
(368,40,o),
(368,84,cs),
(368,134,o),
(389,176,o),
(440,176,cs),
(704,176,l),
(704,1538,l),
(214,1538,l),
(184,1251,ls),
(179,1200,o),
(149,1184,o),
(102,1184,cs)
);
}
);
};
layerId = m001;
shapes = (
{
closed = 1;
nodes = (
(1200,0,ls),
(1247,0,o),
(1273,40,o),
(1273,84,cs),
(1273,134,o),
(1253,176,o),
(1202,176,cs),
(937,176,l),
(937,1538,l),
(1447,1538,l),
(1478,1251,ls),
(1483,1201,o),
(1513,1184,o),
(1560,1184,cs),
(1604,1184,o),
(1628,1216,o),
(1628,1264,c),
(1613,1636,ls),
(1611,1687,o),
(1595,1714,o),
(1552,1714,cs),
(110,1714,ls),
(65,1714,o),
(51,1688,o),
(49,1636,cs),
(34,1264,l),
(34,1216,o),
(58,1184,o),
(102,1184,cs),
(149,1184,o),
(179,1200,o),
(184,1251,cs),
(214,1538,l),
(704,1538,l),
(704,176,l),
(440,176,ls),
(389,176,o),
(368,134,o),
(368,84,cs),
(368,40,o),
(395,0,o),
(442,0,cs)
);
}
);
width = 1662;
}
);
unicode = 84;
},
{
glyphname = Tcaron;
kernLeft = T;
kernRight = T;
lastChange = "2024-05-02 12:22:03 +0000";
layers = (
{
background = {
shapes = (
{
closed = 1;
nodes = (
(58,1184,o),
(34,1216,o),
(34,1264,c),
(49,1636,ls),
(51,1688,o),
(65,1714,o),
(110,1714,cs),
(1552,1714,ls),
(1595,1714,o),
(1611,1687,o),
(1613,1636,cs),
(1628,1264,l),
(1628,1216,o),
(1604,1184,o),
(1560,1184,cs),
(1513,1184,o),
(1483,1201,o),
(1478,1251,cs),
(1447,1538,l),
(937,1538,l),
(937,176,l),
(1202,176,ls),
(1253,176,o),
(1273,134,o),
(1273,84,cs),
(1273,40,o),
(1247,0,o),
(1200,0,cs),
(442,0,ls),
(395,0,o),
(368,40,o),
(368,84,cs),
(368,134,o),
(389,176,o),
(440,176,cs),
(704,176,l),
(704,1538,l),
(214,1538,l),
(184,1251,ls),
(179,1200,o),
(149,1184,o),
(102,1184,cs)
);
},
{
closed = 1;
nodes = (
(800,1927,o),
(781,1933,o),
(773,1944,cs),
(503,2358,l),
(496,2366,o),
(493,2375,o),
(493,2383,cs),
(493,2407,o),
(520,2426,o),
(547,2426,cs),
(559,2426,o),
(573,2424,o),
(581,2413,cs),
(819,2107,l),
(1057,2413,ls),
(1065,2424,o),
(1079,2426,o),
(1091,2426,cs),
(1118,2426,o),
(1145,2407,o),
(1145,2383,cs),
(1145,2375,o),
(1142,2366,o),
(1135,2358,c),
(865,1944,ls),
(857,1933,o),
(838,1927,o),
(819,1927,cs)
);
}
);
};
layerId = m001;
shapes = (
{
ref = T;
},
{
pos = (535,554);
ref = caroncomb;
}
);
width = 1662;
}
);
unicode = 356;
},
{
glyphname = Tcedilla;
kernLeft = T;
kernRight = T;
lastChange = "2024-05-02 12:22:03 +0000";
layers = (
{
background = {
shapes = (
{
closed = 1;
nodes = (
(58,1184,o),
(34,1216,o),
(34,1264,c),
(49,1636,ls),
(51,1688,o),
(65,1714,o),
(110,1714,cs),
(1552,1714,ls),
(1595,1714,o),
(1611,1687,o),
(1613,1636,cs),
(1628,1264,l),
(1628,1216,o),
(1604,1184,o),
(1560,1184,cs),
(1513,1184,o),
(1483,1201,o),
(1478,1251,cs),
(1447,1538,l),
(937,1538,l),
(937,176,l),
(1202,176,ls),
(1253,176,o),
(1273,134,o),
(1273,84,cs),
(1273,40,o),
(1247,0,o),
(1200,0,cs),
(442,0,ls),
(395,0,o),
(368,40,o),
(368,84,cs),
(368,134,o),
(389,176,o),
(440,176,cs),
(704,176,l),
(704,1538,l),
(214,1538,l),
(184,1251,ls),
(179,1200,o),
(149,1184,o),
(102,1184,cs)
);
},
{
closed = 1;
nodes = (
(928,-501,l),
(920,-619,o),
(851,-675,o),
(786,-675,cs),
(728,-675,o),
(674,-629,o),
(674,-538,cs),
(674,-472,o),
(830,-49,o),
(860,0,c),
(988,0,l)
);
}
);
};
layerId = m001;
shapes = (
{
ref = T;
},
{
pos = (584,0);
ref = cedillacomb;
}
);
width = 1662;
}
);
unicode = 354;
},
{
glyphname = Tcommaaccent;
kernLeft = T;
kernRight = T;
lastChange = "2024-05-02 12:22:03 +0000";
layers = (
{
background = {
shapes = (
{
closed = 1;
nodes = (
(58,1184,o),
(34,1216,o),
(34,1264,c),
(49,1636,ls),
(51,1688,o),
(65,1714,o),
(110,1714,cs),
(1552,1714,ls),
(1595,1714,o),
(1611,1687,o),
(1613,1636,cs),
(1628,1264,l),
(1628,1216,o),
(1604,1184,o),
(1560,1184,cs),
(1513,1184,o),
(1483,1201,o),
(1478,1251,cs),
(1447,1538,l),
(937,1538,l),
(937,176,l),
(1202,176,ls),
(1253,176,o),
(1273,134,o),
(1273,84,cs),
(1273,40,o),
(1247,0,o),
(1200,0,cs),
(442,0,ls),
(395,0,o),
(368,40,o),
(368,84,cs),
(368,134,o),
(389,176,o),
(440,176,cs),
(704,176,l),
(704,1538,l),
(214,1538,l),
(184,1251,ls),
(179,1200,o),
(149,1184,o),
(102,1184,cs)
);
},
{
closed = 1;
nodes = (
(934,-122,o),
(1029,-196,o),
(1029,-344,cs),
(1029,-555,o),
(906,-689,o),
(755,-765,cs),
(739,-774,o),
(722,-778,o),
(708,-778,cs),
(665,-778,o),
(633,-745,o),
(633,-710,cs),
(633,-692,o),
(642,-673,o),
(664,-658,cs),
(741,-607,o),
(842,-541,o),
(842,-427,c),
(734,-427,o),
(654,-379,o),
(654,-277,cs),
(654,-174,o),
(736,-122,o),
(824,-122,cs)
);
}
);
};
layerId = m001;
shapes = (
{
ref = T;
},
{
pos = (582,0);
ref = commaaccentcomb;
}
);
width = 1662;
}
);
unicode = 538;
},
{
glyphname = Tdotaccent;
kernLeft = T;
kernRight = T;
lastChange = "2024-05-02 12:22:03 +0000";
layers = (
{
background = {
shapes = (
{
closed = 1;
nodes = (
(58,1184,o),
(34,1216,o),
(34,1264,c),
(49,1636,ls),
(51,1688,o),
(65,1714,o),
(110,1714,cs),
(1552,1714,ls),
(1595,1714,o),
(1611,1687,o),
(1613,1636,cs),
(1628,1264,l),
(1628,1216,o),
(1604,1184,o),
(1560,1184,cs),
(1513,1184,o),
(1483,1201,o),
(1478,1251,cs),
(1447,1538,l),
(937,1538,l),
(937,176,l),
(1202,176,ls),
(1253,176,o),
(1273,134,o),
(1273,84,cs),
(1273,40,o),
(1247,0,o),
(1200,0,cs),
(442,0,ls),
(395,0,o),
(368,40,o),
(368,84,cs),
(368,134,o),
(389,176,o),
(440,176,cs),
(704,176,l),
(704,1538,l),
(214,1538,l),
(184,1251,ls),
(179,1200,o),
(149,1184,o),
(102,1184,cs)
);
},
{
closed = 1;
nodes = (
(981,1981,o),
(921,1902,o),
(832,1902,cs),
(735,1902,o),
(682,1981,o),
(682,2058,cs),
(682,2131,o),
(730,2203,o),
(834,2203,cs),
(926,2203,o),
(981,2132,o),
(981,2058,cs)
);
}
);
};
layerId = m001;
shapes = (
{
ref = T;
},
{
pos = (680,554);
ref = dotaccentcomb;
}
);
width = 1662;
}
);
unicode = 7786;
},
{
glyphname = U;
kernLeft = U;
kernRight = U;
lastChange = "2024-05-02 12:22:03 +0000";
layers = (
{
anchors = (
{
name = bottom;
pos = (926,0);
},
{
name = ogonek;
pos = (1267,10);
},
{
name = top;
pos = (926,1714);
},
{
name = topright;
pos = (1832,1714);
}
);
background = {
shapes = (
{
closed = 1;
nodes = (
(542,-25,o),
(262,207,o),
(262,604,cs),
(262,1538,l),
(111,1538,ls),
(60,1538,o),
(39,1580,o),
(39,1630,cs),
(39,1674,o),
(66,1714,o),
(113,1714,cs),
(697,1714,ls),
(744,1714,o),
(770,1674,o),
(770,1630,cs),
(770,1580,o),
(750,1538,o),
(699,1538,cs),
(496,1538,l),
(496,604,ls),
(496,318,o),
(656,154,o),
(944,154,cs),
(1206,154,o),
(1375,340,o),
(1375,602,cs),
(1375,1538,l),
(1184,1538,ls),
(1133,1538,o),
(1112,1580,o),
(1112,1630,cs),
(1112,1674,o),
(1139,1714,o),
(1186,1714,cs),
(1739,1714,ls),
(1786,1714,o),
(1813,1674,o),
(1813,1630,cs),
(1813,1580,o),
(1792,1538,o),
(1741,1538,cs),
(1567,1538,l),
(1567,602,ls),
(1567,230,o),
(1315,-25,o),
(944,-25,cs)
);
}
);
};
layerId = m001;
shapes = (
{
closed = 1;
nodes = (
(1315,-25,o),
(1567,230,o),
(1567,602,cs),
(1567,1538,l),
(1741,1538,ls),
(1792,1538,o),
(1813,1580,o),
(1813,1630,cs),
(1813,1674,o),
(1786,1714,o),
(1739,1714,cs),
(1186,1714,ls),
(1139,1714,o),
(1112,1674,o),
(1112,1630,cs),
(1112,1580,o),
(1133,1538,o),
(1184,1538,cs),
(1375,1538,l),
(1375,602,ls),
(1375,340,o),
(1206,154,o),
(944,154,cs),
(656,154,o),
(496,318,o),
(496,604,cs),
(496,1538,l),
(699,1538,ls),
(750,1538,o),
(770,1580,o),
(770,1630,cs),
(770,1674,o),
(744,1714,o),
(697,1714,cs),
(113,1714,ls),
(66,1714,o),
(39,1674,o),
(39,1630,cs),
(39,1580,o),
(60,1538,o),
(111,1538,cs),
(262,1538,l),
(262,604,ls),
(262,207,o),
(542,-25,o),
(944,-25,cs)
);
}
);
width = 1852;
}
);
unicode = 85;
},
{
glyphname = Uacute;
kernLeft = U;
kernRight = U;
lastChange = "2024-05-02 12:22:03 +0000";
layers = (
{
background = {
shapes = (
{
closed = 1;
nodes = (
(542,-25,o),
(262,207,o),
(262,604,cs),
(262,1538,l),
(111,1538,ls),
(60,1538,o),
(39,1580,o),
(39,1630,cs),
(39,1674,o),
(66,1714,o),
(113,1714,cs),
(697,1714,ls),
(744,1714,o),
(770,1674,o),
(770,1630,cs),
(770,1580,o),
(750,1538,o),
(699,1538,cs),
(496,1538,l),
(496,604,ls),
(496,318,o),
(656,154,o),
(944,154,cs),
(1206,154,o),
(1375,340,o),
(1375,602,cs),
(1375,1538,l),
(1184,1538,ls),
(1133,1538,o),
(1112,1580,o),
(1112,1630,cs),
(1112,1674,o),
(1139,1714,o),
(1186,1714,cs),
(1739,1714,ls),
(1786,1714,o),
(1813,1674,o),
(1813,1630,cs),
(1813,1580,o),
(1792,1538,o),
(1741,1538,cs),
(1567,1538,l),
(1567,602,ls),
(1567,230,o),
(1315,-25,o),
(944,-25,cs)
);
},
{
closed = 1;
nodes = (
(1446,2364,o),
(1488,2321,o),
(1488,2280,cs),
(1488,2262,o),
(1480,2247,o),
(1462,2235,cs),
(1304,2136,o),
(1127,2021,o),
(964,1928,cs),
(957,1924,o),
(950,1921,o),
(945,1921,cs),
(919,1921,o),
(896,1948,o),
(896,1973,cs),
(896,1987,o),
(902,1996,o),
(913,2003,cs),
(1063,2103,o),
(1227,2232,o),
(1363,2349,cs),
(1374,2359,o),
(1388,2364,o),
(1404,2364,cs)
);
}
);
};
layerId = m001;
shapes = (
{
ref = U;
},
{
pos = (881,554);
ref = acutecomb;
}
);
width = 1852;
}
);
unicode = 218;
},
{
glyphname = Ubreve;
kernLeft = U;
kernRight = U;
lastChange = "2024-05-02 12:22:03 +0000";
layers = (
{
background = {
shapes = (
{
closed = 1;
nodes = (
(542,-25,o),
(262,207,o),
(262,604,cs),
(262,1538,l),
(111,1538,ls),
(60,1538,o),
(39,1580,o),
(39,1630,cs),
(39,1674,o),
(66,1714,o),
(113,1714,cs),
(697,1714,ls),
(744,1714,o),
(770,1674,o),
(770,1630,cs),
(770,1580,o),
(750,1538,o),
(699,1538,cs),
(496,1538,l),
(496,604,ls),
(496,318,o),
(656,154,o),
(944,154,cs),
(1206,154,o),
(1375,340,o),
(1375,602,cs),
(1375,1538,l),
(1184,1538,ls),
(1133,1538,o),
(1112,1580,o),
(1112,1630,cs),
(1112,1674,o),
(1139,1714,o),
(1186,1714,cs),
(1739,1714,ls),
(1786,1714,o),
(1813,1674,o),
(1813,1630,cs),
(1813,1580,o),
(1792,1538,o),
(1741,1538,cs),
(1567,1538,l),
(1567,602,ls),
(1567,230,o),
(1315,-25,o),
(944,-25,cs)
);
},
{
closed = 1;
nodes = (
(778,2141,o),
(859,2081,o),
(940,2081,cs),
(1021,2081,o),
(1102,2141,o),
(1148,2261,cs),
(1154,2277,o),
(1168,2282,o),
(1181,2282,cs),
(1207,2282,o),
(1236,2257,o),
(1236,2235,cs),
(1236,2024,o),
(1088,1918,o),
(940,1918,cs),
(792,1918,o),
(644,2024,o),
(644,2235,cs),
(644,2257,o),
(673,2282,o),
(699,2282,cs),
(712,2282,o),
(726,2277,o),
(732,2261,cs)
);
}
);
};
layerId = m001;
shapes = (
{
ref = U;
},
{
pos = (630,554);
ref = brevecomb;
}
);
width = 1852;
}
);
unicode = 364;
},
{
glyphname = Ucircumflex;
kernLeft = U;
kernRight = U;
lastChange = "2024-05-02 12:22:03 +0000";
layers = (
{
background = {
shapes = (
{
closed = 1;
nodes = (
(542,-25,o),
(262,207,o),
(262,604,cs),
(262,1538,l),
(111,1538,ls),
(60,1538,o),
(39,1580,o),
(39,1630,cs),
(39,1674,o),
(66,1714,o),
(113,1714,cs),
(697,1714,ls),
(744,1714,o),
(770,1674,o),
(770,1630,cs),
(770,1580,o),
(750,1538,o),
(699,1538,cs),
(496,1538,l),
(496,604,ls),
(496,318,o),
(656,154,o),
(944,154,cs),
(1206,154,o),
(1375,340,o),
(1375,602,cs),
(1375,1538,l),
(1184,1538,ls),
(1133,1538,o),
(1112,1580,o),
(1112,1630,cs),
(1112,1674,o),
(1139,1714,o),
(1186,1714,cs),
(1739,1714,ls),
(1786,1714,o),
(1813,1674,o),
(1813,1630,cs),
(1813,1580,o),
(1792,1538,o),
(1741,1538,cs),
(1567,1538,l),
(1567,602,ls),
(1567,230,o),
(1315,-25,o),
(944,-25,cs)
);
},
{
closed = 1;
nodes = (
(962,2426,o),
(981,2420,o),
(989,2409,cs),
(1259,1995,l),
(1266,1987,o),
(1269,1978,o),
(1269,1970,cs),
(1269,1946,o),
(1242,1927,o),
(1215,1927,cs),
(1203,1927,o),
(1189,1929,o),
(1181,1940,cs),
(943,2246,l),
(705,1940,ls),
(697,1929,o),
(683,1927,o),
(671,1927,cs),
(644,1927,o),
(617,1946,o),
(617,1970,cs),
(617,1978,o),
(620,1987,o),
(627,1995,c),
(897,2409,ls),
(905,2420,o),
(924,2426,o),
(943,2426,cs)
);
}
);
};
layerId = m001;
shapes = (
{
ref = U;
},
{
pos = (630,554);
ref = circumflexcomb;
}
);
width = 1852;
}
);
unicode = 219;
},
{
glyphname = Udblgrave;
kernLeft = U;
kernRight = U;
lastChange = "2024-05-02 12:22:03 +0000";
layers = (
{
background = {
shapes = (
{
closed = 1;
nodes = (
(542,-25,o),
(262,207,o),
(262,604,cs),
(262,1538,l),
(111,1538,ls),
(60,1538,o),
(39,1580,o),
(39,1630,cs),
(39,1674,o),
(66,1714,o),
(113,1714,cs),
(697,1714,ls),
(744,1714,o),
(770,1674,o),
(770,1630,cs),
(770,1580,o),
(750,1538,o),
(699,1538,cs),
(496,1538,l),
(496,604,ls),
(496,318,o),
(656,154,o),
(944,154,cs),
(1206,154,o),
(1375,340,o),
(1375,602,cs),
(1375,1538,l),
(1184,1538,ls),
(1133,1538,o),
(1112,1580,o),
(1112,1630,cs),
(1112,1674,o),
(1139,1714,o),
(1186,1714,cs),
(1739,1714,ls),
(1786,1714,o),
(1813,1674,o),
(1813,1630,cs),
(1813,1580,o),
(1792,1538,o),
(1741,1538,cs),
(1567,1538,l),
(1567,602,ls),
(1567,230,o),
(1315,-25,o),
(944,-25,cs)
);
},
{
closed = 1;
nodes = (
(668,2364,o),
(626,2321,o),
(626,2280,cs),
(626,2262,o),
(634,2247,o),
(652,2235,cs),
(810,2136,o),
(987,2021,o),
(1150,1928,cs),
(1157,1924,o),
(1164,1921,o),
(1169,1921,cs),
(1195,1921,o),
(1218,1948,o),
(1218,1973,cs),
(1218,1987,o),
(1212,1996,o),
(1201,2003,cs),
(1051,2103,o),
(887,2232,o),
(751,2349,cs),
(740,2359,o),
(726,2364,o),
(710,2364,cs)
);
},
{
closed = 1;
nodes = (
(293,2364,o),
(251,2321,o),
(251,2280,cs),
(251,2262,o),
(260,2247,o),
(278,2235,cs),
(436,2136,o),
(612,2021,o),
(775,1928,cs),
(782,1924,o),
(789,1921,o),
(794,1921,cs),
(820,1921,o),
(843,1948,o),
(843,1973,cs),
(843,1987,o),
(837,1996,o),
(826,2003,cs),
(676,2103,o),
(512,2232,o),
(376,2349,cs),
(365,2359,o),
(351,2364,o),
(335,2364,cs)
);
}
);
};
layerId = m001;
shapes = (
{
ref = U;
},
{
pos = (233,494);
ref = dblgravecomb;
}
);
width = 1852;
}
);
unicode = 532;
},
{
glyphname = Udieresis;
kernLeft = U;
kernRight = U;
lastChange = "2024-05-02 12:22:03 +0000";
layers = (
{
background = {
shapes = (
{
closed = 1;
nodes = (
(542,-25,o),
(262,207,o),
(262,604,cs),
(262,1538,l),
(111,1538,ls),
(60,1538,o),
(39,1580,o),
(39,1630,cs),
(39,1674,o),
(66,1714,o),
(113,1714,cs),
(697,1714,ls),
(744,1714,o),
(770,1674,o),
(770,1630,cs),
(770,1580,o),
(750,1538,o),
(699,1538,cs),
(496,1538,l),
(496,604,ls),
(496,318,o),
(656,154,o),
(944,154,cs),
(1206,154,o),
(1375,340,o),
(1375,602,cs),
(1375,1538,l),
(1184,1538,ls),
(1133,1538,o),
(1112,1580,o),
(1112,1630,cs),
(1112,1674,o),
(1139,1714,o),
(1186,1714,cs),
(1739,1714,ls),
(1786,1714,o),
(1813,1674,o),
(1813,1630,cs),
(1813,1580,o),
(1792,1538,o),
(1741,1538,cs),
(1567,1538,l),
(1567,602,ls),
(1567,230,o),
(1315,-25,o),
(944,-25,cs)
);
},
{
closed = 1;
nodes = (
(633,1926,o),
(572,1986,o),
(572,2059,cs),
(572,2132,o),
(633,2192,o),
(706,2192,cs),
(779,2192,o),
(839,2132,o),
(839,2059,cs),
(839,1986,o),
(779,1926,o),
(706,1926,cs)
);
},
{
closed = 1;
nodes = (
(1124,1926,o),
(1064,1986,o),
(1064,2059,cs),
(1064,2132,o),
(1124,2192,o),
(1197,2192,cs),
(1270,2192,o),
(1330,2132,o),
(1330,2059,cs),
(1330,1986,o),
(1270,1926,o),
(1197,1926,cs)
);
}
);
};
layerId = m001;
shapes = (
{
ref = U;
},
{
pos = (492,494);
ref = dieresiscomb;
}
);
width = 1852;
}
);
unicode = 220;
},
{
glyphname = Ugrave;
kernLeft = U;
kernRight = U;
lastChange = "2024-07-31 14:33:50 +0000";
layers = (
{
background = {
shapes = (
{
closed = 1;
nodes = (
(542,-25,o),
(262,207,o),
(262,604,cs),
(262,1538,l),
(111,1538,ls),
(60,1538,o),
(39,1580,o),
(39,1630,cs),
(39,1674,o),
(66,1714,o),
(113,1714,cs),
(697,1714,ls),
(744,1714,o),
(770,1674,o),
(770,1630,cs),
(770,1580,o),
(750,1538,o),
(699,1538,cs),
(496,1538,l),
(496,604,ls),
(496,318,o),
(656,154,o),
(944,154,cs),
(1206,154,o),
(1375,340,o),
(1375,602,cs),
(1375,1538,l),
(1184,1538,ls),
(1133,1538,o),
(1112,1580,o),
(1112,1630,cs),
(1112,1674,o),
(1139,1714,o),
(1186,1714,cs),
(1739,1714,ls),
(1786,1714,o),
(1813,1674,o),
(1813,1630,cs),
(1813,1580,o),
(1792,1538,o),
(1741,1538,cs),
(1567,1538,l),
(1567,602,ls),
(1567,230,o),
(1315,-25,o),
(944,-25,cs)
);
},
{
closed = 1;
nodes = (
(1002,1948,o),
(979,1921,o),
(953,1921,cs),
(946,1921,o),
(940,1924,o),
(935,1928,cs),
(773,2021,o),
(594,2137,o),
(437,2235,cs),
(419,2247,o),
(410,2262,o),
(410,2280,cs),
(410,2321,o),
(452,2364,o),
(494,2364,cs),
(510,2364,o),
(524,2359,o),
(535,2349,cs),
(671,2232,o),
(836,2103,o),
(986,2003,cs),
(997,1996,o),
(1002,1987,o),
(1002,1973,cs)
);
}
);
};
layerId = m001;
shapes = (
{
ref = U;
},
{
pos = (451,554);
ref = gravecomb;
}
);
width = 1852;
}
);
unicode = 217;
},
{
glyphname = Uhungarumlaut;
kernLeft = U;
kernRight = U;
lastChange = "2024-05-02 12:22:03 +0000";
layers = (
{
background = {
shapes = (
{
closed = 1;
nodes = (
(542,-25,o),
(262,207,o),
(262,604,cs),
(262,1538,l),
(111,1538,ls),
(60,1538,o),
(39,1580,o),
(39,1630,cs),
(39,1674,o),
(66,1714,o),
(113,1714,cs),
(697,1714,ls),
(744,1714,o),
(770,1674,o),
(770,1630,cs),
(770,1580,o),
(750,1538,o),
(699,1538,cs),
(496,1538,l),
(496,604,ls),
(496,318,o),
(656,154,o),
(944,154,cs),
(1206,154,o),
(1375,340,o),
(1375,602,cs),
(1375,1538,l),
(1184,1538,ls),
(1133,1538,o),
(1112,1580,o),
(1112,1630,cs),
(1112,1674,o),
(1139,1714,o),
(1186,1714,cs),
(1739,1714,ls),
(1786,1714,o),
(1813,1674,o),
(1813,1630,cs),
(1813,1580,o),
(1792,1538,o),
(1741,1538,cs),
(1567,1538,l),
(1567,602,ls),
(1567,230,o),
(1315,-25,o),
(944,-25,cs)
);
},
{
closed = 1;
nodes = (
(1314,2364,o),
(1356,2321,o),
(1356,2280,cs),
(1356,2262,o),
(1348,2247,o),
(1330,2235,cs),
(1172,2136,o),
(995,2021,o),
(832,1928,cs),
(825,1924,o),
(818,1921,o),
(813,1921,cs),
(787,1921,o),
(764,1948,o),
(764,1973,cs),
(764,1987,o),
(770,1996,o),
(781,2003,cs),
(931,2103,o),
(1095,2232,o),
(1231,2349,cs),
(1242,2359,o),
(1256,2364,o),
(1272,2364,cs)
);
},
{
closed = 1;
nodes = (
(1689,2364,o),
(1731,2321,o),
(1731,2280,cs),
(1731,2262,o),
(1722,2247,o),
(1704,2235,cs),
(1546,2136,o),
(1370,2021,o),
(1207,1928,cs),
(1200,1924,o),
(1193,1921,o),
(1188,1921,cs),
(1162,1921,o),
(1139,1948,o),
(1139,1973,cs),
(1139,1987,o),
(1145,1996,o),
(1156,2003,cs),
(1306,2103,o),
(1470,2232,o),
(1606,2349,cs),
(1617,2359,o),
(1631,2364,o),
(1647,2364,cs)
);
}
);
};
layerId = m001;
shapes = (
{
ref = U;
},
{
pos = (723,474);
ref = hungarumlautcomb;
}
);
width = 1852;
}
);
unicode = 368;
},
{
glyphname = Uinvertedbreve;
kernLeft = U;
kernRight = U;
lastChange = "2024-05-02 12:22:03 +0000";
layers = (
{
background = {
shapes = (
{
closed = 1;
nodes = (
(542,-25,o),
(262,207,o),
(262,604,cs),
(262,1538,l),
(111,1538,ls),
(60,1538,o),
(39,1580,o),
(39,1630,cs),
(39,1674,o),
(66,1714,o),
(113,1714,cs),
(697,1714,ls),
(744,1714,o),
(770,1674,o),
(770,1630,cs),
(770,1580,o),
(750,1538,o),
(699,1538,cs),
(496,1538,l),
(496,604,ls),
(496,318,o),
(656,154,o),
(944,154,cs),
(1206,154,o),
(1375,340,o),
(1375,602,cs),
(1375,1538,l),
(1184,1538,ls),
(1133,1538,o),
(1112,1580,o),
(1112,1630,cs),
(1112,1674,o),
(1139,1714,o),
(1186,1714,cs),
(1739,1714,ls),
(1786,1714,o),
(1813,1674,o),
(1813,1630,cs),
(1813,1580,o),
(1792,1538,o),
(1741,1538,cs),
(1567,1538,l),
(1567,602,ls),
(1567,230,o),
(1315,-25,o),
(944,-25,cs)
);
},
{
closed = 1;
nodes = (
(677,1876,o),
(650,1893,o),
(650,1917,cs),
(650,2129,o),
(798,2239,o),
(946,2239,cs),
(1094,2239,o),
(1242,2128,o),
(1242,1917,cs),
(1242,1893,o),
(1215,1876,o),
(1189,1876,cs),
(1171,1876,o),
(1153,1884,o),
(1146,1904,cs),
(1100,2025,o),
(1027,2077,o),
(946,2077,cs),
(865,2077,o),
(792,2025,o),
(746,1904,cs),
(739,1884,o),
(721,1876,o),
(703,1876,cs)
);
}
);
};
layerId = m001;
shapes = (
{
ref = U;
},
{
pos = (630,554);
ref = breveinvertedcomb;
}
);
width = 1852;
}
);
unicode = 534;
},
{
glyphname = Umacron;
kernLeft = U;
kernRight = U;
lastChange = "2024-05-02 12:22:03 +0000";
layers = (
{
background = {
shapes = (
{
closed = 1;
nodes = (
(542,-25,o),
(262,207,o),
(262,604,cs),
(262,1538,l),
(111,1538,ls),
(60,1538,o),
(39,1580,o),
(39,1630,cs),
(39,1674,o),
(66,1714,o),
(113,1714,cs),
(697,1714,ls),
(744,1714,o),
(770,1674,o),
(770,1630,cs),
(770,1580,o),
(750,1538,o),
(699,1538,cs),
(496,1538,l),
(496,604,ls),
(496,318,o),
(656,154,o),
(944,154,cs),
(1206,154,o),
(1375,340,o),
(1375,602,cs),
(1375,1538,l),
(1184,1538,ls),
(1133,1538,o),
(1112,1580,o),
(1112,1630,cs),
(1112,1674,o),
(1139,1714,o),
(1186,1714,cs),
(1739,1714,ls),
(1786,1714,o),
(1813,1674,o),
(1813,1630,cs),
(1813,1580,o),
(1792,1538,o),
(1741,1538,cs),
(1567,1538,l),
(1567,602,ls),
(1567,230,o),
(1315,-25,o),
(944,-25,cs)
);
},
{
closed = 1;
nodes = (
(683,1976,ls),
(628,1976,o),
(601,2016,o),
(601,2055,cs),
(601,2094,o),
(627,2132,o),
(677,2132,cs),
(1215,2132,ls),
(1263,2132,o),
(1287,2094,o),
(1287,2055,cs),
(1287,2016,o),
(1262,1976,o),
(1213,1976,cs)
);
}
);
};
layerId = m001;
shapes = (
{
ref = U;
},
{
pos = (413,494);
ref = macroncomb;
}
);
width = 1852;
}
);
unicode = 362;
},
